SplineFontDB: 3.2
FontName: Cairo-Regular
FullName: Cairo Regular
FamilyName: Cairo
Weight: Book
Copyright: Copyright 2009 The Cairo Project Authors (https://github.com/Gue3bara/Cairo)
Version: 3.130;gftools[0.9.24]
ItalicAngle: 0
UnderlinePosition: -125
UnderlineWidth: 50
Ascent: 800
Descent: 200
InvalidEm: 0
sfntRevision: 0x00032148
LayerCount: 2
Layer: 0 1 "Back" 1
Layer: 1 1 "Fore" 0
XUID: [1021 721 -1491311672 32675]
StyleMap: 0x0040
FSType: 0
OS2Version: 4
OS2_WeightWidthSlopeOnly: 0
OS2_UseTypoMetrics: 1
CreationTime: 1676995835
ModificationTime: 1740643766
PfmFamily: 81
TTFWeight: 400
TTFWidth: 5
LineGap: 0
VLineGap: 0
Panose: 0 0 0 0 0 0 0 0 0 0
OS2TypoAscent: 1303
OS2TypoAOffset: 0
OS2TypoDescent: -571
OS2TypoDOffset: 0
OS2TypoLinegap: 0
OS2WinAscent: 1312
OS2WinAOffset: 0
OS2WinDescent: 571
OS2WinDOffset: 0
HheadAscent: 1303
HheadAOffset: 0
HheadDescent: -571
HheadDOffset: 0
OS2SubXSize: 650
OS2SubYSize: 600
OS2SubXOff: 0
OS2SubYOff: 75
OS2SupXSize: 650
OS2SupYSize: 600
OS2SupXOff: 0
OS2SupYOff: 350
OS2StrikeYSize: 50
OS2StrikeYPos: 300
OS2CapHeight: 700
OS2XHeight: 500
OS2Vendor: '1KTF'
OS2CodePages: 200000d3.00080000
OS2UnicodeRanges: 80002027.8000004b.00000008.00000000
Lookup: 4 0 0 "'ccmp' Glyph Composition/Decomposition lookup 0" { "'ccmp' Glyph Composition/Decomposition lookup 0 subtable"  } ['ccmp' ('DFLT' <'dflt' > 'arab' <'URD ' 'dflt' > 'latn' <'dflt' > ) ]
Lookup: 1 0 0 "'locl' Localized Forms in Arabic lookup 1" { "'locl' Localized Forms in Arabic lookup 1 subtable"  } ['locl' ('arab' <'URD ' > ) ]
Lookup: 1 0 0 "'numr' Numerators lookup 2" { "'numr' Numerators lookup 2 subtable"  } ['numr' ('DFLT' <'dflt' > 'arab' <'URD ' 'dflt' > 'latn' <'dflt' > ) ]
Lookup: 1 0 0 "'dnom' Denominators lookup 3" { "'dnom' Denominators lookup 3 subtable"  } ['dnom' ('DFLT' <'dflt' > 'arab' <'URD ' 'dflt' > 'latn' <'dflt' > ) ]

StartChar: .notdef
Encoding: 65536 -1 0
Width: 235
GlyphClass: 1
Flags: W
LayerCount: 2
Fore
SplineSet
21 709 m 1,0,-1
 207 709 l 1,1,-1
 207 0 l 1,2,-1
 21 0 l 1,3,-1
 21 709 l 1,0,-1
41 689 m 1,4,-1
 41 20 l 1,5,-1
 187 20 l 1,6,-1
 187 689 l 1,7,-1
 41 689 l 1,4,-1
EndSplineSet
PairPos2: "'kern' Horizontal Kerning in Arabic lookup 0 subtable" uniFEF3 dx=80 dy=0 dh=80 dv=0 dx=0 dy=0 dh=0 dv=0
PairPos2: "'kern' Horizontal Kerning in Arabic lookup 0 subtable" uniFB58 dx=80 dy=0 dh=80 dv=0 dx=0 dy=0 dh=0 dv=0
EndChar

StartChar: A
Encoding: 65 65 1
Width: 596
GlyphClass: 1
Flags: W
LayerCount: 2
Fore
SplineSet
23 0 m 1,0,-1
 212 691 l 1,1,-1
 385 691 l 1,2,-1
 573 0 l 1,3,-1
 493 0 l 1,4,-1
 444 175 l 1,5,-1
 152 175 l 1,6,-1
 103 0 l 1,7,-1
 23 0 l 1,0,-1
169 246 m 1,8,-1
 427 246 l 1,9,-1
 324 623 l 1,10,-1
 272 623 l 1,11,-1
 169 246 l 1,8,-1
EndSplineSet
PairPos2: "'kern' Horizontal Kerning in Arabic lookup 0 subtable" uniFEF3 dx=80 dy=0 dh=80 dv=0 dx=0 dy=0 dh=0 dv=0
PairPos2: "'kern' Horizontal Kerning in Arabic lookup 0 subtable" uniFB58 dx=80 dy=0 dh=80 dv=0 dx=0 dy=0 dh=0 dv=0
EndChar

StartChar: AE
Encoding: 198 198 9
Width: 876
GlyphClass: 1
Flags: W
LayerCount: 2
Fore
SplineSet
19 0 m 1,0,-1
 241 696 l 1,1,-1
 829 696 l 1,2,-1
 829 619 l 1,3,-1
 486 619 l 1,4,-1
 486 394 l 1,5,-1
 769 394 l 1,6,-1
 769 318 l 1,7,-1
 486 318 l 1,8,-1
 486 76 l 1,9,-1
 829 76 l 1,10,-1
 829 0 l 1,11,-1
 407 0 l 1,12,-1
 407 172 l 1,13,-1
 159 172 l 1,14,-1
 102 0 l 1,15,-1
 19 0 l 1,0,-1
180 249 m 1,16,-1
 407 249 l 1,17,-1
 408 619 l 1,18,-1
 299 619 l 1,19,-1
 180 249 l 1,16,-1
EndSplineSet
PairPos2: "'kern' Horizontal Kerning in Arabic lookup 0 subtable" uniFEF3 dx=80 dy=0 dh=80 dv=0 dx=0 dy=0 dh=0 dv=0
PairPos2: "'kern' Horizontal Kerning in Arabic lookup 0 subtable" uniFB58 dx=80 dy=0 dh=80 dv=0 dx=0 dy=0 dh=0 dv=0
EndChar

StartChar: B
Encoding: 66 66 10
Width: 615
GlyphClass: 1
Flags: W
LayerCount: 2
Fore
SplineSet
84 0 m 1,0,-1
 84 691 l 1,1,-1
 336 691 l 2,2,3
 404 691 404 691 449.5 673 c 128,-1,4
 495 655 495 655 518.5 616 c 128,-1,5
 542 577 542 577 542 515 c 0,6,7
 542 471 542 471 531.5 440.5 c 128,-1,8
 521 410 521 410 502 390 c 128,-1,9
 483 370 483 370 455 356 c 1,10,11
 485 346 485 346 509.5 327 c 128,-1,12
 534 308 534 308 548.5 276 c 128,-1,13
 563 244 563 244 563 194 c 0,14,15
 563 140 563 140 548 102.5 c 128,-1,16
 533 65 533 65 504.5 42.5 c 128,-1,17
 476 20 476 20 436.5 10 c 128,-1,18
 397 0 397 0 348 0 c 2,19,-1
 84 0 l 1,0,-1
164 70 m 1,20,-1
 345 70 l 2,21,22
 387 70 387 70 417.5 81 c 128,-1,23
 448 92 448 92 465 119.5 c 128,-1,24
 482 147 482 147 482 197 c 0,25,26
 482 236 482 236 467.5 260 c 128,-1,27
 453 284 453 284 431 296 c 128,-1,28
 409 308 409 308 385 312 c 128,-1,29
 361 316 361 316 341 316 c 2,30,-1
 164 316 l 1,31,-1
 164 70 l 1,20,-1
164 386 m 1,32,-1
 340 386 l 2,33,34
 383 386 383 386 409.5 399.5 c 128,-1,35
 436 413 436 413 448.5 440 c 128,-1,36
 461 467 461 467 461 508 c 0,37,38
 461 567 461 567 429.5 594 c 128,-1,39
 398 621 398 621 333 621 c 2,40,-1
 164 621 l 1,41,-1
 164 386 l 1,32,-1
EndSplineSet
PairPos2: "'kern' Horizontal Kerning in Arabic lookup 0 subtable" uniFEF3 dx=80 dy=0 dh=80 dv=0 dx=0 dy=0 dh=0 dv=0
PairPos2: "'kern' Horizontal Kerning in Arabic lookup 0 subtable" uniFB58 dx=80 dy=0 dh=80 dv=0 dx=0 dy=0 dh=0 dv=0
EndChar

StartChar: C
Encoding: 67 67 11
Width: 544
GlyphClass: 1
Flags: W
LayerCount: 2
Fore
SplineSet
312 -10 m 0,0,1
 234 -10 234 -10 184.5 13 c 128,-1,2
 135 36 135 36 107 81 c 128,-1,3
 79 126 79 126 68.5 192 c 128,-1,4
 58 258 58 258 58 344 c 0,5,6
 58 432 58 432 68.5 499 c 128,-1,7
 79 566 79 566 107 611 c 128,-1,8
 135 656 135 656 184.5 679 c 128,-1,9
 234 702 234 702 312 702 c 0,10,11
 348 702 348 702 383.5 698.5 c 128,-1,12
 419 695 419 695 450 689.5 c 128,-1,13
 481 684 481 684 503 679 c 1,14,-1
 500 612 l 1,15,16
 478 616 478 616 446 620 c 128,-1,17
 414 624 414 624 381 627 c 128,-1,18
 348 630 348 630 321 630 c 0,19,20
 264 630 264 630 228.5 613 c 128,-1,21
 193 596 193 596 174 560.5 c 128,-1,22
 155 525 155 525 148 471.5 c 128,-1,23
 141 418 141 418 141 344 c 0,24,25
 141 272 141 272 148 218.5 c 128,-1,26
 155 165 155 165 173.5 130.5 c 128,-1,27
 192 96 192 96 228 79 c 128,-1,28
 264 62 264 62 322 62 c 0,29,30
 364 62 364 62 414.5 67.5 c 128,-1,31
 465 73 465 73 500 79 c 1,32,-1
 503 11 l 1,33,34
 479 6 479 6 447 1 c 128,-1,35
 415 -4 415 -4 380 -7 c 128,-1,36
 345 -10 345 -10 312 -10 c 0,0,1
EndSplineSet
PairPos2: "'kern' Horizontal Kerning in Arabic lookup 0 subtable" uniFEF3 dx=80 dy=0 dh=80 dv=0 dx=0 dy=0 dh=0 dv=0
PairPos2: "'kern' Horizontal Kerning in Arabic lookup 0 subtable" uniFB58 dx=80 dy=0 dh=80 dv=0 dx=0 dy=0 dh=0 dv=0
EndChar

StartChar: D
Encoding: 68 68 13
Width: 644
GlyphClass: 1
Flags: W
LayerCount: 2
Fore
SplineSet
84 0 m 1,0,-1
 84 691 l 1,1,-1
 331 691 l 2,2,3
 407 691 407 691 457 666.5 c 128,-1,4
 507 642 507 642 536 597.5 c 128,-1,5
 565 553 565 553 577 491.5 c 128,-1,6
 589 430 589 430 589 356 c 0,7,8
 589 281 589 281 577.5 216.5 c 128,-1,9
 566 152 566 152 537 103 c 128,-1,10
 508 54 508 54 458 27 c 128,-1,11
 408 0 408 0 331 0 c 2,12,-1
 84 0 l 1,0,-1
164 71 m 1,13,-1
 331 71 l 2,14,15
 385 71 385 71 419 94 c 128,-1,16
 453 117 453 117 472 157 c 128,-1,17
 491 197 491 197 498.5 248 c 128,-1,18
 506 299 506 299 506 356 c 0,19,20
 506 412 506 412 498.5 460 c 128,-1,21
 491 508 491 508 472 544 c 128,-1,22
 453 580 453 580 419 600 c 128,-1,23
 385 620 385 620 331 620 c 2,24,-1
 164 620 l 1,25,-1
 164 71 l 1,13,-1
EndSplineSet
PairPos2: "'kern' Horizontal Kerning in Arabic lookup 0 subtable" uniFEF3 dx=80 dy=0 dh=80 dv=0 dx=0 dy=0 dh=0 dv=0
PairPos2: "'kern' Horizontal Kerning in Arabic lookup 0 subtable" uniFB58 dx=80 dy=0 dh=80 dv=0 dx=0 dy=0 dh=0 dv=0
EndChar

StartChar: Eth
Encoding: 208 208 14
Width: 647
GlyphClass: 1
Flags: W
LayerCount: 2
Fore
SplineSet
20 309 m 1,0,-1
 20 386 l 1,1,-1
 323 386 l 1,2,-1
 323 309 l 1,3,-1
 20 309 l 1,0,-1
87 0 m 1,4,-1
 87 691 l 1,5,-1
 334 691 l 2,6,7
 410 691 410 691 460 666.5 c 128,-1,8
 510 642 510 642 539 597.5 c 128,-1,9
 568 553 568 553 580 491.5 c 128,-1,10
 592 430 592 430 592 356 c 0,11,12
 592 281 592 281 580.5 216.5 c 128,-1,13
 569 152 569 152 540 103 c 128,-1,14
 511 54 511 54 461 27 c 128,-1,15
 411 0 411 0 334 0 c 2,16,-1
 87 0 l 1,4,-1
167 71 m 1,17,-1
 334 71 l 2,18,19
 388 71 388 71 422 94 c 128,-1,20
 456 117 456 117 475 157 c 128,-1,21
 494 197 494 197 501.5 248 c 128,-1,22
 509 299 509 299 509 356 c 0,23,24
 509 412 509 412 501.5 460 c 128,-1,25
 494 508 494 508 475 544 c 128,-1,26
 456 580 456 580 422 600 c 128,-1,27
 388 620 388 620 334 620 c 2,28,-1
 167 620 l 1,29,-1
 167 71 l 1,17,-1
EndSplineSet
PairPos2: "'kern' Horizontal Kerning in Arabic lookup 0 subtable" uniFEF3 dx=80 dy=0 dh=80 dv=0 dx=0 dy=0 dh=0 dv=0
PairPos2: "'kern' Horizontal Kerning in Arabic lookup 0 subtable" uniFB58 dx=80 dy=0 dh=80 dv=0 dx=0 dy=0 dh=0 dv=0
EndChar

StartChar: E
Encoding: 69 69 15
Width: 553
GlyphClass: 1
Flags: W
LayerCount: 2
Fore
SplineSet
84 0 m 1,0,-1
 84 691 l 1,1,-1
 507 691 l 1,2,-1
 507 620 l 1,3,-1
 164 620 l 1,4,-1
 164 386 l 1,5,-1
 447 386 l 1,6,-1
 447 316 l 1,7,-1
 164 316 l 1,8,-1
 164 71 l 1,9,-1
 507 71 l 1,10,-1
 507 0 l 1,11,-1
 84 0 l 1,0,-1
EndSplineSet
PairPos2: "'kern' Horizontal Kerning in Arabic lookup 0 subtable" uniFEF3 dx=80 dy=0 dh=80 dv=0 dx=0 dy=0 dh=0 dv=0
PairPos2: "'kern' Horizontal Kerning in Arabic lookup 0 subtable" uniFB58 dx=80 dy=0 dh=80 dv=0 dx=0 dy=0 dh=0 dv=0
EndChar

StartChar: F
Encoding: 70 70 20
Width: 526
GlyphClass: 1
Flags: W
LayerCount: 2
Fore
SplineSet
84 0 m 1,0,-1
 84 691 l 1,1,-1
 499 691 l 1,2,-1
 499 620 l 1,3,-1
 164 620 l 1,4,-1
 164 354 l 1,5,-1
 447 354 l 1,6,-1
 447 283 l 1,7,-1
 164 283 l 1,8,-1
 164 0 l 1,9,-1
 84 0 l 1,0,-1
EndSplineSet
PairPos2: "'kern' Horizontal Kerning in Arabic lookup 0 subtable" uniFEF3 dx=80 dy=0 dh=80 dv=0 dx=0 dy=0 dh=0 dv=0
PairPos2: "'kern' Horizontal Kerning in Arabic lookup 0 subtable" uniFB58 dx=80 dy=0 dh=80 dv=0 dx=0 dy=0 dh=0 dv=0
EndChar

StartChar: G
Encoding: 71 71 21
Width: 616
GlyphClass: 1
Flags: W
LayerCount: 2
Fore
SplineSet
325 -10 m 0,0,1
 245 -10 245 -10 193 13.5 c 128,-1,2
 141 37 141 37 111 82.5 c 128,-1,3
 81 128 81 128 68.5 194 c 128,-1,4
 56 260 56 260 56 344 c 0,5,6
 56 431 56 431 68.5 497.5 c 128,-1,7
 81 564 81 564 111.5 609.5 c 128,-1,8
 142 655 142 655 193.5 678.5 c 128,-1,9
 245 702 245 702 323 702 c 0,10,11
 362 702 362 702 404.5 698 c 128,-1,12
 447 694 447 694 485.5 687.5 c 128,-1,13
 524 681 524 681 550 675 c 1,14,-1
 547 609 l 1,15,16
 521 614 521 614 483 618.5 c 128,-1,17
 445 623 445 623 405.5 626.5 c 128,-1,18
 366 630 366 630 333 630 c 0,19,20
 274 630 274 630 236 613 c 128,-1,21
 198 596 198 596 177 560.5 c 128,-1,22
 156 525 156 525 147.5 471.5 c 128,-1,23
 139 418 139 418 139 344 c 0,24,25
 139 248 139 248 154 185 c 128,-1,26
 169 122 169 122 210.5 91.5 c 128,-1,27
 252 61 252 61 331 61 c 0,28,29
 354 61 354 61 380 63 c 128,-1,30
 406 65 406 65 430.5 68 c 128,-1,31
 455 71 455 71 471 74 c 1,32,-1
 471 283 l 1,33,-1
 359 283 l 1,34,-1
 359 354 l 1,35,-1
 550 354 l 1,36,-1
 550 14 l 1,37,38
 533 11 533 11 505 7 c 128,-1,39
 477 3 477 3 445 -1 c 128,-1,40
 413 -5 413 -5 381.5 -7.5 c 128,-1,41
 350 -10 350 -10 325 -10 c 0,0,1
EndSplineSet
PairPos2: "'kern' Horizontal Kerning in Arabic lookup 0 subtable" uniFEF3 dx=80 dy=0 dh=80 dv=0 dx=0 dy=0 dh=0 dv=0
PairPos2: "'kern' Horizontal Kerning in Arabic lookup 0 subtable" uniFB58 dx=80 dy=0 dh=80 dv=0 dx=0 dy=0 dh=0 dv=0
EndChar

StartChar: H
Encoding: 72 72 22
Width: 675
GlyphClass: 1
Flags: W
LayerCount: 2
Fore
SplineSet
84 0 m 1,0,-1
 84 691 l 1,1,-1
 164 691 l 1,2,-1
 164 383 l 1,3,-1
 511 383 l 1,4,-1
 511 691 l 1,5,-1
 591 691 l 1,6,-1
 591 0 l 1,7,-1
 511 0 l 1,8,-1
 511 312 l 1,9,-1
 164 312 l 1,10,-1
 164 0 l 1,11,-1
 84 0 l 1,0,-1
EndSplineSet
PairPos2: "'kern' Horizontal Kerning in Arabic lookup 0 subtable" uniFEF3 dx=80 dy=0 dh=80 dv=0 dx=0 dy=0 dh=0 dv=0
PairPos2: "'kern' Horizontal Kerning in Arabic lookup 0 subtable" uniFB58 dx=80 dy=0 dh=80 dv=0 dx=0 dy=0 dh=0 dv=0
EndChar

StartChar: I
Encoding: 73 73 23
Width: 248
GlyphClass: 1
Flags: W
LayerCount: 2
Fore
SplineSet
84 0 m 1,0,-1
 84 691 l 1,1,-1
 164 691 l 1,2,-1
 164 0 l 1,3,-1
 84 0 l 1,0,-1
EndSplineSet
PairPos2: "'kern' Horizontal Kerning in Arabic lookup 0 subtable" uniFEF3 dx=80 dy=0 dh=80 dv=0 dx=0 dy=0 dh=0 dv=0
PairPos2: "'kern' Horizontal Kerning in Arabic lookup 0 subtable" uniFB58 dx=80 dy=0 dh=80 dv=0 dx=0 dy=0 dh=0 dv=0
EndChar

StartChar: J
Encoding: 74 74 28
Width: 289
GlyphClass: 1
Flags: W
LayerCount: 2
Fore
SplineSet
18 -72 m 1,0,-1
 18 -1 l 1,1,2
 51 -1 51 -1 73 2 c 128,-1,3
 95 5 95 5 107 15.5 c 128,-1,4
 119 26 119 26 124 48 c 128,-1,5
 129 70 129 70 129 107 c 2,6,-1
 129 691 l 1,7,-1
 209 691 l 1,8,-1
 209 96 l 2,9,10
 209 40 209 40 198 6.5 c 128,-1,11
 187 -27 187 -27 163.5 -44 c 128,-1,12
 140 -61 140 -61 104 -66.5 c 128,-1,13
 68 -72 68 -72 18 -72 c 1,0,-1
EndSplineSet
PairPos2: "'kern' Horizontal Kerning in Arabic lookup 0 subtable" uniFEF3 dx=80 dy=0 dh=80 dv=0 dx=0 dy=0 dh=0 dv=0
PairPos2: "'kern' Horizontal Kerning in Arabic lookup 0 subtable" uniFB58 dx=80 dy=0 dh=80 dv=0 dx=0 dy=0 dh=0 dv=0
EndChar

StartChar: K
Encoding: 75 75 29
Width: 570
GlyphClass: 1
Flags: W
LayerCount: 2
Fore
SplineSet
84 0 m 1,0,-1
 84 691 l 1,1,-1
 164 691 l 1,2,-1
 164 371 l 1,3,-1
 277 375 l 1,4,-1
 451 691 l 1,5,-1
 543 691 l 1,6,-1
 348 344 l 1,7,-1
 554 0 l 1,8,-1
 459 0 l 1,9,-1
 278 304 l 1,10,-1
 164 300 l 1,11,-1
 164 0 l 1,12,-1
 84 0 l 1,0,-1
EndSplineSet
PairPos2: "'kern' Horizontal Kerning in Arabic lookup 0 subtable" uniFEF3 dx=80 dy=0 dh=80 dv=0 dx=0 dy=0 dh=0 dv=0
PairPos2: "'kern' Horizontal Kerning in Arabic lookup 0 subtable" uniFB58 dx=80 dy=0 dh=80 dv=0 dx=0 dy=0 dh=0 dv=0
EndChar

StartChar: L
Encoding: 76 76 30
Width: 478
GlyphClass: 1
Flags: W
LayerCount: 2
Fore
SplineSet
84 0 m 1,0,-1
 84 691 l 1,1,-1
 164 691 l 1,2,-1
 164 72 l 1,3,-1
 466 72 l 1,4,-1
 466 0 l 1,5,-1
 84 0 l 1,0,-1
EndSplineSet
PairPos2: "'kern' Horizontal Kerning in Arabic lookup 0 subtable" uniFEF3 dx=80 dy=0 dh=80 dv=0 dx=0 dy=0 dh=0 dv=0
PairPos2: "'kern' Horizontal Kerning in Arabic lookup 0 subtable" uniFB58 dx=80 dy=0 dh=80 dv=0 dx=0 dy=0 dh=0 dv=0
EndChar

StartChar: M
Encoding: 77 77 31
Width: 841
GlyphClass: 1
Flags: W
LayerCount: 2
Fore
SplineSet
84 0 m 1,0,-1
 84 691 l 1,1,-1
 229 691 l 1,2,-1
 420 111 l 1,3,-1
 612 691 l 1,4,-1
 757 691 l 1,5,-1
 757 0 l 1,6,-1
 677 0 l 1,7,-1
 677 606 l 1,8,-1
 662 606 l 1,9,-1
 465 25 l 1,10,-1
 376 25 l 1,11,-1
 179 606 l 1,12,-1
 164 606 l 1,13,-1
 164 0 l 1,14,-1
 84 0 l 1,0,-1
EndSplineSet
PairPos2: "'kern' Horizontal Kerning in Arabic lookup 0 subtable" uniFEF3 dx=80 dy=0 dh=80 dv=0 dx=0 dy=0 dh=0 dv=0
PairPos2: "'kern' Horizontal Kerning in Arabic lookup 0 subtable" uniFB58 dx=80 dy=0 dh=80 dv=0 dx=0 dy=0 dh=0 dv=0
EndChar

StartChar: N
Encoding: 78 78 32
Width: 677
GlyphClass: 1
Flags: W
LayerCount: 2
Fore
SplineSet
84 0 m 1,0,-1
 84 691 l 1,1,-1
 233 691 l 1,2,-1
 493 71 l 1,3,-1
 513 71 l 1,4,-1
 513 691 l 1,5,-1
 593 691 l 1,6,-1
 593 0 l 1,7,-1
 447 0 l 1,8,-1
 183 620 l 1,9,-1
 164 620 l 1,10,-1
 164 0 l 1,11,-1
 84 0 l 1,0,-1
EndSplineSet
PairPos2: "'kern' Horizontal Kerning in Arabic lookup 0 subtable" uniFEF3 dx=80 dy=0 dh=80 dv=0 dx=0 dy=0 dh=0 dv=0
PairPos2: "'kern' Horizontal Kerning in Arabic lookup 0 subtable" uniFB58 dx=80 dy=0 dh=80 dv=0 dx=0 dy=0 dh=0 dv=0
EndChar

StartChar: O
Encoding: 79 79 34
Width: 660
GlyphClass: 1
Flags: W
LayerCount: 2
Fore
SplineSet
330 -10 m 256,0,1
 222 -10 222 -10 162.5 30 c 128,-1,2
 103 70 103 70 79.5 148.5 c 128,-1,3
 56 227 56 227 56 342 c 256,4,5
 56 457 56 457 80 537 c 128,-1,6
 104 617 104 617 163.5 659.5 c 128,-1,7
 223 702 223 702 330 702 c 256,8,9
 437 702 437 702 496.5 660 c 128,-1,10
 556 618 556 618 580 537.5 c 128,-1,11
 604 457 604 457 604 342 c 0,12,13
 604 224 604 224 580.5 145.5 c 128,-1,14
 557 67 557 67 497.5 28.5 c 128,-1,15
 438 -10 438 -10 330 -10 c 256,0,1
330 61 m 256,16,17
 409 61 409 61 450 91 c 128,-1,18
 491 121 491 121 506 183.5 c 128,-1,19
 521 246 521 246 521 342 c 0,20,21
 521 435 521 435 505.5 499.5 c 128,-1,22
 490 564 490 564 449 597.5 c 128,-1,23
 408 631 408 631 330 631 c 256,24,25
 252 631 252 631 211 597.5 c 128,-1,26
 170 564 170 564 154.5 500 c 128,-1,27
 139 436 139 436 139 342 c 0,28,29
 139 249 139 249 154 186.5 c 128,-1,30
 169 124 169 124 210 92.5 c 128,-1,31
 251 61 251 61 330 61 c 256,16,17
EndSplineSet
PairPos2: "'kern' Horizontal Kerning in Arabic lookup 0 subtable" uniFEF3 dx=80 dy=0 dh=80 dv=0 dx=0 dy=0 dh=0 dv=0
PairPos2: "'kern' Horizontal Kerning in Arabic lookup 0 subtable" uniFB58 dx=80 dy=0 dh=80 dv=0 dx=0 dy=0 dh=0 dv=0
EndChar

StartChar: Oslash
Encoding: 216 216 39
Width: 660
GlyphClass: 1
Flags: W
LayerCount: 2
Fore
SplineSet
305 206 m 1,0,-1
 246 234 l 1,1,-1
 511 800 l 1,2,-1
 571 774 l 1,3,-1
 305 206 l 1,0,-1
154 -117 m 1,4,-1
 95 -89 l 1,5,-1
 303 356 l 1,6,-1
 363 330 l 1,7,-1
 154 -117 l 1,4,-1
330 -10 m 256,8,9
 222 -10 222 -10 162.5 30 c 128,-1,10
 103 70 103 70 79.5 148.5 c 128,-1,11
 56 227 56 227 56 342 c 256,12,13
 56 457 56 457 80 537 c 128,-1,14
 104 617 104 617 163.5 659.5 c 128,-1,15
 223 702 223 702 330 702 c 256,16,17
 437 702 437 702 496.5 660 c 128,-1,18
 556 618 556 618 580 537.5 c 128,-1,19
 604 457 604 457 604 342 c 0,20,21
 604 224 604 224 580.5 145.5 c 128,-1,22
 557 67 557 67 497.5 28.5 c 128,-1,23
 438 -10 438 -10 330 -10 c 256,8,9
330 61 m 256,24,25
 409 61 409 61 450 91 c 128,-1,26
 491 121 491 121 506 183.5 c 128,-1,27
 521 246 521 246 521 342 c 0,28,29
 521 435 521 435 505.5 499.5 c 128,-1,30
 490 564 490 564 449 597.5 c 128,-1,31
 408 631 408 631 330 631 c 256,32,33
 252 631 252 631 211 597.5 c 128,-1,34
 170 564 170 564 154.5 500 c 128,-1,35
 139 436 139 436 139 342 c 0,36,37
 139 249 139 249 154 186.5 c 128,-1,38
 169 124 169 124 210 92.5 c 128,-1,39
 251 61 251 61 330 61 c 256,24,25
EndSplineSet
Substitution2: "'rvrn' Required Variation Alternates lookup 14 subtable" Oslash.BRACKET.varAlt01
PairPos2: "'kern' Horizontal Kerning in Arabic lookup 0 subtable" uniFEF3 dx=80 dy=0 dh=80 dv=0 dx=0 dy=0 dh=0 dv=0
PairPos2: "'kern' Horizontal Kerning in Arabic lookup 0 subtable" uniFB58 dx=80 dy=0 dh=80 dv=0 dx=0 dy=0 dh=0 dv=0
EndChar

StartChar: OE
Encoding: 338 338 41
Width: 924
GlyphClass: 1
Flags: W
LayerCount: 2
Fore
SplineSet
318 -10 m 0,0,1
 211 -10 211 -10 153.5 31 c 128,-1,2
 96 72 96 72 74.5 151.5 c 128,-1,3
 53 231 53 231 53 348 c 0,4,5
 53 439 53 439 65 505.5 c 128,-1,6
 77 572 77 572 106.5 615.5 c 128,-1,7
 136 659 136 659 187.5 680 c 128,-1,8
 239 701 239 701 318 701 c 0,9,10
 337 701 337 701 363 700 c 128,-1,11
 389 699 389 699 415 696.5 c 128,-1,12
 441 694 441 694 461 691 c 2,13,-1
 877 691 l 1,14,-1
 877 619 l 1,15,-1
 540 619 l 1,16,-1
 540 388 l 1,17,-1
 817 388 l 1,18,-1
 817 317 l 1,19,-1
 540 317 l 1,20,-1
 540 72 l 1,21,-1
 877 72 l 1,22,-1
 877 -1 l 1,23,-1
 466 -1 l 2,24,25
 445 -3 445 -3 417.5 -5.5 c 128,-1,26
 390 -8 390 -8 363.5 -9 c 128,-1,27
 337 -10 337 -10 318 -10 c 0,0,1
328 62 m 0,28,29
 337 62 337 62 353.5 62.5 c 128,-1,30
 370 63 370 63 390 64 c 128,-1,31
 410 65 410 65 428.5 66.5 c 128,-1,32
 447 68 447 68 460 69 c 1,33,-1
 460 621 l 1,34,35
 447 622 447 622 427.5 623.5 c 128,-1,36
 408 625 408 625 388.5 626 c 128,-1,37
 369 627 369 627 352.5 628 c 128,-1,38
 336 629 336 629 327 629 c 0,39,40
 249 629 249 629 208 600.5 c 128,-1,41
 167 572 167 572 151.5 509.5 c 128,-1,42
 136 447 136 447 136 346 c 0,43,44
 136 247 136 247 150.5 184 c 128,-1,45
 165 121 165 121 206.5 91.5 c 128,-1,46
 248 62 248 62 328 62 c 0,28,29
EndSplineSet
PairPos2: "'kern' Horizontal Kerning in Arabic lookup 0 subtable" uniFEF3 dx=80 dy=0 dh=80 dv=0 dx=0 dy=0 dh=0 dv=0
PairPos2: "'kern' Horizontal Kerning in Arabic lookup 0 subtable" uniFB58 dx=80 dy=0 dh=80 dv=0 dx=0 dy=0 dh=0 dv=0
EndChar

StartChar: P
Encoding: 80 80 42
Width: 592
GlyphClass: 1
Flags: W
LayerCount: 2
Fore
SplineSet
84 0 m 1,0,-1
 84 691 l 1,1,-1
 337 691 l 2,2,3
 413 691 413 691 462 666.5 c 128,-1,4
 511 642 511 642 535 592.5 c 128,-1,5
 559 543 559 543 559 467 c 0,6,7
 559 392 559 392 535 339.5 c 128,-1,8
 511 287 511 287 462 259.5 c 128,-1,9
 413 232 413 232 337 232 c 2,10,-1
 164 232 l 1,11,-1
 164 0 l 1,12,-1
 84 0 l 1,0,-1
164 302 m 1,13,-1
 337 302 l 2,14,15
 411 302 411 302 444 345 c 128,-1,16
 477 388 477 388 477 467 c 0,17,18
 477 547 477 547 444 584 c 128,-1,19
 411 621 411 621 337 621 c 2,20,-1
 164 621 l 1,21,-1
 164 302 l 1,13,-1
EndSplineSet
PairPos2: "'kern' Horizontal Kerning in Arabic lookup 0 subtable" uniFEF3 dx=80 dy=0 dh=80 dv=0 dx=0 dy=0 dh=0 dv=0
PairPos2: "'kern' Horizontal Kerning in Arabic lookup 0 subtable" uniFB58 dx=80 dy=0 dh=80 dv=0 dx=0 dy=0 dh=0 dv=0
EndChar

StartChar: Thorn
Encoding: 222 222 43
Width: 599
GlyphClass: 1
Flags: W
LayerCount: 2
Fore
SplineSet
84 0 m 1,0,-1
 84 696 l 1,1,-1
 164 696 l 1,2,-1
 164 584 l 1,3,-1
 337 584 l 2,4,5
 413 584 413 584 462.5 559.5 c 128,-1,6
 512 535 512 535 536 486 c 128,-1,7
 560 437 560 437 560 361 c 256,8,9
 560 285 560 285 536 231 c 128,-1,10
 512 177 512 177 462.5 148 c 128,-1,11
 413 119 413 119 337 119 c 2,12,-1
 164 119 l 1,13,-1
 164 0 l 1,14,-1
 84 0 l 1,0,-1
164 197 m 1,15,-1
 337 197 l 2,16,17
 411 197 411 197 444.5 241 c 128,-1,18
 478 285 478 285 478 361 c 256,19,20
 478 437 478 437 444.5 472.5 c 128,-1,21
 411 508 411 508 337 508 c 2,22,-1
 164 508 l 1,23,-1
 164 197 l 1,15,-1
EndSplineSet
PairPos2: "'kern' Horizontal Kerning in Arabic lookup 0 subtable" uniFEF3 dx=80 dy=0 dh=80 dv=0 dx=0 dy=0 dh=0 dv=0
PairPos2: "'kern' Horizontal Kerning in Arabic lookup 0 subtable" uniFB58 dx=80 dy=0 dh=80 dv=0 dx=0 dy=0 dh=0 dv=0
EndChar

StartChar: Q
Encoding: 81 81 44
Width: 660
GlyphClass: 1
Flags: W
LayerCount: 2
Fore
SplineSet
500 -146 m 1,0,-1
 412 -1 l 1,1,2
 396 -5 396 -5 374.5 -7.5 c 128,-1,3
 353 -10 353 -10 330 -10 c 0,4,5
 222 -10 222 -10 162.5 29.5 c 128,-1,6
 103 69 103 69 79.5 147.5 c 128,-1,7
 56 226 56 226 56 342 c 0,8,9
 56 457 56 457 80 537 c 128,-1,10
 104 617 104 617 163.5 659.5 c 128,-1,11
 223 702 223 702 330 702 c 256,12,13
 437 702 437 702 496.5 660 c 128,-1,14
 556 618 556 618 580 537.5 c 128,-1,15
 604 457 604 457 604 342 c 0,16,17
 604 221 604 221 579.5 143 c 128,-1,18
 555 65 555 65 490 27 c 1,19,-1
 575 -111 l 1,20,-1
 500 -146 l 1,0,-1
330 61 m 256,21,22
 409 61 409 61 450 91 c 128,-1,23
 491 121 491 121 506 183.5 c 128,-1,24
 521 246 521 246 521 342 c 0,25,26
 521 435 521 435 505.5 499.5 c 128,-1,27
 490 564 490 564 449 597.5 c 128,-1,28
 408 631 408 631 330 631 c 256,29,30
 252 631 252 631 211 597.5 c 128,-1,31
 170 564 170 564 154.5 500 c 128,-1,32
 139 436 139 436 139 342 c 256,33,34
 139 248 139 248 154 185.5 c 128,-1,35
 169 123 169 123 210 92 c 128,-1,36
 251 61 251 61 330 61 c 256,21,22
EndSplineSet
PairPos2: "'kern' Horizontal Kerning in Arabic lookup 0 subtable" uniFEF3 dx=80 dy=0 dh=80 dv=0 dx=0 dy=0 dh=0 dv=0
PairPos2: "'kern' Horizontal Kerning in Arabic lookup 0 subtable" uniFB58 dx=80 dy=0 dh=80 dv=0 dx=0 dy=0 dh=0 dv=0
EndChar

StartChar: R
Encoding: 82 82 45
Width: 616
GlyphClass: 1
Flags: W
LayerCount: 2
Fore
SplineSet
84 0 m 1,0,-1
 84 691 l 1,1,-1
 341 691 l 2,2,3
 414 691 414 691 463.5 669 c 128,-1,4
 513 647 513 647 538 600.5 c 128,-1,5
 563 554 563 554 563 481 c 0,6,7
 563 405 563 405 532.5 353 c 128,-1,8
 502 301 502 301 437 280 c 1,9,-1
 569 0 l 1,10,-1
 480 0 l 1,11,-1
 358 263 l 1,12,-1
 164 263 l 1,13,-1
 164 0 l 1,14,-1
 84 0 l 1,0,-1
164 333 m 1,15,-1
 342 333 l 2,16,17
 393 333 393 333 423.5 352 c 128,-1,18
 454 371 454 371 467 404.5 c 128,-1,19
 480 438 480 438 480 480 c 0,20,21
 480 551 480 551 446 586 c 128,-1,22
 412 621 412 621 341 621 c 2,23,-1
 164 621 l 1,24,-1
 164 333 l 1,15,-1
EndSplineSet
PairPos2: "'kern' Horizontal Kerning in Arabic lookup 0 subtable" uniFEF3 dx=80 dy=0 dh=80 dv=0 dx=0 dy=0 dh=0 dv=0
PairPos2: "'kern' Horizontal Kerning in Arabic lookup 0 subtable" uniFB58 dx=80 dy=0 dh=80 dv=0 dx=0 dy=0 dh=0 dv=0
EndChar

StartChar: S
Encoding: 83 83 46
Width: 542
GlyphClass: 1
Flags: W
LayerCount: 2
Fore
SplineSet
273 -9 m 0,0,1
 243 -9 243 -9 203 -5.5 c 128,-1,2
 163 -2 163 -2 123.5 3.5 c 128,-1,3
 84 9 84 9 54 13 c 1,4,-1
 62 79 l 1,5,6
 91 76 91 76 129.5 72 c 128,-1,7
 168 68 168 68 205.5 65 c 128,-1,8
 243 62 243 62 269 62 c 0,9,10
 318 62 318 62 350 76.5 c 128,-1,11
 382 91 382 91 398 121 c 128,-1,12
 414 151 414 151 414 198 c 0,13,14
 414 236 414 236 399.5 258.5 c 128,-1,15
 385 281 385 281 351.5 294.5 c 128,-1,16
 318 308 318 308 262 319 c 0,17,18
 208 330 208 330 168 344 c 128,-1,19
 128 358 128 358 101 379.5 c 128,-1,20
 74 401 74 401 61 434 c 128,-1,21
 48 467 48 467 48 516 c 0,22,23
 48 583 48 583 75.5 624 c 128,-1,24
 103 665 103 665 153.5 684 c 128,-1,25
 204 703 204 703 271 703 c 0,26,27
 301 703 301 703 339.5 699.5 c 128,-1,28
 378 696 378 696 415.5 691.5 c 128,-1,29
 453 687 453 687 480 682 c 1,30,-1
 473 615 l 1,31,32
 444 619 444 619 406 622.5 c 128,-1,33
 368 626 368 626 333 629 c 128,-1,34
 298 632 298 632 277 632 c 0,35,36
 229 632 229 632 196 620 c 128,-1,37
 163 608 163 608 146 583.5 c 128,-1,38
 129 559 129 559 129 521 c 0,39,40
 129 477 129 477 145.5 454 c 128,-1,41
 162 431 162 431 199 418 c 128,-1,42
 236 405 236 405 296 391 c 0,43,44
 348 379 348 379 385.5 365 c 128,-1,45
 423 351 423 351 447.5 330.5 c 128,-1,46
 472 310 472 310 483.5 279.5 c 128,-1,47
 495 249 495 249 495 204 c 0,48,49
 495 128 495 128 468 81 c 128,-1,50
 441 34 441 34 391 12.5 c 128,-1,51
 341 -9 341 -9 273 -9 c 0,0,1
EndSplineSet
PairPos2: "'kern' Horizontal Kerning in Arabic lookup 0 subtable" uniFEF3 dx=80 dy=0 dh=80 dv=0 dx=0 dy=0 dh=0 dv=0
PairPos2: "'kern' Horizontal Kerning in Arabic lookup 0 subtable" uniFB58 dx=80 dy=0 dh=80 dv=0 dx=0 dy=0 dh=0 dv=0
EndChar

StartChar: T
Encoding: 84 84 47
Width: 526
GlyphClass: 1
Flags: W
LayerCount: 2
Fore
SplineSet
224 0 m 1,0,-1
 224 619 l 1,1,-1
 13 619 l 1,2,-1
 13 691 l 1,3,-1
 513 691 l 1,4,-1
 513 619 l 1,5,-1
 304 619 l 1,6,-1
 304 0 l 1,7,-1
 224 0 l 1,0,-1
EndSplineSet
PairPos2: "'kern' Horizontal Kerning in Arabic lookup 0 subtable" uniFEF3 dx=80 dy=0 dh=80 dv=0 dx=0 dy=0 dh=0 dv=0
PairPos2: "'kern' Horizontal Kerning in Arabic lookup 0 subtable" uniFB58 dx=80 dy=0 dh=80 dv=0 dx=0 dy=0 dh=0 dv=0
EndChar

StartChar: U
Encoding: 85 85 48
Width: 645
GlyphClass: 1
Flags: W
LayerCount: 2
Fore
SplineSet
320 -10 m 0,0,1
 244 -10 244 -10 190 12 c 128,-1,2
 136 34 136 34 107.5 82.5 c 128,-1,3
 79 131 79 131 79 211 c 2,4,-1
 79 691 l 1,5,-1
 159 691 l 1,6,-1
 159 209 l 2,7,8
 159 130 159 130 201.5 95.5 c 128,-1,9
 244 61 244 61 320 61 c 0,10,11
 400 61 400 61 443 95.5 c 128,-1,12
 486 130 486 130 486 209 c 2,13,-1
 486 691 l 1,14,-1
 566 691 l 1,15,-1
 566 211 l 2,16,17
 566 132 566 132 537.5 83 c 128,-1,18
 509 34 509 34 454 12 c 128,-1,19
 399 -10 399 -10 320 -10 c 0,0,1
EndSplineSet
PairPos2: "'kern' Horizontal Kerning in Arabic lookup 0 subtable" uniFEF3 dx=80 dy=0 dh=80 dv=0 dx=0 dy=0 dh=0 dv=0
PairPos2: "'kern' Horizontal Kerning in Arabic lookup 0 subtable" uniFB58 dx=80 dy=0 dh=80 dv=0 dx=0 dy=0 dh=0 dv=0
EndChar

StartChar: V
Encoding: 86 86 53
Width: 583
GlyphClass: 1
Flags: W
LayerCount: 2
Fore
SplineSet
204 0 m 1,0,-1
 24 691 l 1,1,-1
 107 691 l 1,2,-1
 264 71 l 1,3,-1
 319 71 l 1,4,-1
 476 691 l 1,5,-1
 559 691 l 1,6,-1
 380 0 l 1,7,-1
 204 0 l 1,0,-1
EndSplineSet
PairPos2: "'kern' Horizontal Kerning in Arabic lookup 0 subtable" uniFEF3 dx=80 dy=0 dh=80 dv=0 dx=0 dy=0 dh=0 dv=0
PairPos2: "'kern' Horizontal Kerning in Arabic lookup 0 subtable" uniFB58 dx=80 dy=0 dh=80 dv=0 dx=0 dy=0 dh=0 dv=0
EndChar

StartChar: W
Encoding: 87 87 54
Width: 888
GlyphClass: 1
Flags: W
LayerCount: 2
Fore
SplineSet
169 0 m 1,0,-1
 30 691 l 1,1,-1
 113 691 l 1,2,-1
 229 70 l 1,3,-1
 257 70 l 1,4,-1
 397 686 l 1,5,-1
 491 686 l 1,6,-1
 631 70 l 1,7,-1
 659 70 l 1,8,-1
 775 691 l 1,9,-1
 858 691 l 1,10,-1
 718 0 l 1,11,-1
 574 0 l 1,12,-1
 437 622 l 1,13,-1
 451 622 l 1,14,-1
 314 0 l 1,15,-1
 169 0 l 1,0,-1
EndSplineSet
PairPos2: "'kern' Horizontal Kerning in Arabic lookup 0 subtable" uniFEF3 dx=80 dy=0 dh=80 dv=0 dx=0 dy=0 dh=0 dv=0
PairPos2: "'kern' Horizontal Kerning in Arabic lookup 0 subtable" uniFB58 dx=80 dy=0 dh=80 dv=0 dx=0 dy=0 dh=0 dv=0
EndChar

StartChar: X
Encoding: 88 88 55
Width: 559
GlyphClass: 1
Flags: W
LayerCount: 2
Fore
SplineSet
18 0 m 1,0,-1
 231 338 l 1,1,-1
 18 691 l 1,2,-1
 109 691 l 1,3,-1
 281 398 l 1,4,-1
 455 691 l 1,5,-1
 541 691 l 1,6,-1
 329 341 l 1,7,-1
 541 0 l 1,8,-1
 450 0 l 1,9,-1
 279 284 l 1,10,-1
 104 0 l 1,11,-1
 18 0 l 1,0,-1
EndSplineSet
PairPos2: "'kern' Horizontal Kerning in Arabic lookup 0 subtable" uniFEF3 dx=80 dy=0 dh=80 dv=0 dx=0 dy=0 dh=0 dv=0
PairPos2: "'kern' Horizontal Kerning in Arabic lookup 0 subtable" uniFB58 dx=80 dy=0 dh=80 dv=0 dx=0 dy=0 dh=0 dv=0
EndChar

StartChar: Y
Encoding: 89 89 56
Width: 539
GlyphClass: 1
Flags: W
LayerCount: 2
Fore
SplineSet
230 0 m 1,0,-1
 230 290 l 1,1,-1
 10 691 l 1,2,-1
 100 691 l 1,3,-1
 269 370 l 1,4,-1
 439 691 l 1,5,-1
 529 691 l 1,6,-1
 310 290 l 1,7,-1
 310 0 l 1,8,-1
 230 0 l 1,0,-1
EndSplineSet
PairPos2: "'kern' Horizontal Kerning in Arabic lookup 0 subtable" uniFEF3 dx=80 dy=0 dh=80 dv=0 dx=0 dy=0 dh=0 dv=0
PairPos2: "'kern' Horizontal Kerning in Arabic lookup 0 subtable" uniFB58 dx=80 dy=0 dh=80 dv=0 dx=0 dy=0 dh=0 dv=0
EndChar

StartChar: Z
Encoding: 90 90 58
Width: 536
GlyphClass: 1
Flags: W
LayerCount: 2
Fore
SplineSet
43 -1 m 1,0,-1
 43 90 l 1,1,-1
 400 599 l 1,2,-1
 400 620 l 1,3,-1
 43 620 l 1,4,-1
 43 691 l 1,5,-1
 493 691 l 1,6,-1
 493 600 l 1,7,-1
 135 91 l 1,8,-1
 135 71 l 1,9,-1
 493 71 l 1,10,-1
 493 -1 l 1,11,-1
 43 -1 l 1,0,-1
EndSplineSet
PairPos2: "'kern' Horizontal Kerning in Arabic lookup 0 subtable" uniFEF3 dx=80 dy=0 dh=80 dv=0 dx=0 dy=0 dh=0 dv=0
PairPos2: "'kern' Horizontal Kerning in Arabic lookup 0 subtable" uniFB58 dx=80 dy=0 dh=80 dv=0 dx=0 dy=0 dh=0 dv=0
EndChar

StartChar: a
Encoding: 97 97 59
Width: 502
GlyphClass: 1
Flags: W
LayerCount: 2
Fore
SplineSet
181 -10 m 0,0,1
 112 -10 112 -10 76 29 c 128,-1,2
 40 68 40 68 40 143 c 0,3,4
 40 192 40 192 57 223 c 128,-1,5
 74 254 74 254 108.5 270.5 c 128,-1,6
 143 287 143 287 194 291 c 2,7,-1
 348 306 l 1,8,-1
 348 349 l 2,9,10
 348 400 348 400 325.5 421 c 128,-1,11
 303 442 303 442 259 442 c 0,12,13
 234 442 234 442 199.5 440 c 128,-1,14
 165 438 165 438 131 435 c 128,-1,15
 97 432 97 432 71 429 c 1,16,-1
 67 488 l 1,17,18
 91 493 91 493 125 498 c 128,-1,19
 159 503 159 503 196 506.5 c 128,-1,20
 233 510 233 510 264 510 c 0,21,22
 321 510 321 510 357 492.5 c 128,-1,23
 393 475 393 475 409.5 439.5 c 128,-1,24
 426 404 426 404 426 349 c 2,25,-1
 426 96 l 2,26,27
 428 74 428 74 443.5 64 c 128,-1,28
 459 54 459 54 483 51 c 1,29,-1
 480 -10 l 1,30,31
 466 -10 466 -10 453 -9 c 128,-1,32
 440 -8 440 -8 428.5 -5.5 c 128,-1,33
 417 -3 417 -3 406 0 c 0,34,35
 393 5 393 5 381.5 12 c 128,-1,36
 370 19 370 19 359 29 c 1,37,38
 340 21 340 21 310.5 12 c 128,-1,39
 281 3 281 3 247.5 -3.5 c 128,-1,40
 214 -10 214 -10 181 -10 c 0,0,1
194 55 m 0,41,42
 221 55 221 55 250 60 c 128,-1,43
 279 65 279 65 305 72 c 128,-1,44
 331 79 331 79 348 85 c 1,45,-1
 348 248 l 1,46,-1
 203 234 l 2,47,48
 158 230 158 230 138.5 208 c 128,-1,49
 119 186 119 186 119 145 c 0,50,51
 119 103 119 103 138 79 c 128,-1,52
 157 55 157 55 194 55 c 0,41,42
EndSplineSet
PairPos2: "'kern' Horizontal Kerning in Arabic lookup 0 subtable" uniFEF3 dx=80 dy=0 dh=80 dv=0 dx=0 dy=0 dh=0 dv=0
PairPos2: "'kern' Horizontal Kerning in Arabic lookup 0 subtable" uniFB58 dx=80 dy=0 dh=80 dv=0 dx=0 dy=0 dh=0 dv=0
EndChar

StartChar: ae
Encoding: 230 230 66
Width: 803
GlyphClass: 1
Flags: W
LayerCount: 2
Fore
SplineSet
176 -10 m 0,0,1
 109 -10 109 -10 74.5 30 c 128,-1,2
 40 70 40 70 40 143 c 0,3,4
 40 199 40 199 59.5 229.5 c 128,-1,5
 79 260 79 260 119 274.5 c 128,-1,6
 159 289 159 289 220 295 c 2,7,-1
 348 306 l 1,8,-1
 348 347 l 2,9,10
 348 393 348 393 326 414 c 128,-1,11
 304 435 304 435 263 435 c 0,12,13
 236 435 236 435 201 433.5 c 128,-1,14
 166 432 166 432 132 430 c 128,-1,15
 98 428 98 428 73 425 c 1,16,-1
 70 495 l 1,17,18
 96 498 96 498 131 501.5 c 128,-1,19
 166 505 166 505 202.5 507.5 c 128,-1,20
 239 510 239 510 267 510 c 0,21,22
 318 510 318 510 351.5 492.5 c 128,-1,23
 385 475 385 475 401 439 c 1,24,25
 428 477 428 477 468 493.5 c 128,-1,26
 508 510 508 510 557 510 c 0,27,28
 657 510 657 510 708 454.5 c 128,-1,29
 759 399 759 399 759 276 c 1,30,-1
 754 217 l 1,31,-1
 426 217 l 1,32,33
 426 140 426 140 454.5 100.5 c 128,-1,34
 483 61 483 61 556 61 c 0,35,36
 584 61 584 61 617.5 62.5 c 128,-1,37
 651 64 651 64 683.5 66 c 128,-1,38
 716 68 716 68 739 70 c 1,39,-1
 741 7 l 1,40,41
 717 3 717 3 683 -1 c 128,-1,42
 649 -5 649 -5 612.5 -7.5 c 128,-1,43
 576 -10 576 -10 546 -10 c 0,44,45
 494 -10 494 -10 458 4 c 128,-1,46
 422 18 422 18 399 43 c 1,47,48
 363 27 363 27 328 15 c 128,-1,49
 293 3 293 3 256 -3.5 c 128,-1,50
 219 -10 219 -10 176 -10 c 0,0,1
189 58 m 0,51,52
 213 58 213 58 240.5 62.5 c 128,-1,53
 268 67 268 67 293 73 c 128,-1,54
 318 79 318 79 337 84.5 c 128,-1,55
 356 90 356 90 364 93 c 1,56,57
 354 119 354 119 350 162 c 128,-1,58
 346 205 346 205 346 243 c 1,59,-1
 203 231 l 2,60,61
 160 228 160 228 139.5 208 c 128,-1,62
 119 188 119 188 119 145 c 256,63,64
 119 102 119 102 137.5 80 c 128,-1,65
 156 58 156 58 189 58 c 0,51,52
426 280 m 1,66,-1
 681 280 l 1,67,68
 681 368 681 368 651.5 404 c 128,-1,69
 622 440 622 440 557 440 c 0,70,71
 493 440 493 440 459.5 403 c 128,-1,72
 426 366 426 366 426 280 c 1,66,-1
EndSplineSet
PairPos2: "'kern' Horizontal Kerning in Arabic lookup 0 subtable" uniFEF3 dx=80 dy=0 dh=80 dv=0 dx=0 dy=0 dh=0 dv=0
PairPos2: "'kern' Horizontal Kerning in Arabic lookup 0 subtable" uniFB58 dx=80 dy=0 dh=80 dv=0 dx=0 dy=0 dh=0 dv=0
EndChar

StartChar: b
Encoding: 98 98 67
Width: 527
GlyphClass: 1
Flags: W
LayerCount: 2
Fore
SplineSet
240 -10 m 0,0,1
 218 -10 218 -10 187.5 -8.5 c 128,-1,2
 157 -7 157 -7 126 -4 c 128,-1,3
 95 -1 95 -1 71 1 c 1,4,-1
 71 717 l 1,5,-1
 149 717 l 1,6,-1
 149 476 l 1,7,8
 165 484 165 484 189 491.5 c 128,-1,9
 213 499 213 499 240.5 504.5 c 128,-1,10
 268 510 268 510 293 510 c 0,11,12
 361 510 361 510 401.5 484.5 c 128,-1,13
 442 459 442 459 459.5 403.5 c 128,-1,14
 477 348 477 348 477 258 c 0,15,16
 477 158 477 158 455.5 99.5 c 128,-1,17
 434 41 434 41 382.5 15.5 c 128,-1,18
 331 -10 331 -10 240 -10 c 0,0,1
239 60 m 0,19,20
 307 60 307 60 340.5 80.5 c 128,-1,21
 374 101 374 101 385.5 145 c 128,-1,22
 397 189 397 189 397 258 c 0,23,24
 397 322 397 322 387 362 c 128,-1,25
 377 402 377 402 352.5 421 c 128,-1,26
 328 440 328 440 285 440 c 0,27,28
 261 440 261 440 235 435.5 c 128,-1,29
 209 431 209 431 186.5 424.5 c 128,-1,30
 164 418 164 418 149 412 c 1,31,-1
 149 65 l 1,32,33
 170 63 170 63 197.5 61.5 c 128,-1,34
 225 60 225 60 239 60 c 0,19,20
EndSplineSet
PairPos2: "'kern' Horizontal Kerning in Arabic lookup 0 subtable" uniFEF3 dx=80 dy=0 dh=80 dv=0 dx=0 dy=0 dh=0 dv=0
PairPos2: "'kern' Horizontal Kerning in Arabic lookup 0 subtable" uniFB58 dx=80 dy=0 dh=80 dv=0 dx=0 dy=0 dh=0 dv=0
EndChar

StartChar: c
Encoding: 99 99 68
Width: 436
GlyphClass: 1
Flags: W
LayerCount: 2
Fore
SplineSet
257 -10 m 0,0,1
 178 -10 178 -10 133 16.5 c 128,-1,2
 88 43 88 43 69.5 102 c 128,-1,3
 51 161 51 161 51 258 c 0,4,5
 51 349 51 349 71.5 404.5 c 128,-1,6
 92 460 92 460 138 485 c 128,-1,7
 184 510 184 510 258 510 c 0,8,9
 275 510 275 510 299.5 507.5 c 128,-1,10
 324 505 324 505 350 501.5 c 128,-1,11
 376 498 376 498 395 495 c 1,12,-1
 392 431 l 1,13,14
 375 433 375 433 353 435 c 128,-1,15
 331 437 331 437 310 438.5 c 128,-1,16
 289 440 289 440 275 440 c 0,17,18
 218 440 218 440 186.5 422 c 128,-1,19
 155 404 155 404 142.5 364.5 c 128,-1,20
 130 325 130 325 130 258 c 0,21,22
 130 185 130 185 141 141.5 c 128,-1,23
 152 98 152 98 183 79 c 128,-1,24
 214 60 214 60 275 60 c 0,25,26
 289 60 289 60 310.5 61.5 c 128,-1,27
 332 63 332 63 354.5 65 c 128,-1,28
 377 67 377 67 394 68 c 1,29,-1
 396 4 l 1,30,31
 376 1 376 1 350 -2 c 128,-1,32
 324 -5 324 -5 299 -7.5 c 128,-1,33
 274 -10 274 -10 257 -10 c 0,0,1
EndSplineSet
PairPos2: "'kern' Horizontal Kerning in Arabic lookup 0 subtable" uniFEF3 dx=80 dy=0 dh=80 dv=0 dx=0 dy=0 dh=0 dv=0
PairPos2: "'kern' Horizontal Kerning in Arabic lookup 0 subtable" uniFB58 dx=80 dy=0 dh=80 dv=0 dx=0 dy=0 dh=0 dv=0
EndChar

StartChar: d
Encoding: 100 100 70
Width: 530
GlyphClass: 1
Flags: W
LayerCount: 2
Fore
SplineSet
230 -10 m 0,0,1
 200 -10 200 -10 173 -3.5 c 128,-1,2
 146 3 146 3 123.5 19 c 128,-1,3
 101 35 101 35 84 63.5 c 128,-1,4
 67 92 67 92 58 137 c 128,-1,5
 49 182 49 182 49 246 c 0,6,7
 49 335 49 335 70 393.5 c 128,-1,8
 91 452 91 452 137 481 c 128,-1,9
 183 510 183 510 259 510 c 0,10,11
 278 510 278 510 301 508 c 128,-1,12
 324 506 324 506 345.5 503 c 128,-1,13
 367 500 367 500 380 497 c 1,14,-1
 380 717 l 1,15,-1
 458 717 l 1,16,-1
 458 0 l 1,17,-1
 381 0 l 1,18,-1
 381 33 l 1,19,20
 365 24 365 24 339.5 14 c 128,-1,21
 314 4 314 4 285.5 -3 c 128,-1,22
 257 -10 257 -10 230 -10 c 0,0,1
240 60 m 0,23,24
 266 60 266 60 292.5 66 c 128,-1,25
 319 72 319 72 342 80.5 c 128,-1,26
 365 89 365 89 380 96 c 1,27,-1
 380 431 l 1,28,29
 368 433 368 433 347 435.5 c 128,-1,30
 326 438 326 438 303.5 440 c 128,-1,31
 281 442 281 442 263 442 c 0,32,33
 212 442 212 442 183 420 c 128,-1,34
 154 398 154 398 141.5 354.5 c 128,-1,35
 129 311 129 311 129 246 c 0,36,37
 129 186 129 186 138 149.5 c 128,-1,38
 147 113 147 113 162.5 93.5 c 128,-1,39
 178 74 178 74 198 67 c 128,-1,40
 218 60 218 60 240 60 c 0,23,24
EndSplineSet
PairPos2: "'kern' Horizontal Kerning in Arabic lookup 0 subtable" uniFEF3 dx=80 dy=0 dh=80 dv=0 dx=0 dy=0 dh=0 dv=0
PairPos2: "'kern' Horizontal Kerning in Arabic lookup 0 subtable" uniFB58 dx=80 dy=0 dh=80 dv=0 dx=0 dy=0 dh=0 dv=0
EndChar

StartChar: eth
Encoding: 240 240 71
Width: 549
GlyphClass: 1
Flags: W
LayerCount: 2
Fore
SplineSet
266 -9 m 0,0,1
 160 -9 160 -9 101 48 c 128,-1,2
 42 105 42 105 42 215 c 0,3,4
 42 280 42 280 66 328.5 c 128,-1,5
 90 377 90 377 137 404 c 128,-1,6
 184 431 184 431 252 431 c 0,7,8
 279 431 279 431 309.5 425 c 128,-1,9
 340 419 340 419 368.5 411 c 128,-1,10
 397 403 397 403 416 395 c 1,11,12
 413 439 413 439 395.5 479.5 c 128,-1,13
 378 520 378 520 341 554.5 c 128,-1,14
 304 589 304 589 244 618 c 128,-1,15
 184 647 184 647 95 669 c 1,16,-1
 110 727 l 1,17,18
 236 703 236 703 322.5 655.5 c 128,-1,19
 409 608 409 608 453.5 533.5 c 128,-1,20
 498 459 498 459 498 352 c 0,21,22
 498 223 498 223 474.5 143.5 c 128,-1,23
 451 64 451 64 400 27.5 c 128,-1,24
 349 -9 349 -9 266 -9 c 0,0,1
266 62 m 0,25,26
 319 62 319 62 351.5 86.5 c 128,-1,27
 384 111 384 111 400 168.5 c 128,-1,28
 416 226 416 226 416 325 c 1,29,30
 398 333 398 333 370.5 341 c 128,-1,31
 343 349 343 349 313.5 354.5 c 128,-1,32
 284 360 284 360 257 360 c 0,33,34
 214 360 214 360 184 340.5 c 128,-1,35
 154 321 154 321 139 288.5 c 128,-1,36
 124 256 124 256 124 215 c 0,37,38
 124 142 124 142 159.5 102 c 128,-1,39
 195 62 195 62 266 62 c 0,25,26
159 518 m 1,40,-1
 124 566 l 1,41,-1
 386 742 l 1,42,-1
 421 693 l 1,43,-1
 159 518 l 1,40,-1
EndSplineSet
PairPos2: "'kern' Horizontal Kerning in Arabic lookup 0 subtable" uniFEF3 dx=80 dy=0 dh=80 dv=0 dx=0 dy=0 dh=0 dv=0
PairPos2: "'kern' Horizontal Kerning in Arabic lookup 0 subtable" uniFB58 dx=80 dy=0 dh=80 dv=0 dx=0 dy=0 dh=0 dv=0
EndChar

StartChar: e
Encoding: 101 101 72
Width: 505
GlyphClass: 1
Flags: W
LayerCount: 2
Fore
SplineSet
249 -10 m 0,0,1
 174 -10 174 -10 130.5 19 c 128,-1,2
 87 48 87 48 68 105 c 128,-1,3
 49 162 49 162 49 247 c 0,4,5
 49 342 49 342 75 399.5 c 128,-1,6
 101 457 101 457 148 483.5 c 128,-1,7
 195 510 195 510 259 510 c 0,8,9
 359 510 359 510 410 454.5 c 128,-1,10
 461 399 461 399 461 276 c 1,11,-1
 457 217 l 1,12,-1
 128 217 l 1,13,14
 129 139 129 139 157 99 c 128,-1,15
 185 59 185 59 258 59 c 0,16,17
 286 59 286 59 319.5 60.5 c 128,-1,18
 353 62 353 62 386 64 c 128,-1,19
 419 66 419 66 442 68 c 1,20,-1
 444 7 l 1,21,22
 420 3 420 3 385.5 -1 c 128,-1,23
 351 -5 351 -5 315 -7.5 c 128,-1,24
 279 -10 279 -10 249 -10 c 0,0,1
128 280 m 1,25,-1
 383 280 l 1,26,27
 383 372 383 372 353.5 408.5 c 128,-1,28
 324 445 324 445 259 445 c 0,29,30
 217 445 217 445 188 428.5 c 128,-1,31
 159 412 159 412 143.5 376 c 128,-1,32
 128 340 128 340 128 280 c 1,25,-1
EndSplineSet
PairPos2: "'kern' Horizontal Kerning in Arabic lookup 0 subtable" uniFEF3 dx=80 dy=0 dh=80 dv=0 dx=0 dy=0 dh=0 dv=0
PairPos2: "'kern' Horizontal Kerning in Arabic lookup 0 subtable" uniFB58 dx=80 dy=0 dh=80 dv=0 dx=0 dy=0 dh=0 dv=0
EndChar

StartChar: f
Encoding: 102 102 77
Width: 332
GlyphClass: 1
Flags: W
LayerCount: 2
Fore
SplineSet
93 0 m 1,0,-1
 93 433 l 1,1,-1
 30 433 l 1,2,-1
 30 500 l 1,3,-1
 93 500 l 1,4,-1
 93 544 l 2,5,6
 93 616 93 616 106 656 c 128,-1,7
 119 696 119 696 149 711.5 c 128,-1,8
 179 727 179 727 228 727 c 0,9,10
 240 727 240 727 261 726 c 128,-1,11
 282 725 282 725 302 723.5 c 128,-1,12
 322 722 322 722 330 720 c 1,13,-1
 329 655 l 1,14,15
 311 656 311 656 285.5 656.5 c 128,-1,16
 260 657 260 657 244 657 c 0,17,18
 216 657 216 657 200 647.5 c 128,-1,19
 184 638 184 638 177.5 613 c 128,-1,20
 171 588 171 588 171 543 c 2,21,-1
 171 500 l 1,22,-1
 315 500 l 1,23,-1
 315 433 l 1,24,-1
 171 433 l 1,25,-1
 171 0 l 1,26,-1
 93 0 l 1,0,-1
EndSplineSet
PairPos2: "'kern' Horizontal Kerning in Arabic lookup 0 subtable" uniFEF3 dx=80 dy=0 dh=80 dv=0 dx=0 dy=0 dh=0 dv=0
PairPos2: "'kern' Horizontal Kerning in Arabic lookup 0 subtable" uniFB58 dx=80 dy=0 dh=80 dv=0 dx=0 dy=0 dh=0 dv=0
EndChar

StartChar: g
Encoding: 103 103 78
Width: 515
GlyphClass: 1
Flags: W
LayerCount: 2
Fore
SplineSet
265 -235 m 0,0,1
 187 -235 187 -235 139.5 -221.5 c 128,-1,2
 92 -208 92 -208 70.5 -175 c 128,-1,3
 49 -142 49 -142 49 -85 c 0,4,5
 49 -56 49 -56 58 -35.5 c 128,-1,6
 67 -15 67 -15 84.5 2.5 c 128,-1,7
 102 20 102 20 128 39 c 1,8,9
 115 49 115 49 107.5 67.5 c 128,-1,10
 100 86 100 86 100 109 c 0,11,12
 100 116 100 116 105.5 130 c 128,-1,13
 111 144 111 144 119 159.5 c 128,-1,14
 127 175 127 175 134 188 c 1,15,16
 113 198 113 198 95.5 215.5 c 128,-1,17
 78 233 78 233 67 263 c 128,-1,18
 56 293 56 293 56 339 c 0,19,20
 56 401 56 401 79.5 438.5 c 128,-1,21
 103 476 103 476 145.5 493 c 128,-1,22
 188 510 188 510 243 510 c 0,23,24
 270 510 270 510 300 506 c 128,-1,25
 330 502 330 502 347 497 c 1,26,-1
 496 501 l 1,27,-1
 496 435 l 1,28,-1
 402 437 l 1,29,30
 416 423 416 423 425.5 400 c 128,-1,31
 435 377 435 377 435 339 c 0,32,33
 435 274 435 274 413 237 c 128,-1,34
 391 200 391 200 348 185 c 128,-1,35
 305 170 305 170 240 170 c 0,36,37
 233 170 233 170 216.5 171.5 c 128,-1,38
 200 173 200 173 192 174 c 1,39,40
 186 160 186 160 180 142 c 128,-1,41
 174 124 174 124 174 117 c 0,42,43
 174 102 174 102 177.5 93.5 c 128,-1,44
 181 85 181 85 192.5 80 c 128,-1,45
 204 75 204 75 228 73.5 c 128,-1,46
 252 72 252 72 294 72 c 0,47,48
 366 72 366 72 409 60 c 128,-1,49
 452 48 452 48 470.5 16.5 c 128,-1,50
 489 -15 489 -15 489 -75 c 0,51,52
 489 -160 489 -160 430 -197.5 c 128,-1,53
 371 -235 371 -235 265 -235 c 0,0,1
266 -169 m 0,54,55
 340 -169 340 -169 375 -148 c 128,-1,56
 410 -127 410 -127 410 -79 c 0,57,58
 410 -42 410 -42 398.5 -24.5 c 128,-1,59
 387 -7 387 -7 360 -1.5 c 128,-1,60
 333 4 333 4 288 4 c 0,61,62
 279 4 279 4 263 4.5 c 128,-1,63
 247 5 247 5 230 5.5 c 128,-1,64
 213 6 213 6 199.5 7 c 128,-1,65
 186 8 186 8 181 8 c 0,66,67
 161 -7 161 -7 148.5 -19.5 c 128,-1,68
 136 -32 136 -32 131 -45.5 c 128,-1,69
 126 -59 126 -59 126 -78 c 0,70,71
 126 -111 126 -111 138 -131 c 128,-1,72
 150 -151 150 -151 180.5 -160 c 128,-1,73
 211 -169 211 -169 266 -169 c 0,54,55
243 232 m 0,74,75
 305 232 305 232 331 256.5 c 128,-1,76
 357 281 357 281 357 339 c 256,77,78
 357 397 357 397 331 422 c 128,-1,79
 305 447 305 447 243 447 c 0,80,81
 185 447 185 447 159.5 422 c 128,-1,82
 134 397 134 397 134 339 c 256,83,84
 134 281 134 281 159.5 256.5 c 128,-1,85
 185 232 185 232 243 232 c 0,74,75
EndSplineSet
PairPos2: "'kern' Horizontal Kerning in Arabic lookup 0 subtable" uniFEF3 dx=80 dy=0 dh=80 dv=0 dx=0 dy=0 dh=0 dv=0
PairPos2: "'kern' Horizontal Kerning in Arabic lookup 0 subtable" uniFB58 dx=80 dy=0 dh=80 dv=0 dx=0 dy=0 dh=0 dv=0
EndChar

StartChar: h
Encoding: 104 104 79
Width: 538
GlyphClass: 1
Flags: W
LayerCount: 2
Fore
SplineSet
72 0 m 1,0,-1
 72 717 l 1,1,-1
 149 717 l 1,2,-1
 149 473 l 1,3,4
 167 481 167 481 192.5 489.5 c 128,-1,5
 218 498 218 498 247 504 c 128,-1,6
 276 510 276 510 302 510 c 0,7,8
 354 510 354 510 387 496.5 c 128,-1,9
 420 483 420 483 438.5 453.5 c 128,-1,10
 457 424 457 424 464 377.5 c 128,-1,11
 471 331 471 331 471 265 c 2,12,-1
 471 0 l 1,13,-1
 393 0 l 1,14,-1
 393 262 l 2,15,16
 393 327 393 327 385.5 366 c 128,-1,17
 378 405 378 405 356 422.5 c 128,-1,18
 334 440 334 440 288 440 c 0,19,20
 263 440 263 440 236.5 435.5 c 128,-1,21
 210 431 210 431 187 424 c 128,-1,22
 164 417 164 417 149 411 c 1,23,-1
 149 0 l 1,24,-1
 72 0 l 1,0,-1
EndSplineSet
PairPos2: "'kern' Horizontal Kerning in Arabic lookup 0 subtable" uniFEF3 dx=80 dy=0 dh=80 dv=0 dx=0 dy=0 dh=0 dv=0
PairPos2: "'kern' Horizontal Kerning in Arabic lookup 0 subtable" uniFB58 dx=80 dy=0 dh=80 dv=0 dx=0 dy=0 dh=0 dv=0
EndChar

StartChar: i
Encoding: 105 105 80
Width: 221
GlyphClass: 1
Flags: W
LayerCount: 2
Fore
SplineSet
72 0 m 1,0,-1
 72 500 l 1,1,-1
 149 500 l 1,2,-1
 149 0 l 1,3,-1
 72 0 l 1,0,-1
72 610 m 1,4,-1
 72 700 l 1,5,-1
 149 700 l 1,6,-1
 149 610 l 1,7,-1
 72 610 l 1,4,-1
EndSplineSet
PairPos2: "'kern' Horizontal Kerning in Arabic lookup 0 subtable" uniFEF3 dx=80 dy=0 dh=80 dv=0 dx=0 dy=0 dh=0 dv=0
PairPos2: "'kern' Horizontal Kerning in Arabic lookup 0 subtable" uniFB58 dx=80 dy=0 dh=80 dv=0 dx=0 dy=0 dh=0 dv=0
EndChar

StartChar: dotlessi
Encoding: 305 305 81
Width: 221
GlyphClass: 1
Flags: W
LayerCount: 2
Fore
SplineSet
72 0 m 1,0,-1
 72 500 l 1,1,-1
 149 500 l 1,2,-1
 149 0 l 1,3,-1
 72 0 l 1,0,-1
EndSplineSet
PairPos2: "'kern' Horizontal Kerning in Arabic lookup 0 subtable" uniFEF3 dx=80 dy=0 dh=80 dv=0 dx=0 dy=0 dh=0 dv=0
PairPos2: "'kern' Horizontal Kerning in Arabic lookup 0 subtable" uniFB58 dx=80 dy=0 dh=80 dv=0 dx=0 dy=0 dh=0 dv=0
EndChar

StartChar: j
Encoding: 106 106 86
Width: 221
GlyphClass: 1
Flags: W
LayerCount: 2
Fore
SplineSet
-17 -223 m 1,0,-1
 -48 -163 l 1,1,2
 -10 -141 -10 -141 13.5 -123.5 c 128,-1,3
 37 -106 37 -106 49.5 -88 c 128,-1,4
 62 -70 62 -70 67 -46 c 128,-1,5
 72 -22 72 -22 72 14 c 2,6,-1
 72 500 l 1,7,-1
 150 500 l 1,8,-1
 150 13 l 2,9,10
 150 -33 150 -33 142.5 -66.5 c 128,-1,11
 135 -100 135 -100 116.5 -126 c 128,-1,12
 98 -152 98 -152 65.5 -174.5 c 128,-1,13
 33 -197 33 -197 -17 -223 c 1,0,-1
72 610 m 1,14,-1
 72 700 l 1,15,-1
 150 700 l 1,16,-1
 150 610 l 1,17,-1
 72 610 l 1,14,-1
EndSplineSet
PairPos2: "'kern' Horizontal Kerning in Arabic lookup 0 subtable" uniFEF3 dx=80 dy=0 dh=80 dv=0 dx=0 dy=0 dh=0 dv=0
PairPos2: "'kern' Horizontal Kerning in Arabic lookup 0 subtable" uniFB58 dx=80 dy=0 dh=80 dv=0 dx=0 dy=0 dh=0 dv=0
EndChar

StartChar: k
Encoding: 107 107 87
Width: 481
GlyphClass: 1
Flags: W
LayerCount: 2
Fore
SplineSet
72 0 m 1,0,-1
 72 717 l 1,1,-1
 149 717 l 1,2,-1
 149 295 l 1,3,-1
 226 298 l 1,4,-1
 366 500 l 1,5,-1
 455 500 l 1,6,-1
 294 269 l 1,7,-1
 463 0 l 1,8,-1
 374 0 l 1,9,-1
 228 230 l 1,10,-1
 149 226 l 1,11,-1
 149 0 l 1,12,-1
 72 0 l 1,0,-1
EndSplineSet
PairPos2: "'kern' Horizontal Kerning in Arabic lookup 0 subtable" uniFEF3 dx=80 dy=0 dh=80 dv=0 dx=0 dy=0 dh=0 dv=0
PairPos2: "'kern' Horizontal Kerning in Arabic lookup 0 subtable" uniFB58 dx=80 dy=0 dh=80 dv=0 dx=0 dy=0 dh=0 dv=0
EndChar

StartChar: l
Encoding: 108 108 88
Width: 233
GlyphClass: 1
Flags: W
LayerCount: 2
Fore
SplineSet
78 0 m 1,0,-1
 78 717 l 1,1,-1
 155 717 l 1,2,-1
 155 0 l 1,3,-1
 78 0 l 1,0,-1
EndSplineSet
PairPos2: "'kern' Horizontal Kerning in Arabic lookup 0 subtable" uniFEF3 dx=80 dy=0 dh=80 dv=0 dx=0 dy=0 dh=0 dv=0
PairPos2: "'kern' Horizontal Kerning in Arabic lookup 0 subtable" uniFB58 dx=80 dy=0 dh=80 dv=0 dx=0 dy=0 dh=0 dv=0
EndChar

StartChar: m
Encoding: 109 109 89
Width: 836
GlyphClass: 1
Flags: W
LayerCount: 2
Fore
SplineSet
72 0 m 1,0,-1
 72 500 l 1,1,-1
 149 500 l 1,2,-1
 149 465 l 1,3,4
 165 475 165 475 189 485 c 128,-1,5
 213 495 213 495 240.5 502.5 c 128,-1,6
 268 510 268 510 293 510 c 0,7,8
 343 510 343 510 373.5 498 c 128,-1,9
 404 486 404 486 423 459 c 1,10,11
 443 470 443 470 472 482 c 128,-1,12
 501 494 501 494 534.5 502 c 128,-1,13
 568 510 568 510 600 510 c 0,14,15
 651 510 651 510 684 497 c 128,-1,16
 717 484 717 484 735.5 455 c 128,-1,17
 754 426 754 426 761.5 379.5 c 128,-1,18
 769 333 769 333 769 265 c 2,19,-1
 769 0 l 1,20,-1
 692 0 l 1,21,-1
 692 262 l 2,22,23
 692 327 692 327 684.5 366 c 128,-1,24
 677 405 677 405 655 422.5 c 128,-1,25
 633 440 633 440 588 440 c 0,26,27
 562 440 562 440 535.5 434.5 c 128,-1,28
 509 429 509 429 486.5 420.5 c 128,-1,29
 464 412 464 412 450 404 c 1,30,31
 457 378 457 378 459.5 339.5 c 128,-1,32
 462 301 462 301 462 260 c 2,33,-1
 462 0 l 1,34,-1
 385 0 l 1,35,-1
 385 258 l 2,36,37
 385 326 385 326 378 365.5 c 128,-1,38
 371 405 371 405 348.5 422.5 c 128,-1,39
 326 440 326 440 281 440 c 0,40,41
 256 440 256 440 230.5 434.5 c 128,-1,42
 205 429 205 429 184 420.5 c 128,-1,43
 163 412 163 412 149 404 c 1,44,-1
 149 0 l 1,45,-1
 72 0 l 1,0,-1
EndSplineSet
PairPos2: "'kern' Horizontal Kerning in Arabic lookup 0 subtable" uniFEF3 dx=80 dy=0 dh=80 dv=0 dx=0 dy=0 dh=0 dv=0
PairPos2: "'kern' Horizontal Kerning in Arabic lookup 0 subtable" uniFB58 dx=80 dy=0 dh=80 dv=0 dx=0 dy=0 dh=0 dv=0
EndChar

StartChar: n
Encoding: 110 110 90
Width: 538
GlyphClass: 1
Flags: W
LayerCount: 2
Fore
SplineSet
72 0 m 1,0,-1
 72 500 l 1,1,-1
 149 500 l 1,2,-1
 149 465 l 1,3,4
 166 475 166 475 191.5 485 c 128,-1,5
 217 495 217 495 246 502.5 c 128,-1,6
 275 510 275 510 302 510 c 0,7,8
 354 510 354 510 387 496.5 c 128,-1,9
 420 483 420 483 438.5 453.5 c 128,-1,10
 457 424 457 424 464.5 377.5 c 128,-1,11
 472 331 472 331 472 265 c 2,12,-1
 472 0 l 1,13,-1
 394 0 l 1,14,-1
 394 262 l 2,15,16
 394 327 394 327 386.5 366 c 128,-1,17
 379 405 379 405 356.5 422.5 c 128,-1,18
 334 440 334 440 288 440 c 0,19,20
 263 440 263 440 236.5 434.5 c 128,-1,21
 210 429 210 429 187 420.5 c 128,-1,22
 164 412 164 412 149 404 c 1,23,-1
 149 0 l 1,24,-1
 72 0 l 1,0,-1
EndSplineSet
PairPos2: "'kern' Horizontal Kerning in Arabic lookup 0 subtable" uniFEF3 dx=80 dy=0 dh=80 dv=0 dx=0 dy=0 dh=0 dv=0
PairPos2: "'kern' Horizontal Kerning in Arabic lookup 0 subtable" uniFB58 dx=80 dy=0 dh=80 dv=0 dx=0 dy=0 dh=0 dv=0
EndChar

StartChar: o
Encoding: 111 111 92
Width: 529
GlyphClass: 1
Flags: W
LayerCount: 2
Fore
SplineSet
264 -10 m 0,0,1
 180 -10 180 -10 133.5 19 c 128,-1,2
 87 48 87 48 68.5 107 c 128,-1,3
 50 166 50 166 50 256 c 0,4,5
 50 342 50 342 70.5 398 c 128,-1,6
 91 454 91 454 138 482 c 128,-1,7
 185 510 185 510 264 510 c 0,8,9
 344 510 344 510 391 482 c 128,-1,10
 438 454 438 454 458.5 398 c 128,-1,11
 479 342 479 342 479 256 c 0,12,13
 479 166 479 166 460.5 107 c 128,-1,14
 442 48 442 48 395.5 19 c 128,-1,15
 349 -10 349 -10 264 -10 c 0,0,1
264 57 m 256,16,17
 322 57 322 57 351 77.5 c 128,-1,18
 380 98 380 98 389.5 142 c 128,-1,19
 399 186 399 186 399 256 c 0,20,21
 399 325 399 325 387 366 c 128,-1,22
 375 407 375 407 346 425 c 128,-1,23
 317 443 317 443 264 443 c 0,24,25
 212 443 212 443 182.5 425 c 128,-1,26
 153 407 153 407 141 366 c 128,-1,27
 129 325 129 325 129 256 c 0,28,29
 129 186 129 186 138.5 142 c 128,-1,30
 148 98 148 98 177 77.5 c 128,-1,31
 206 57 206 57 264 57 c 256,16,17
EndSplineSet
PairPos2: "'kern' Horizontal Kerning in Arabic lookup 0 subtable" uniFEF3 dx=80 dy=0 dh=80 dv=0 dx=0 dy=0 dh=0 dv=0
PairPos2: "'kern' Horizontal Kerning in Arabic lookup 0 subtable" uniFB58 dx=80 dy=0 dh=80 dv=0 dx=0 dy=0 dh=0 dv=0
EndChar

StartChar: oslash
Encoding: 248 248 97
Width: 529
GlyphClass: 1
Flags: W
LayerCount: 2
Fore
SplineSet
146 -111 m 1,0,-1
 94 -92 l 1,1,-1
 380 606 l 1,2,-1
 432 587 l 1,3,-1
 146 -111 l 1,0,-1
146 -111 m 1,4,-1
 94 -92 l 1,5,-1
 380 606 l 1,6,-1
 432 587 l 1,7,-1
 146 -111 l 1,4,-1
264 -10 m 0,8,9
 180 -10 180 -10 133.5 19 c 128,-1,10
 87 48 87 48 68.5 107 c 128,-1,11
 50 166 50 166 50 256 c 0,12,13
 50 342 50 342 70.5 398 c 128,-1,14
 91 454 91 454 138 482 c 128,-1,15
 185 510 185 510 264 510 c 0,16,17
 344 510 344 510 391 482 c 128,-1,18
 438 454 438 454 458.5 398 c 128,-1,19
 479 342 479 342 479 256 c 0,20,21
 479 166 479 166 460.5 107 c 128,-1,22
 442 48 442 48 395.5 19 c 128,-1,23
 349 -10 349 -10 264 -10 c 0,8,9
264 57 m 256,24,25
 322 57 322 57 351 77.5 c 128,-1,26
 380 98 380 98 389.5 142 c 128,-1,27
 399 186 399 186 399 256 c 0,28,29
 399 325 399 325 387 366 c 128,-1,30
 375 407 375 407 346 425 c 128,-1,31
 317 443 317 443 264 443 c 0,32,33
 212 443 212 443 182.5 425 c 128,-1,34
 153 407 153 407 141 366 c 128,-1,35
 129 325 129 325 129 256 c 0,36,37
 129 186 129 186 138.5 142 c 128,-1,38
 148 98 148 98 177 77.5 c 128,-1,39
 206 57 206 57 264 57 c 256,24,25
EndSplineSet
Substitution2: "'rvrn' Required Variation Alternates lookup 14 subtable" oslash.BRACKET.varAlt01
PairPos2: "'kern' Horizontal Kerning in Arabic lookup 0 subtable" uniFEF3 dx=80 dy=0 dh=80 dv=0 dx=0 dy=0 dh=0 dv=0
PairPos2: "'kern' Horizontal Kerning in Arabic lookup 0 subtable" uniFB58 dx=80 dy=0 dh=80 dv=0 dx=0 dy=0 dh=0 dv=0
EndChar

StartChar: oe
Encoding: 339 339 99
Width: 856
GlyphClass: 1
Flags: W
LayerCount: 2
Fore
SplineSet
265 -10 m 0,0,1
 181 -10 181 -10 134 19 c 128,-1,2
 87 48 87 48 68.5 107 c 128,-1,3
 50 166 50 166 50 256 c 0,4,5
 50 342 50 342 70.5 398.5 c 128,-1,6
 91 455 91 455 138.5 482.5 c 128,-1,7
 186 510 186 510 265 510 c 0,8,9
 330 510 330 510 373.5 486.5 c 128,-1,10
 417 463 417 463 440 407 c 1,11,12
 466 465 466 465 510 487.5 c 128,-1,13
 554 510 554 510 609 510 c 0,14,15
 710 510 710 510 761 454.5 c 128,-1,16
 812 399 812 399 812 276 c 1,17,-1
 807 217 l 1,18,-1
 479 217 l 1,19,20
 479 140 479 140 507.5 100.5 c 128,-1,21
 536 61 536 61 609 61 c 0,22,23
 636 61 636 61 670 62.5 c 128,-1,24
 704 64 704 64 736.5 66 c 128,-1,25
 769 68 769 68 792 70 c 1,26,-1
 794 7 l 1,27,28
 770 3 770 3 735.5 -1 c 128,-1,29
 701 -5 701 -5 665 -7.5 c 128,-1,30
 629 -10 629 -10 599 -10 c 0,31,32
 537 -10 537 -10 498 12 c 128,-1,33
 459 34 459 34 437 80 c 1,34,35
 415 32 415 32 374 11 c 128,-1,36
 333 -10 333 -10 265 -10 c 0,0,1
265 60 m 0,37,38
 323 60 323 60 351.5 81.5 c 128,-1,39
 380 103 380 103 389.5 146.5 c 128,-1,40
 399 190 399 190 399 255 c 0,41,42
 399 353 399 353 367.5 396 c 128,-1,43
 336 439 336 439 265 439 c 0,44,45
 213 439 213 439 183.5 421.5 c 128,-1,46
 154 404 154 404 141.5 364 c 128,-1,47
 129 324 129 324 129 256 c 256,48,49
 129 188 129 188 139 144.5 c 128,-1,50
 149 101 149 101 178.5 80.5 c 128,-1,51
 208 60 208 60 265 60 c 0,37,38
478 280 m 1,52,-1
 734 280 l 1,53,54
 734 368 734 368 704 404 c 128,-1,55
 674 440 674 440 609 440 c 0,56,57
 546 440 546 440 512 403 c 128,-1,58
 478 366 478 366 478 280 c 1,52,-1
EndSplineSet
PairPos2: "'kern' Horizontal Kerning in Arabic lookup 0 subtable" uniFEF3 dx=80 dy=0 dh=80 dv=0 dx=0 dy=0 dh=0 dv=0
PairPos2: "'kern' Horizontal Kerning in Arabic lookup 0 subtable" uniFB58 dx=80 dy=0 dh=80 dv=0 dx=0 dy=0 dh=0 dv=0
EndChar

StartChar: p
Encoding: 112 112 100
Width: 528
GlyphClass: 1
Flags: W
LayerCount: 2
Fore
SplineSet
72 -221 m 1,0,-1
 72 500 l 1,1,-1
 149 500 l 1,2,-1
 149 464 l 1,3,4
 165 474 165 474 189.5 484.5 c 128,-1,5
 214 495 214 495 242 502.5 c 128,-1,6
 270 510 270 510 296 510 c 0,7,8
 360 510 360 510 400 483.5 c 128,-1,9
 440 457 440 457 459.5 401 c 128,-1,10
 479 345 479 345 479 256 c 0,11,12
 479 158 479 158 456.5 99.5 c 128,-1,13
 434 41 434 41 385.5 15.5 c 128,-1,14
 337 -10 337 -10 260 -10 c 0,15,16
 229 -10 229 -10 197.5 -6 c 128,-1,17
 166 -2 166 -2 149 1 c 1,18,-1
 149 -221 l 1,19,-1
 72 -221 l 1,0,-1
256 58 m 0,20,21
 310 58 310 58 341.5 78 c 128,-1,22
 373 98 373 98 386 141.5 c 128,-1,23
 399 185 399 185 399 256 c 0,24,25
 399 357 399 357 369 398.5 c 128,-1,26
 339 440 339 440 285 440 c 0,27,28
 261 440 261 440 235.5 434 c 128,-1,29
 210 428 210 428 187 419.5 c 128,-1,30
 164 411 164 411 149 402 c 1,31,-1
 149 68 l 1,32,33
 165 66 165 66 196 62 c 128,-1,34
 227 58 227 58 256 58 c 0,20,21
EndSplineSet
PairPos2: "'kern' Horizontal Kerning in Arabic lookup 0 subtable" uniFEF3 dx=80 dy=0 dh=80 dv=0 dx=0 dy=0 dh=0 dv=0
PairPos2: "'kern' Horizontal Kerning in Arabic lookup 0 subtable" uniFB58 dx=80 dy=0 dh=80 dv=0 dx=0 dy=0 dh=0 dv=0
EndChar

StartChar: thorn
Encoding: 254 254 101
Width: 528
GlyphClass: 1
Flags: W
LayerCount: 2
Fore
SplineSet
72 -221 m 1,0,-1
 72 717 l 1,1,-1
 149 717 l 1,2,-1
 149 476 l 1,3,4
 166 484 166 484 190 491.5 c 128,-1,5
 214 499 214 499 241.5 504.5 c 128,-1,6
 269 510 269 510 294 510 c 0,7,8
 362 510 362 510 402.5 485 c 128,-1,9
 443 460 443 460 460.5 404.5 c 128,-1,10
 478 349 478 349 478 258 c 0,11,12
 478 159 478 159 457 100.5 c 128,-1,13
 436 42 436 42 386 16 c 128,-1,14
 336 -10 336 -10 250 -10 c 0,15,16
 228 -10 228 -10 198.5 -7.5 c 128,-1,17
 169 -5 169 -5 149 -3 c 1,18,-1
 149 -221 l 1,19,-1
 72 -221 l 1,0,-1
245 58 m 0,20,21
 310 58 310 58 343 79.5 c 128,-1,22
 376 101 376 101 387 145 c 128,-1,23
 398 189 398 189 398 257 c 0,24,25
 398 322 398 322 388 362 c 128,-1,26
 378 402 378 402 353.5 421 c 128,-1,27
 329 440 329 440 286 440 c 0,28,29
 262 440 262 440 236 435.5 c 128,-1,30
 210 431 210 431 187 424.5 c 128,-1,31
 164 418 164 418 149 412 c 1,32,-1
 149 64 l 1,33,34
 170 62 170 62 199 60 c 128,-1,35
 228 58 228 58 245 58 c 0,20,21
EndSplineSet
PairPos2: "'kern' Horizontal Kerning in Arabic lookup 0 subtable" uniFEF3 dx=80 dy=0 dh=80 dv=0 dx=0 dy=0 dh=0 dv=0
PairPos2: "'kern' Horizontal Kerning in Arabic lookup 0 subtable" uniFB58 dx=80 dy=0 dh=80 dv=0 dx=0 dy=0 dh=0 dv=0
EndChar

StartChar: q
Encoding: 113 113 102
Width: 527
GlyphClass: 1
Flags: W
LayerCount: 2
Fore
SplineSet
377 -221 m 1,0,-1
 377 23 l 1,1,2
 355 13 355 13 315.5 1.5 c 128,-1,3
 276 -10 276 -10 238 -10 c 0,4,5
 170 -10 170 -10 128.5 16 c 128,-1,6
 87 42 87 42 68 98 c 128,-1,7
 49 154 49 154 49 242 c 0,8,9
 49 341 49 341 71.5 400 c 128,-1,10
 94 459 94 459 146 484.5 c 128,-1,11
 198 510 198 510 286 510 c 0,12,13
 305 510 305 510 335 508.5 c 128,-1,14
 365 507 365 507 397.5 504.5 c 128,-1,15
 430 502 430 502 455 500 c 1,16,-1
 455 -221 l 1,17,-1
 377 -221 l 1,0,-1
246 60 m 0,18,19
 284 60 284 60 320.5 69.5 c 128,-1,20
 357 79 357 79 377 88 c 1,21,-1
 377 437 l 1,22,23
 358 439 358 439 331 440.5 c 128,-1,24
 304 442 304 442 287 442 c 0,25,26
 223 442 223 442 188.5 420.5 c 128,-1,27
 154 399 154 399 141 355 c 128,-1,28
 128 311 128 311 128 242 c 0,29,30
 128 150 128 150 155 105 c 128,-1,31
 182 60 182 60 246 60 c 0,18,19
EndSplineSet
PairPos2: "'kern' Horizontal Kerning in Arabic lookup 0 subtable" uniFEF3 dx=80 dy=0 dh=80 dv=0 dx=0 dy=0 dh=0 dv=0
PairPos2: "'kern' Horizontal Kerning in Arabic lookup 0 subtable" uniFB58 dx=80 dy=0 dh=80 dv=0 dx=0 dy=0 dh=0 dv=0
EndChar

StartChar: r
Encoding: 114 114 103
Width: 347
GlyphClass: 1
Flags: W
LayerCount: 2
Fore
SplineSet
72 0 m 1,0,-1
 72 500 l 1,1,-1
 149 500 l 1,2,-1
 149 433 l 1,3,4
 168 446 168 446 197 461.5 c 128,-1,5
 226 477 226 477 261 491 c 128,-1,6
 296 505 296 505 331 511 c 1,7,-1
 331 432 l 1,8,9
 297 425 297 425 262 413.5 c 128,-1,10
 227 402 227 402 197.5 389 c 128,-1,11
 168 376 168 376 149 366 c 1,12,-1
 149 0 l 1,13,-1
 72 0 l 1,0,-1
EndSplineSet
PairPos2: "'kern' Horizontal Kerning in Arabic lookup 0 subtable" uniFEF3 dx=80 dy=0 dh=80 dv=0 dx=0 dy=0 dh=0 dv=0
PairPos2: "'kern' Horizontal Kerning in Arabic lookup 0 subtable" uniFB58 dx=80 dy=0 dh=80 dv=0 dx=0 dy=0 dh=0 dv=0
EndChar

StartChar: s
Encoding: 115 115 104
Width: 466
GlyphClass: 1
Flags: W
LayerCount: 2
Fore
SplineSet
228 -10 m 0,0,1
 205 -10 205 -10 172.5 -7 c 128,-1,2
 140 -4 140 -4 108 0.5 c 128,-1,3
 76 5 76 5 51 9 c 1,4,-1
 55 76 l 1,5,6
 80 73 80 73 111.5 69 c 128,-1,7
 143 65 143 65 173 62.5 c 128,-1,8
 203 60 203 60 221 60 c 0,9,10
 262 60 262 60 289 67.5 c 128,-1,11
 316 75 316 75 330 93 c 128,-1,12
 344 111 344 111 344 144 c 0,13,14
 344 169 344 169 333.5 183 c 128,-1,15
 323 197 323 197 294.5 206 c 128,-1,16
 266 215 266 215 212 223 c 0,17,18
 156 232 156 232 118.5 245.5 c 128,-1,19
 81 259 81 259 63 286 c 128,-1,20
 45 313 45 313 45 363 c 0,21,22
 45 419 45 419 71 451 c 128,-1,23
 97 483 97 483 138.5 496.5 c 128,-1,24
 180 510 180 510 225 510 c 0,25,26
 253 510 253 510 286.5 507 c 128,-1,27
 320 504 320 504 352 499.5 c 128,-1,28
 384 495 384 495 407 491 c 1,29,-1
 405 424 l 1,30,31
 381 428 381 428 349 431.5 c 128,-1,32
 317 435 317 435 285 437.5 c 128,-1,33
 253 440 253 440 229 440 c 0,34,35
 199 440 199 440 175 433.5 c 128,-1,36
 151 427 151 427 137 411 c 128,-1,37
 123 395 123 395 123 366 c 0,38,39
 123 344 123 344 133 330.5 c 128,-1,40
 143 317 143 317 171 308 c 128,-1,41
 199 299 199 299 252 290 c 0,42,43
 314 280 314 280 351.5 265 c 128,-1,44
 389 250 389 250 406 223 c 128,-1,45
 423 196 423 196 423 147 c 0,46,47
 423 89 423 89 399.5 54.5 c 128,-1,48
 376 20 376 20 332.5 5 c 128,-1,49
 289 -10 289 -10 228 -10 c 0,0,1
EndSplineSet
PairPos2: "'kern' Horizontal Kerning in Arabic lookup 0 subtable" uniFEF3 dx=80 dy=0 dh=80 dv=0 dx=0 dy=0 dh=0 dv=0
PairPos2: "'kern' Horizontal Kerning in Arabic lookup 0 subtable" uniFB58 dx=80 dy=0 dh=80 dv=0 dx=0 dy=0 dh=0 dv=0
EndChar

StartChar: germandbls
Encoding: 223 223 105
Width: 576
GlyphClass: 1
Flags: W
LayerCount: 2
Fore
SplineSet
341 -10 m 0,0,1
 322 -10 322 -10 297.5 -7.5 c 128,-1,2
 273 -5 273 -5 249.5 -1.5 c 128,-1,3
 226 2 226 2 209 5 c 1,4,-1
 212 70 l 1,5,6
 230 68 230 68 253.5 65.5 c 128,-1,7
 277 63 277 63 299 61.5 c 128,-1,8
 321 60 321 60 334 60 c 0,9,10
 408 60 408 60 434 87 c 128,-1,11
 460 114 460 114 460 165 c 0,12,13
 460 192 460 192 451.5 210 c 128,-1,14
 443 228 443 228 419.5 243.5 c 128,-1,15
 396 259 396 259 352 280 c 0,16,17
 310 300 310 300 286.5 316.5 c 128,-1,18
 263 333 263 333 253 352.5 c 128,-1,19
 243 372 243 372 243 399 c 0,20,21
 243 424 243 424 251.5 441.5 c 128,-1,22
 260 459 260 459 277.5 471.5 c 128,-1,23
 295 484 295 484 320 495 c 0,24,25
 346 506 346 506 360 517.5 c 128,-1,26
 374 529 374 529 379 543.5 c 128,-1,27
 384 558 384 558 384 578 c 0,28,29
 384 622 384 622 359 639.5 c 128,-1,30
 334 657 334 657 269 657 c 0,31,32
 226 657 226 657 199.5 646.5 c 128,-1,33
 173 636 173 636 161 610 c 128,-1,34
 149 584 149 584 149 535 c 2,35,-1
 149 0 l 1,36,-1
 72 0 l 1,37,-1
 72 544 l 2,38,39
 72 595 72 595 83.5 630.5 c 128,-1,40
 95 666 95 666 118.5 687 c 128,-1,41
 142 708 142 708 179.5 717.5 c 128,-1,42
 217 727 217 727 269 727 c 0,43,44
 338 727 338 727 381.5 712 c 128,-1,45
 425 697 425 697 445 665.5 c 128,-1,46
 465 634 465 634 465 582 c 0,47,48
 465 546 465 546 456 522 c 128,-1,49
 447 498 447 498 429 482.5 c 128,-1,50
 411 467 411 467 383 454 c 0,51,52
 359 443 359 443 346 435.5 c 128,-1,53
 333 428 333 428 328 421 c 128,-1,54
 323 414 323 414 323 404 c 256,55,56
 323 394 323 394 330 385.5 c 128,-1,57
 337 377 337 377 356.5 365.5 c 128,-1,58
 376 354 376 354 412 336 c 0,59,60
 459 313 459 313 487.5 292 c 128,-1,61
 516 271 516 271 528.5 244.5 c 128,-1,62
 541 218 541 218 541 177 c 0,63,64
 541 109 541 109 521 68 c 128,-1,65
 501 27 501 27 457.5 8.5 c 128,-1,66
 414 -10 414 -10 341 -10 c 0,0,1
EndSplineSet
PairPos2: "'kern' Horizontal Kerning in Arabic lookup 0 subtable" uniFEF3 dx=80 dy=0 dh=80 dv=0 dx=0 dy=0 dh=0 dv=0
PairPos2: "'kern' Horizontal Kerning in Arabic lookup 0 subtable" uniFB58 dx=80 dy=0 dh=80 dv=0 dx=0 dy=0 dh=0 dv=0
EndChar

StartChar: t
Encoding: 116 116 106
Width: 351
GlyphClass: 1
Flags: W
LayerCount: 2
Fore
SplineSet
236 -11 m 0,0,1
 184 -11 184 -11 153.5 5 c 128,-1,2
 123 21 123 21 110 60.5 c 128,-1,3
 97 100 97 100 97 172 c 2,4,-1
 97 433 l 1,5,-1
 26 433 l 1,6,-1
 26 500 l 1,7,-1
 97 500 l 1,8,-1
 97 653 l 1,9,-1
 174 653 l 1,10,-1
 174 500 l 1,11,-1
 331 500 l 1,12,-1
 331 433 l 1,13,-1
 174 433 l 1,14,-1
 174 195 l 2,15,16
 174 142 174 142 178.5 112.5 c 128,-1,17
 183 83 183 83 198 71 c 128,-1,18
 213 59 213 59 245 59 c 0,19,20
 255 59 255 59 271 60 c 128,-1,21
 287 61 287 61 303.5 62.5 c 128,-1,22
 320 64 320 64 333 65 c 1,23,-1
 338 0 l 1,24,25
 324 -2 324 -2 305 -4.5 c 128,-1,26
 286 -7 286 -7 267.5 -9 c 128,-1,27
 249 -11 249 -11 236 -11 c 0,0,1
EndSplineSet
PairPos2: "'kern' Horizontal Kerning in Arabic lookup 0 subtable" uniFEF3 dx=80 dy=0 dh=80 dv=0 dx=0 dy=0 dh=0 dv=0
PairPos2: "'kern' Horizontal Kerning in Arabic lookup 0 subtable" uniFB58 dx=80 dy=0 dh=80 dv=0 dx=0 dy=0 dh=0 dv=0
EndChar

StartChar: u
Encoding: 117 117 107
Width: 532
GlyphClass: 1
Flags: W
LayerCount: 2
Fore
SplineSet
224 -10 m 0,0,1
 160 -10 160 -10 126 16 c 128,-1,2
 92 42 92 42 79.5 97 c 128,-1,3
 67 152 67 152 67 239 c 2,4,-1
 67 500 l 1,5,-1
 144 500 l 1,6,-1
 144 239 l 2,7,8
 144 173 144 173 150.5 134 c 128,-1,9
 157 95 157 95 179 77.5 c 128,-1,10
 201 60 201 60 245 60 c 256,11,12
 289 60 289 60 325 72 c 128,-1,13
 361 84 361 84 383 96 c 1,14,-1
 383 500 l 1,15,-1
 460 500 l 1,16,-1
 460 0 l 1,17,-1
 383 0 l 1,18,-1
 383 35 l 1,19,20
 351 17 351 17 313.5 3.5 c 128,-1,21
 276 -10 276 -10 224 -10 c 0,0,1
EndSplineSet
PairPos2: "'kern' Horizontal Kerning in Arabic lookup 0 subtable" uniFEF3 dx=80 dy=0 dh=80 dv=0 dx=0 dy=0 dh=0 dv=0
PairPos2: "'kern' Horizontal Kerning in Arabic lookup 0 subtable" uniFB58 dx=80 dy=0 dh=80 dv=0 dx=0 dy=0 dh=0 dv=0
EndChar

StartChar: v
Encoding: 118 118 112
Width: 482
GlyphClass: 1
Flags: W
LayerCount: 2
Fore
SplineSet
164 0 m 1,0,-1
 24 500 l 1,1,-1
 108 500 l 1,2,-1
 222 67 l 1,3,-1
 260 67 l 1,4,-1
 378 500 l 1,5,-1
 458 500 l 1,6,-1
 318 0 l 1,7,-1
 164 0 l 1,0,-1
EndSplineSet
PairPos2: "'kern' Horizontal Kerning in Arabic lookup 0 subtable" uniFEF3 dx=80 dy=0 dh=80 dv=0 dx=0 dy=0 dh=0 dv=0
PairPos2: "'kern' Horizontal Kerning in Arabic lookup 0 subtable" uniFB58 dx=80 dy=0 dh=80 dv=0 dx=0 dy=0 dh=0 dv=0
EndChar

StartChar: w
Encoding: 119 119 113
Width: 763
GlyphClass: 1
Flags: W
LayerCount: 2
Fore
SplineSet
149 0 m 1,0,-1
 31 500 l 1,1,-1
 109 500 l 1,2,-1
 207 67 l 1,3,-1
 224 67 l 1,4,-1
 341 490 l 1,5,-1
 422 490 l 1,6,-1
 539 67 l 1,7,-1
 556 67 l 1,8,-1
 654 500 l 1,9,-1
 732 500 l 1,10,-1
 614 0 l 1,11,-1
 485 0 l 1,12,-1
 381 387 l 1,13,-1
 278 0 l 1,14,-1
 149 0 l 1,0,-1
EndSplineSet
PairPos2: "'kern' Horizontal Kerning in Arabic lookup 0 subtable" uniFEF3 dx=80 dy=0 dh=80 dv=0 dx=0 dy=0 dh=0 dv=0
PairPos2: "'kern' Horizontal Kerning in Arabic lookup 0 subtable" uniFB58 dx=80 dy=0 dh=80 dv=0 dx=0 dy=0 dh=0 dv=0
EndChar

StartChar: x
Encoding: 120 120 114
Width: 453
GlyphClass: 1
Flags: W
LayerCount: 2
Fore
SplineSet
22 0 m 1,0,-1
 177 250 l 1,1,-1
 22 500 l 1,2,-1
 107 500 l 1,3,-1
 226 306 l 1,4,-1
 346 500 l 1,5,-1
 431 500 l 1,6,-1
 274 252 l 1,7,-1
 431 0 l 1,8,-1
 346 0 l 1,9,-1
 226 193 l 1,10,-1
 107 0 l 1,11,-1
 22 0 l 1,0,-1
EndSplineSet
PairPos2: "'kern' Horizontal Kerning in Arabic lookup 0 subtable" uniFEF3 dx=80 dy=0 dh=80 dv=0 dx=0 dy=0 dh=0 dv=0
PairPos2: "'kern' Horizontal Kerning in Arabic lookup 0 subtable" uniFB58 dx=80 dy=0 dh=80 dv=0 dx=0 dy=0 dh=0 dv=0
EndChar

StartChar: y
Encoding: 121 121 115
Width: 484
GlyphClass: 1
Flags: W
LayerCount: 2
Fore
SplineSet
176 -221 m 1,0,-1
 241 0 l 1,1,-1
 166 0 l 1,2,-1
 25 500 l 1,3,-1
 103 500 l 1,4,-1
 225 67 l 1,5,-1
 259 67 l 1,6,-1
 382 500 l 1,7,-1
 460 500 l 1,8,-1
 254 -221 l 1,9,-1
 176 -221 l 1,0,-1
EndSplineSet
PairPos2: "'kern' Horizontal Kerning in Arabic lookup 0 subtable" uniFEF3 dx=80 dy=0 dh=80 dv=0 dx=0 dy=0 dh=0 dv=0
PairPos2: "'kern' Horizontal Kerning in Arabic lookup 0 subtable" uniFB58 dx=80 dy=0 dh=80 dv=0 dx=0 dy=0 dh=0 dv=0
EndChar

StartChar: z
Encoding: 122 122 118
Width: 455
GlyphClass: 1
Flags: W
LayerCount: 2
Fore
SplineSet
42 0 m 1,0,-1
 42 70 l 1,1,-1
 318 430 l 1,2,-1
 42 430 l 1,3,-1
 42 500 l 1,4,-1
 413 500 l 1,5,-1
 413 430 l 1,6,-1
 137 70 l 1,7,-1
 413 70 l 1,8,-1
 413 0 l 1,9,-1
 42 0 l 1,0,-1
EndSplineSet
PairPos2: "'kern' Horizontal Kerning in Arabic lookup 0 subtable" uniFEF3 dx=80 dy=0 dh=80 dv=0 dx=0 dy=0 dh=0 dv=0
PairPos2: "'kern' Horizontal Kerning in Arabic lookup 0 subtable" uniFB58 dx=80 dy=0 dh=80 dv=0 dx=0 dy=0 dh=0 dv=0
EndChar

StartChar: ordfeminine
Encoding: 170 170 119
Width: 388
GlyphClass: 1
Flags: W
LayerCount: 2
Fore
SplineSet
329 354 m 1,0,1
 303 356 303 356 284 361 c 128,-1,2
 265 366 265 366 253.5 376 c 128,-1,3
 242 386 242 386 238 404 c 1,4,-1
 238 562 l 2,5,6
 238 585 238 585 226.5 593.5 c 128,-1,7
 215 602 215 602 189 601 c 0,8,9
 170 601 170 601 135.5 598.5 c 128,-1,10
 101 596 101 596 75 594 c 1,11,-1
 71 643 l 1,12,13
 99 650 99 650 132.5 654.5 c 128,-1,14
 166 659 166 659 195 659 c 0,15,16
 251 659 251 659 278 637 c 128,-1,17
 305 615 305 615 305 559 c 2,18,-1
 305 422 l 1,19,20
 310 415 310 415 318 411.5 c 128,-1,21
 326 408 326 408 334 406 c 1,22,-1
 329 354 l 1,0,1
138 355 m 0,23,24
 100 355 100 355 76.5 380.5 c 128,-1,25
 53 406 53 406 53 447 c 0,26,27
 53 489 53 489 77.5 510.5 c 128,-1,28
 102 532 102 532 151 535 c 2,29,-1
 257 541 l 1,30,-1
 258 494 l 1,31,-1
 161 487 l 2,32,33
 139 486 139 486 130 477.5 c 128,-1,34
 121 469 121 469 121 449 c 0,35,36
 121 430 121 430 130 420 c 128,-1,37
 139 410 139 410 156 410 c 0,38,39
 181 410 181 410 210.5 417.5 c 128,-1,40
 240 425 240 425 261 433 c 1,41,-1
 262 392 l 1,42,43
 239 376 239 376 205 365.5 c 128,-1,44
 171 355 171 355 138 355 c 0,23,24
EndSplineSet
PairPos2: "'kern' Horizontal Kerning in Arabic lookup 0 subtable" uniFEF3 dx=80 dy=0 dh=80 dv=0 dx=0 dy=0 dh=0 dv=0
PairPos2: "'kern' Horizontal Kerning in Arabic lookup 0 subtable" uniFB58 dx=80 dy=0 dh=80 dv=0 dx=0 dy=0 dh=0 dv=0
EndChar

StartChar: ordmasculine
Encoding: 186 186 120
Width: 382
GlyphClass: 1
Flags: W
LayerCount: 2
Fore
SplineSet
192 355 m 0,0,1
 123 355 123 355 88 392.5 c 128,-1,2
 53 430 53 430 53 509 c 0,3,4
 53 587 53 587 88 623 c 128,-1,5
 123 659 123 659 192 659 c 0,6,7
 260 659 260 659 294.5 623 c 128,-1,8
 329 587 329 587 329 509 c 0,9,10
 329 430 329 430 294.5 392.5 c 128,-1,11
 260 355 260 355 192 355 c 0,0,1
192 418 m 256,12,13
 229 418 229 418 243 439.5 c 128,-1,14
 257 461 257 461 257 508 c 0,15,16
 257 556 257 556 243 576 c 128,-1,17
 229 596 229 596 192 596 c 256,18,19
 155 596 155 596 139.5 576 c 128,-1,20
 124 556 124 556 124 508 c 0,21,22
 124 461 124 461 139.5 439.5 c 128,-1,23
 155 418 155 418 192 418 c 256,12,13
EndSplineSet
PairPos2: "'kern' Horizontal Kerning in Arabic lookup 0 subtable" uniFEF3 dx=80 dy=0 dh=80 dv=0 dx=0 dy=0 dh=0 dv=0
PairPos2: "'kern' Horizontal Kerning in Arabic lookup 0 subtable" uniFB58 dx=80 dy=0 dh=80 dv=0 dx=0 dy=0 dh=0 dv=0
EndChar

StartChar: uni0621
Encoding: 1569 1569 121
Width: 544
GlyphClass: 2
Flags: W
AnchorPoint: "Anchor-1" 272 -90 basechar 0
AnchorPoint: "Anchor-0" 272 590 basechar 0
LayerCount: 2
Fore
SplineSet
167 14 m 1,0,1
 127 59 127 59 107.5 104 c 128,-1,2
 88 149 88 149 88 200 c 0,3,4
 88 250 88 250 106 292 c 128,-1,5
 124 334 124 334 156 364.5 c 128,-1,6
 188 395 188 395 230.5 412 c 128,-1,7
 273 429 273 429 322 429 c 0,8,9
 359 429 359 429 393.5 419 c 128,-1,10
 428 409 428 409 456 391 c 1,11,-1
 413 332 l 1,12,13
 392 346 392 346 370.5 352 c 128,-1,14
 349 358 349 358 323 358 c 0,15,16
 277 358 277 358 241.5 337.5 c 128,-1,17
 206 317 206 317 185.5 281.5 c 128,-1,18
 165 246 165 246 165 200 c 0,19,20
 165 163 165 163 179.5 129.5 c 128,-1,21
 194 96 194 96 225 61 c 1,22,-1
 167 14 l 1,0,1
40 0 m 1,23,-1
 40 71 l 1,24,-1
 503 71 l 1,25,-1
 503 0 l 1,26,-1
 40 0 l 1,23,-1
EndSplineSet
PairPos2: "'kern' Horizontal Kerning in Arabic lookup 0 subtable" uniFEF3 dx=80 dy=0 dh=80 dv=0 dx=0 dy=0 dh=0 dv=0
PairPos2: "'kern' Horizontal Kerning in Arabic lookup 0 subtable" uniFB58 dx=80 dy=0 dh=80 dv=0 dx=0 dy=0 dh=0 dv=0
EndChar

StartChar: uni0627
Encoding: 1575 1575 122
Width: 269
GlyphClass: 2
Flags: W
AnchorPoint: "Anchor-1" 135 -90 basechar 0
AnchorPoint: "Anchor-0" 135 783 basechar 0
LayerCount: 2
Fore
SplineSet
96 0 m 1,0,-1
 96 717 l 1,1,-1
 173 717 l 1,2,-1
 173 0 l 1,3,-1
 96 0 l 1,0,-1
EndSplineSet
Substitution2: "'fina' Terminal Forms lookup 11 subtable" uniFE8E
PairPos2: "'kern' Horizontal Kerning in Arabic lookup 0 subtable" uniFEF3 dx=80 dy=0 dh=80 dv=0 dx=0 dy=0 dh=0 dv=0
PairPos2: "'kern' Horizontal Kerning in Arabic lookup 0 subtable" uniFB58 dx=80 dy=0 dh=80 dv=0 dx=0 dy=0 dh=0 dv=0
EndChar

StartChar: uniFE8E
Encoding: 65166 65166 123
Width: 295
GlyphClass: 2
Flags: W
AnchorPoint: "Anchor-1" 135 -90 basechar 0
AnchorPoint: "Anchor-0" 135 783 basechar 0
LayerCount: 2
Fore
SplineSet
173 0 m 1,0,-1
 173 71 l 1,1,-1
 295 71 l 1,2,-1
 295 0 l 1,3,-1
 173 0 l 1,0,-1
96 0 m 1,4,-1
 96 717 l 1,5,-1
 173 717 l 1,6,-1
 173 0 l 1,7,-1
 96 0 l 1,4,-1
295 0 m 1,8,-1
 295 71 l 1,9,10
 301 71 301 71 305 68.5 c 128,-1,11
 309 66 309 66 311 61.5 c 128,-1,12
 313 57 313 57 314 50.5 c 128,-1,13
 315 44 315 44 315 36 c 256,14,15
 315 28 315 28 314 21 c 128,-1,16
 313 14 313 14 311 9.5 c 128,-1,17
 309 5 309 5 305 2.5 c 128,-1,18
 301 0 301 0 295 0 c 1,8,-1
EndSplineSet
PairPos2: "'kern' Horizontal Kerning in Arabic lookup 0 subtable" uniFEF3 dx=80 dy=0 dh=80 dv=0 dx=0 dy=0 dh=0 dv=0
PairPos2: "'kern' Horizontal Kerning in Arabic lookup 0 subtable" uniFB58 dx=80 dy=0 dh=80 dv=0 dx=0 dy=0 dh=0 dv=0
EndChar

StartChar: uni066E
Encoding: 1646 1646 132
Width: 790
GlyphClass: 2
Flags: W
AnchorPoint: "Anchor-1" 375 -90 basechar 0
AnchorPoint: "Anchor-0" 375 493 basechar 0
LayerCount: 2
Fore
SplineSet
337 0 m 2,0,1
 238 0 238 0 172 23 c 128,-1,2
 106 46 106 46 73 93 c 128,-1,3
 40 140 40 140 40 213 c 0,4,5
 40 237 40 237 43.5 265 c 128,-1,6
 47 293 47 293 52 319.5 c 128,-1,7
 57 346 57 346 61 365.5 c 128,-1,8
 65 385 65 385 66 392 c 1,9,-1
 142 378 l 1,10,11
 139 362 139 362 133.5 334 c 128,-1,12
 128 306 128 306 123 274 c 128,-1,13
 118 242 118 242 118 213 c 0,14,15
 118 176 118 176 129.5 149 c 128,-1,16
 141 122 141 122 166.5 104.5 c 128,-1,17
 192 87 192 87 234 79 c 128,-1,18
 276 71 276 71 337 71 c 2,19,-1
 631 71 l 1,20,-1
 631 500 l 1,21,-1
 709 500 l 1,22,-1
 709 0 l 1,23,-1
 337 0 l 2,0,1
EndSplineSet
Substitution2: "'fina' Terminal Forms lookup 11 subtable" uni066E.fina
Substitution2: "'medi' Medial Forms lookup 10 subtable" uni066E.medi
Substitution2: "'init' Initial Forms lookup 9 subtable" uni066E.init
PairPos2: "'kern' Horizontal Kerning in Arabic lookup 0 subtable" uniFEF3 dx=80 dy=0 dh=80 dv=0 dx=0 dy=0 dh=0 dv=0
PairPos2: "'kern' Horizontal Kerning in Arabic lookup 0 subtable" uniFB58 dx=80 dy=0 dh=80 dv=0 dx=0 dy=0 dh=0 dv=0
EndChar

StartChar: uni066E.fina
Encoding: 65537 -1 133
Width: 817
GlyphClass: 2
Flags: W
AnchorPoint: "Anchor-1" 375 -90 basechar 0
AnchorPoint: "Anchor-0" 375 493 basechar 0
LayerCount: 2
Fore
SplineSet
709 0 m 1,0,-1
 709 71 l 1,1,-1
 817 71 l 1,2,-1
 817 0 l 1,3,-1
 709 0 l 1,0,-1
337 0 m 2,4,5
 238 0 238 0 172 23 c 128,-1,6
 106 46 106 46 73 93 c 128,-1,7
 40 140 40 140 40 213 c 0,8,9
 40 237 40 237 43.5 265 c 128,-1,10
 47 293 47 293 52 319.5 c 128,-1,11
 57 346 57 346 61 365.5 c 128,-1,12
 65 385 65 385 66 392 c 1,13,-1
 142 378 l 1,14,15
 139 362 139 362 133.5 334 c 128,-1,16
 128 306 128 306 123 274 c 128,-1,17
 118 242 118 242 118 213 c 0,18,19
 118 176 118 176 129.5 149 c 128,-1,20
 141 122 141 122 166.5 104.5 c 128,-1,21
 192 87 192 87 234 79 c 128,-1,22
 276 71 276 71 337 71 c 2,23,-1
 631 71 l 1,24,-1
 631 500 l 1,25,-1
 709 500 l 1,26,-1
 709 0 l 1,27,-1
 337 0 l 2,4,5
817 0 m 1,28,-1
 817 71 l 1,29,30
 823 71 823 71 827 68.5 c 128,-1,31
 831 66 831 66 833 61.5 c 128,-1,32
 835 57 835 57 836 50.5 c 128,-1,33
 837 44 837 44 837 36 c 256,34,35
 837 28 837 28 836 21 c 128,-1,36
 835 14 835 14 833 9.5 c 128,-1,37
 831 5 831 5 827 2.5 c 128,-1,38
 823 0 823 0 817 0 c 1,28,-1
EndSplineSet
PairPos2: "'kern' Horizontal Kerning in Arabic lookup 0 subtable" uniFEF3 dx=80 dy=0 dh=80 dv=0 dx=0 dy=0 dh=0 dv=0
PairPos2: "'kern' Horizontal Kerning in Arabic lookup 0 subtable" uniFB58 dx=80 dy=0 dh=80 dv=0 dx=0 dy=0 dh=0 dv=0
EndChar

StartChar: uni066E.medi
Encoding: 65538 -1 134
Width: 294
GlyphClass: 2
Flags: W
AnchorPoint: "Anchor-1" 147 -90 basechar 0
AnchorPoint: "Anchor-0" 147 590 basechar 0
LayerCount: 2
Fore
SplineSet
186 0 m 1,0,-1
 186 71 l 1,1,-1
 294 71 l 1,2,-1
 294 0 l 1,3,-1
 186 0 l 1,0,-1
0 0 m 1,4,5
 -6 0 -6 0 -10 2.5 c 128,-1,6
 -14 5 -14 5 -16 9.5 c 128,-1,7
 -18 14 -18 14 -19 21 c 128,-1,8
 -20 28 -20 28 -20 36 c 0,9,10
 -20 47 -20 47 -18.5 54.5 c 128,-1,11
 -17 62 -17 62 -12.5 66.5 c 128,-1,12
 -8 71 -8 71 0 71 c 1,13,-1
 0 0 l 1,4,5
0 0 m 1,14,-1
 0 71 l 1,15,-1
 144 71 l 1,16,-1
 108 42 l 1,17,-1
 108 500 l 1,18,-1
 186 500 l 1,19,-1
 186 0 l 1,20,-1
 0 0 l 1,14,-1
294 0 m 1,21,-1
 294 71 l 1,22,23
 300 71 300 71 304 68.5 c 128,-1,24
 308 66 308 66 310 61.5 c 128,-1,25
 312 57 312 57 313 50.5 c 128,-1,26
 314 44 314 44 314 36 c 256,27,28
 314 28 314 28 313 21 c 128,-1,29
 312 14 312 14 310 9.5 c 128,-1,30
 308 5 308 5 304 2.5 c 128,-1,31
 300 0 300 0 294 0 c 1,21,-1
EndSplineSet
PairPos2: "'kern' Horizontal Kerning in Arabic lookup 0 subtable" uniFEF3 dx=80 dy=0 dh=80 dv=0 dx=0 dy=0 dh=0 dv=0
PairPos2: "'kern' Horizontal Kerning in Arabic lookup 0 subtable" uniFB58 dx=80 dy=0 dh=80 dv=0 dx=0 dy=0 dh=0 dv=0
EndChar

StartChar: uni066E.medi.alt
Encoding: 65539 -1 135
Width: 294
GlyphClass: 1
Flags: W
LayerCount: 2
Fore
SplineSet
186 0 m 1,0,-1
 186 71 l 1,1,-1
 294 71 l 1,2,-1
 294 0 l 1,3,-1
 186 0 l 1,0,-1
294 0 m 1,4,-1
 294 71 l 1,5,6
 300 71 300 71 304 68.5 c 128,-1,7
 308 66 308 66 310 61.5 c 128,-1,8
 312 57 312 57 313 50.5 c 128,-1,9
 314 44 314 44 314 36 c 256,10,11
 314 28 314 28 313 21 c 128,-1,12
 312 14 312 14 310 9.5 c 128,-1,13
 308 5 308 5 304 2.5 c 128,-1,14
 300 0 300 0 294 0 c 1,4,-1
0 0 m 1,15,16
 -6 0 -6 0 -10 2.5 c 128,-1,17
 -14 5 -14 5 -16 9.5 c 128,-1,18
 -18 14 -18 14 -19 21 c 128,-1,19
 -20 28 -20 28 -20 36 c 0,20,21
 -20 47 -20 47 -18.5 54.5 c 128,-1,22
 -17 62 -17 62 -12.5 66.5 c 128,-1,23
 -8 71 -8 71 0 71 c 1,24,-1
 0 0 l 1,15,16
0 0 m 1,25,-1
 0 71 l 1,26,-1
 144 71 l 1,27,-1
 108 42 l 1,28,-1
 108 500 l 1,29,-1
 186 500 l 1,30,-1
 186 0 l 1,31,-1
 0 0 l 1,25,-1
EndSplineSet
PairPos2: "'kern' Horizontal Kerning in Arabic lookup 0 subtable" uniFEF3 dx=80 dy=0 dh=80 dv=0 dx=0 dy=0 dh=0 dv=0
PairPos2: "'kern' Horizontal Kerning in Arabic lookup 0 subtable" uniFB58 dx=80 dy=0 dh=80 dv=0 dx=0 dy=0 dh=0 dv=0
EndChar

StartChar: uni066E.init
Encoding: 65540 -1 136
Width: 267
GlyphClass: 2
Flags: W
AnchorPoint: "Anchor-1" 147 -90 basechar 0
AnchorPoint: "Anchor-0" 147 590 basechar 0
LayerCount: 2
Fore
SplineSet
0 0 m 1,0,-1
 0 71 l 1,1,-1
 144 71 l 1,2,-1
 108 42 l 1,3,-1
 108 500 l 1,4,-1
 186 500 l 1,5,-1
 186 0 l 1,6,-1
 0 0 l 1,0,-1
0 0 m 1,7,8
 -6 0 -6 0 -10 2.5 c 128,-1,9
 -14 5 -14 5 -16 9.5 c 128,-1,10
 -18 14 -18 14 -19 21 c 128,-1,11
 -20 28 -20 28 -20 36 c 0,12,13
 -20 47 -20 47 -18.5 54.5 c 128,-1,14
 -17 62 -17 62 -12.5 66.5 c 128,-1,15
 -8 71 -8 71 0 71 c 1,16,-1
 0 0 l 1,7,8
EndSplineSet
PairPos2: "'kern' Horizontal Kerning in Arabic lookup 0 subtable" uniFEF3 dx=80 dy=0 dh=80 dv=0 dx=0 dy=0 dh=0 dv=0
PairPos2: "'kern' Horizontal Kerning in Arabic lookup 0 subtable" uniFB58 dx=80 dy=0 dh=80 dv=0 dx=0 dy=0 dh=0 dv=0
EndChar

StartChar: uni066E.init.alt
Encoding: 65541 -1 137
Width: 267
GlyphClass: 1
Flags: W
LayerCount: 2
Fore
SplineSet
0 0 m 1,0,-1
 0 71 l 1,1,-1
 144 71 l 1,2,-1
 108 42 l 1,3,-1
 108 500 l 1,4,-1
 186 500 l 1,5,-1
 186 0 l 1,6,-1
 0 0 l 1,0,-1
0 0 m 1,7,8
 -6 0 -6 0 -10 2.5 c 128,-1,9
 -14 5 -14 5 -16 9.5 c 128,-1,10
 -18 14 -18 14 -19 21 c 128,-1,11
 -20 28 -20 28 -20 36 c 0,12,13
 -20 47 -20 47 -18.5 54.5 c 128,-1,14
 -17 62 -17 62 -12.5 66.5 c 128,-1,15
 -8 71 -8 71 0 71 c 1,16,-1
 0 0 l 1,7,8
EndSplineSet
PairPos2: "'kern' Horizontal Kerning in Arabic lookup 0 subtable" uniFEF3 dx=80 dy=0 dh=80 dv=0 dx=0 dy=0 dh=0 dv=0
PairPos2: "'kern' Horizontal Kerning in Arabic lookup 0 subtable" uniFB58 dx=80 dy=0 dh=80 dv=0 dx=0 dy=0 dh=0 dv=0
EndChar

StartChar: uni062C
Encoding: 1580 1580 160
Width: 580
GlyphClass: 2
Flags: W
AnchorPoint: "Anchor-1" 276 -400 basechar 0
AnchorPoint: "Anchor-0" 276 573 basechar 0
LayerCount: 2
Fore
SplineSet
338 -167 m 1,0,-1
 338 -88 l 1,1,-1
 405 -88 l 1,2,-1
 405 -167 l 1,3,-1
 338 -167 l 1,0,-1
277 -318 m 0,4,5
 204 -318 204 -318 150.5 -295.5 c 128,-1,6
 97 -273 97 -273 68.5 -229 c 128,-1,7
 40 -185 40 -185 40 -123 c 256,8,9
 40 -61 40 -61 68.5 -17.5 c 128,-1,10
 97 26 97 26 150.5 48.5 c 128,-1,11
 204 71 204 71 278 71 c 2,12,-1
 443 71 l 1,13,-1
 443 298 l 2,14,15
 443 363 443 363 402 395.5 c 128,-1,16
 361 428 361 428 278 428 c 0,17,18
 252 428 252 428 203 423.5 c 128,-1,19
 154 419 154 419 100 411 c 1,20,-1
 91 475 l 1,21,22
 132 485 132 485 181 492.5 c 128,-1,23
 230 500 230 500 276 500 c 0,24,25
 352 500 352 500 406.5 476.5 c 128,-1,26
 461 453 461 453 490.5 408 c 128,-1,27
 520 363 520 363 520 298 c 2,28,-1
 520 0 l 1,29,-1
 278 0 l 2,30,31
 195 0 195 0 156.5 -31.5 c 128,-1,32
 118 -63 118 -63 118 -124 c 0,33,34
 118 -184 118 -184 156.5 -215.5 c 128,-1,35
 195 -247 195 -247 277 -247 c 0,36,37
 295 -247 295 -247 318.5 -245 c 128,-1,38
 342 -243 342 -243 376 -239 c 1,39,-1
 389 -306 l 1,40,41
 364 -311 364 -311 335 -314.5 c 128,-1,42
 306 -318 306 -318 277 -318 c 0,4,5
EndSplineSet
Substitution2: "'fina' Terminal Forms lookup 11 subtable" uniFE9E
Substitution2: "'medi' Medial Forms lookup 10 subtable" uniFEA0
Substitution2: "'init' Initial Forms lookup 9 subtable" uniFE9F
PairPos2: "'kern' Horizontal Kerning in Arabic lookup 0 subtable" uniFEF3 dx=80 dy=0 dh=80 dv=0 dx=0 dy=0 dh=0 dv=0
PairPos2: "'kern' Horizontal Kerning in Arabic lookup 0 subtable" uniFB58 dx=80 dy=0 dh=80 dv=0 dx=0 dy=0 dh=0 dv=0
EndChar

StartChar: uniFE9E
Encoding: 65182 65182 161
Width: 628
GlyphClass: 2
Flags: W
AnchorPoint: "Anchor-1" 276 -400 basechar 0
AnchorPoint: "Anchor-0" 276 573 basechar 0
LayerCount: 2
Fore
SplineSet
338 -167 m 1,0,-1
 338 -88 l 1,1,-1
 405 -88 l 1,2,-1
 405 -167 l 1,3,-1
 338 -167 l 1,0,-1
628 0 m 1,4,-1
 628 71 l 1,5,6
 634 71 634 71 638 68.5 c 128,-1,7
 642 66 642 66 644 61.5 c 128,-1,8
 646 57 646 57 647 50.5 c 128,-1,9
 648 44 648 44 648 36 c 256,10,11
 648 28 648 28 647 21 c 128,-1,12
 646 14 646 14 644 9.5 c 128,-1,13
 642 5 642 5 638 2.5 c 128,-1,14
 634 0 634 0 628 0 c 1,4,-1
277 -318 m 0,15,16
 204 -318 204 -318 150.5 -295.5 c 128,-1,17
 97 -273 97 -273 68.5 -229 c 128,-1,18
 40 -185 40 -185 40 -123 c 256,19,20
 40 -61 40 -61 68.5 -17.5 c 128,-1,21
 97 26 97 26 150.5 48.5 c 128,-1,22
 204 71 204 71 278 71 c 2,23,-1
 443 71 l 1,24,-1
 443 298 l 2,25,26
 443 363 443 363 402 395.5 c 128,-1,27
 361 428 361 428 278 428 c 0,28,29
 252 428 252 428 203 423.5 c 128,-1,30
 154 419 154 419 100 411 c 1,31,-1
 91 475 l 1,32,33
 132 485 132 485 181 492.5 c 128,-1,34
 230 500 230 500 276 500 c 0,35,36
 352 500 352 500 406.5 476.5 c 128,-1,37
 461 453 461 453 490.5 408 c 128,-1,38
 520 363 520 363 520 298 c 2,39,-1
 520 0 l 1,40,-1
 278 0 l 2,41,42
 195 0 195 0 156.5 -31.5 c 128,-1,43
 118 -63 118 -63 118 -124 c 0,44,45
 118 -184 118 -184 156.5 -215.5 c 128,-1,46
 195 -247 195 -247 277 -247 c 0,47,48
 295 -247 295 -247 318.5 -245 c 128,-1,49
 342 -243 342 -243 376 -239 c 1,50,-1
 389 -306 l 1,51,52
 364 -311 364 -311 335 -314.5 c 128,-1,53
 306 -318 306 -318 277 -318 c 0,15,16
520 0 m 1,54,-1
 520 71 l 1,55,-1
 628 71 l 1,56,-1
 628 0 l 1,57,-1
 520 0 l 1,54,-1
EndSplineSet
PairPos2: "'kern' Horizontal Kerning in Arabic lookup 0 subtable" uniFEF3 dx=80 dy=0 dh=80 dv=0 dx=0 dy=0 dh=0 dv=0
PairPos2: "'kern' Horizontal Kerning in Arabic lookup 0 subtable" uniFB58 dx=80 dy=0 dh=80 dv=0 dx=0 dy=0 dh=0 dv=0
EndChar

StartChar: uni0686
Encoding: 1670 1670 164
Width: 580
GlyphClass: 2
Flags: W
AnchorPoint: "Anchor-1" 276 -400 basechar 0
AnchorPoint: "Anchor-0" 276 573 basechar 0
LayerCount: 2
Fore
SplineSet
330 -137 m 1,0,-1
 375 -137 l 1,1,-1
 375 -191 l 1,2,-1
 330 -191 l 1,3,-1
 330 -137 l 1,0,-1
371 -54 m 1,4,-1
 420 -54 l 1,5,-1
 420 -111 l 1,6,-1
 371 -111 l 1,7,-1
 371 -54 l 1,4,-1
284 -54 m 1,8,-1
 334 -54 l 1,9,-1
 334 -111 l 1,10,-1
 284 -111 l 1,11,-1
 284 -54 l 1,8,-1
277 -318 m 0,12,13
 204 -318 204 -318 150.5 -295.5 c 128,-1,14
 97 -273 97 -273 68.5 -229 c 128,-1,15
 40 -185 40 -185 40 -123 c 256,16,17
 40 -61 40 -61 68.5 -17.5 c 128,-1,18
 97 26 97 26 150.5 48.5 c 128,-1,19
 204 71 204 71 278 71 c 2,20,-1
 443 71 l 1,21,-1
 443 298 l 2,22,23
 443 363 443 363 402 395.5 c 128,-1,24
 361 428 361 428 278 428 c 0,25,26
 252 428 252 428 203 423.5 c 128,-1,27
 154 419 154 419 100 411 c 1,28,-1
 91 475 l 1,29,30
 132 485 132 485 181 492.5 c 128,-1,31
 230 500 230 500 276 500 c 0,32,33
 352 500 352 500 406.5 476.5 c 128,-1,34
 461 453 461 453 490.5 408 c 128,-1,35
 520 363 520 363 520 298 c 2,36,-1
 520 0 l 1,37,-1
 278 0 l 2,38,39
 195 0 195 0 156.5 -31.5 c 128,-1,40
 118 -63 118 -63 118 -124 c 0,41,42
 118 -184 118 -184 156.5 -215.5 c 128,-1,43
 195 -247 195 -247 277 -247 c 0,44,45
 295 -247 295 -247 318.5 -245 c 128,-1,46
 342 -243 342 -243 376 -239 c 1,47,-1
 389 -306 l 1,48,49
 364 -311 364 -311 335 -314.5 c 128,-1,50
 306 -318 306 -318 277 -318 c 0,12,13
EndSplineSet
Substitution2: "'fina' Terminal Forms lookup 11 subtable" uniFB7B
Substitution2: "'medi' Medial Forms lookup 10 subtable" uniFB7D
Substitution2: "'init' Initial Forms lookup 9 subtable" uniFB7C
PairPos2: "'kern' Horizontal Kerning in Arabic lookup 0 subtable" uniFEF3 dx=80 dy=0 dh=80 dv=0 dx=0 dy=0 dh=0 dv=0
PairPos2: "'kern' Horizontal Kerning in Arabic lookup 0 subtable" uniFB58 dx=80 dy=0 dh=80 dv=0 dx=0 dy=0 dh=0 dv=0
EndChar

StartChar: uniFB7B
Encoding: 64379 64379 165
Width: 628
GlyphClass: 2
Flags: W
AnchorPoint: "Anchor-1" 276 -400 basechar 0
AnchorPoint: "Anchor-0" 276 573 basechar 0
LayerCount: 2
Fore
SplineSet
330 -137 m 1,0,-1
 375 -137 l 1,1,-1
 375 -191 l 1,2,-1
 330 -191 l 1,3,-1
 330 -137 l 1,0,-1
371 -54 m 1,4,-1
 420 -54 l 1,5,-1
 420 -111 l 1,6,-1
 371 -111 l 1,7,-1
 371 -54 l 1,4,-1
284 -54 m 1,8,-1
 334 -54 l 1,9,-1
 334 -111 l 1,10,-1
 284 -111 l 1,11,-1
 284 -54 l 1,8,-1
628 0 m 1,12,-1
 628 71 l 1,13,14
 634 71 634 71 638 68.5 c 128,-1,15
 642 66 642 66 644 61.5 c 128,-1,16
 646 57 646 57 647 50.5 c 128,-1,17
 648 44 648 44 648 36 c 256,18,19
 648 28 648 28 647 21 c 128,-1,20
 646 14 646 14 644 9.5 c 128,-1,21
 642 5 642 5 638 2.5 c 128,-1,22
 634 0 634 0 628 0 c 1,12,-1
277 -318 m 0,23,24
 204 -318 204 -318 150.5 -295.5 c 128,-1,25
 97 -273 97 -273 68.5 -229 c 128,-1,26
 40 -185 40 -185 40 -123 c 256,27,28
 40 -61 40 -61 68.5 -17.5 c 128,-1,29
 97 26 97 26 150.5 48.5 c 128,-1,30
 204 71 204 71 278 71 c 2,31,-1
 443 71 l 1,32,-1
 443 298 l 2,33,34
 443 363 443 363 402 395.5 c 128,-1,35
 361 428 361 428 278 428 c 0,36,37
 252 428 252 428 203 423.5 c 128,-1,38
 154 419 154 419 100 411 c 1,39,-1
 91 475 l 1,40,41
 132 485 132 485 181 492.5 c 128,-1,42
 230 500 230 500 276 500 c 0,43,44
 352 500 352 500 406.5 476.5 c 128,-1,45
 461 453 461 453 490.5 408 c 128,-1,46
 520 363 520 363 520 298 c 2,47,-1
 520 0 l 1,48,-1
 278 0 l 2,49,50
 195 0 195 0 156.5 -31.5 c 128,-1,51
 118 -63 118 -63 118 -124 c 0,52,53
 118 -184 118 -184 156.5 -215.5 c 128,-1,54
 195 -247 195 -247 277 -247 c 0,55,56
 295 -247 295 -247 318.5 -245 c 128,-1,57
 342 -243 342 -243 376 -239 c 1,58,-1
 389 -306 l 1,59,60
 364 -311 364 -311 335 -314.5 c 128,-1,61
 306 -318 306 -318 277 -318 c 0,23,24
520 0 m 1,62,-1
 520 71 l 1,63,-1
 628 71 l 1,64,-1
 628 0 l 1,65,-1
 520 0 l 1,62,-1
EndSplineSet
PairPos2: "'kern' Horizontal Kerning in Arabic lookup 0 subtable" uniFEF3 dx=80 dy=0 dh=80 dv=0 dx=0 dy=0 dh=0 dv=0
PairPos2: "'kern' Horizontal Kerning in Arabic lookup 0 subtable" uniFB58 dx=80 dy=0 dh=80 dv=0 dx=0 dy=0 dh=0 dv=0
EndChar

StartChar: uni062D
Encoding: 1581 1581 168
Width: 580
GlyphClass: 2
Flags: W
AnchorPoint: "Anchor-1" 276 -400 basechar 0
AnchorPoint: "Anchor-0" 276 573 basechar 0
LayerCount: 2
Fore
SplineSet
426 -234 m 1,0,-1
 438 -297 l 1,1,2
 391 -307 391 -307 351.5 -312.5 c 128,-1,3
 312 -318 312 -318 277 -318 c 0,4,5
 204 -318 204 -318 150.5 -295.5 c 128,-1,6
 97 -273 97 -273 68.5 -229 c 128,-1,7
 40 -185 40 -185 40 -123 c 256,8,9
 40 -61 40 -61 68.5 -17.5 c 128,-1,10
 97 26 97 26 150.5 48.5 c 128,-1,11
 204 71 204 71 278 71 c 2,12,-1
 443 71 l 1,13,-1
 443 0 l 1,14,-1
 278 0 l 2,15,16
 195 0 195 0 156.5 -31.5 c 128,-1,17
 118 -63 118 -63 118 -124 c 0,18,19
 118 -184 118 -184 156.5 -215.5 c 128,-1,20
 195 -247 195 -247 277 -247 c 0,21,22
 302 -247 302 -247 338 -244 c 128,-1,23
 374 -241 374 -241 426 -234 c 1,0,-1
100 411 m 1,24,-1
 91 475 l 1,25,26
 132 485 132 485 181 492.5 c 128,-1,27
 230 500 230 500 276 500 c 0,28,29
 352 500 352 500 406.5 476.5 c 128,-1,30
 461 453 461 453 490.5 408 c 128,-1,31
 520 363 520 363 520 298 c 2,32,-1
 520 0 l 1,33,-1
 443 0 l 1,34,-1
 443 298 l 2,35,36
 443 363 443 363 402 395.5 c 128,-1,37
 361 428 361 428 278 428 c 0,38,39
 252 428 252 428 203 423.5 c 128,-1,40
 154 419 154 419 100 411 c 1,24,-1
EndSplineSet
Substitution2: "'fina' Terminal Forms lookup 11 subtable" uniFEA2
Substitution2: "'medi' Medial Forms lookup 10 subtable" uniFEA4
Substitution2: "'init' Initial Forms lookup 9 subtable" uniFEA3
PairPos2: "'kern' Horizontal Kerning in Arabic lookup 0 subtable" uniFEF3 dx=80 dy=0 dh=80 dv=0 dx=0 dy=0 dh=0 dv=0
PairPos2: "'kern' Horizontal Kerning in Arabic lookup 0 subtable" uniFB58 dx=80 dy=0 dh=80 dv=0 dx=0 dy=0 dh=0 dv=0
EndChar

StartChar: uniFEA2
Encoding: 65186 65186 169
Width: 628
GlyphClass: 2
Flags: W
AnchorPoint: "Anchor-1" 276 -400 basechar 0
AnchorPoint: "Anchor-0" 276 573 basechar 0
LayerCount: 2
Fore
SplineSet
520 0 m 1,0,-1
 520 71 l 1,1,-1
 628 71 l 1,2,-1
 628 0 l 1,3,-1
 520 0 l 1,0,-1
426 -234 m 1,4,-1
 438 -297 l 1,5,6
 391 -307 391 -307 351.5 -312.5 c 128,-1,7
 312 -318 312 -318 277 -318 c 0,8,9
 204 -318 204 -318 150.5 -295.5 c 128,-1,10
 97 -273 97 -273 68.5 -229 c 128,-1,11
 40 -185 40 -185 40 -123 c 256,12,13
 40 -61 40 -61 68.5 -17.5 c 128,-1,14
 97 26 97 26 150.5 48.5 c 128,-1,15
 204 71 204 71 278 71 c 2,16,-1
 443 71 l 1,17,-1
 443 0 l 1,18,-1
 278 0 l 2,19,20
 195 0 195 0 156.5 -31.5 c 128,-1,21
 118 -63 118 -63 118 -124 c 0,22,23
 118 -184 118 -184 156.5 -215.5 c 128,-1,24
 195 -247 195 -247 277 -247 c 0,25,26
 302 -247 302 -247 338 -244 c 128,-1,27
 374 -241 374 -241 426 -234 c 1,4,-1
100 411 m 1,28,-1
 91 475 l 1,29,30
 132 485 132 485 181 492.5 c 128,-1,31
 230 500 230 500 276 500 c 0,32,33
 352 500 352 500 406.5 476.5 c 128,-1,34
 461 453 461 453 490.5 408 c 128,-1,35
 520 363 520 363 520 298 c 2,36,-1
 520 0 l 1,37,-1
 443 0 l 1,38,-1
 443 298 l 2,39,40
 443 363 443 363 402 395.5 c 128,-1,41
 361 428 361 428 278 428 c 0,42,43
 252 428 252 428 203 423.5 c 128,-1,44
 154 419 154 419 100 411 c 1,28,-1
628 0 m 1,45,-1
 628 71 l 1,46,47
 634 71 634 71 638 68.5 c 128,-1,48
 642 66 642 66 644 61.5 c 128,-1,49
 646 57 646 57 647 50.5 c 128,-1,50
 648 44 648 44 648 36 c 256,51,52
 648 28 648 28 647 21 c 128,-1,53
 646 14 646 14 644 9.5 c 128,-1,54
 642 5 642 5 638 2.5 c 128,-1,55
 634 0 634 0 628 0 c 1,45,-1
EndSplineSet
PairPos2: "'kern' Horizontal Kerning in Arabic lookup 0 subtable" uniFEF3 dx=80 dy=0 dh=80 dv=0 dx=0 dy=0 dh=0 dv=0
PairPos2: "'kern' Horizontal Kerning in Arabic lookup 0 subtable" uniFB58 dx=80 dy=0 dh=80 dv=0 dx=0 dy=0 dh=0 dv=0
EndChar

StartChar: uniFEA4
Encoding: 65188 65188 170
Width: 603
GlyphClass: 2
Flags: W
AnchorPoint: "Anchor-1" 251 -90 basechar 0
AnchorPoint: "Anchor-0" 251 569 basechar 0
LayerCount: 2
Fore
SplineSet
495 0 m 1,0,-1
 495 71 l 1,1,-1
 603 71 l 1,2,-1
 603 0 l 1,3,-1
 495 0 l 1,0,-1
0 0 m 1,4,5
 -6 0 -6 0 -10 2.5 c 128,-1,6
 -14 5 -14 5 -16 9.5 c 128,-1,7
 -18 14 -18 14 -19 21 c 128,-1,8
 -20 28 -20 28 -20 36 c 0,9,10
 -20 47 -20 47 -18.5 54.5 c 128,-1,11
 -17 62 -17 62 -12.5 66.5 c 128,-1,12
 -8 71 -8 71 0 71 c 1,13,-1
 0 0 l 1,4,5
0 0 m 1,14,-1
 0 71 l 1,15,-1
 441 71 l 1,16,-1
 417 50 l 1,17,-1
 417 298 l 2,18,19
 417 363 417 363 376.5 395.5 c 128,-1,20
 336 428 336 428 253 428 c 0,21,22
 227 428 227 428 178 423.5 c 128,-1,23
 129 419 129 419 75 411 c 1,24,-1
 66 475 l 1,25,26
 107 485 107 485 156 492.5 c 128,-1,27
 205 500 205 500 251 500 c 0,28,29
 327 500 327 500 381.5 476.5 c 128,-1,30
 436 453 436 453 465.5 408 c 128,-1,31
 495 363 495 363 495 298 c 2,32,-1
 495 0 l 1,33,-1
 0 0 l 1,14,-1
603 0 m 1,34,-1
 603 71 l 1,35,36
 609 71 609 71 613 68.5 c 128,-1,37
 617 66 617 66 619 61.5 c 128,-1,38
 621 57 621 57 622 50.5 c 128,-1,39
 623 44 623 44 623 36 c 256,40,41
 623 28 623 28 622 21 c 128,-1,42
 621 14 621 14 619 9.5 c 128,-1,43
 617 5 617 5 613 2.5 c 128,-1,44
 609 0 609 0 603 0 c 1,34,-1
EndSplineSet
PairPos2: "'kern' Horizontal Kerning in Arabic lookup 0 subtable" uniFEF3 dx=80 dy=0 dh=80 dv=0 dx=0 dy=0 dh=0 dv=0
PairPos2: "'kern' Horizontal Kerning in Arabic lookup 0 subtable" uniFB58 dx=80 dy=0 dh=80 dv=0 dx=0 dy=0 dh=0 dv=0
EndChar

StartChar: uniFEA3
Encoding: 65187 65187 171
Width: 555
GlyphClass: 2
Flags: W
AnchorPoint: "Anchor-1" 251 -90 basechar 0
AnchorPoint: "Anchor-0" 251 569 basechar 0
LayerCount: 2
Fore
SplineSet
0 0 m 1,0,-1
 0 71 l 1,1,-1
 441 71 l 1,2,-1
 417 50 l 1,3,-1
 417 298 l 2,4,5
 417 363 417 363 376.5 395.5 c 128,-1,6
 336 428 336 428 253 428 c 0,7,8
 227 428 227 428 178 423.5 c 128,-1,9
 129 419 129 419 75 411 c 1,10,-1
 66 475 l 1,11,12
 107 485 107 485 156 492.5 c 128,-1,13
 205 500 205 500 251 500 c 0,14,15
 327 500 327 500 381.5 476.5 c 128,-1,16
 436 453 436 453 465.5 408 c 128,-1,17
 495 363 495 363 495 298 c 2,18,-1
 495 0 l 1,19,-1
 0 0 l 1,0,-1
0 0 m 1,20,21
 -6 0 -6 0 -10 2.5 c 128,-1,22
 -14 5 -14 5 -16 9.5 c 128,-1,23
 -18 14 -18 14 -19 21 c 128,-1,24
 -20 28 -20 28 -20 36 c 0,25,26
 -20 47 -20 47 -18.5 54.5 c 128,-1,27
 -17 62 -17 62 -12.5 66.5 c 128,-1,28
 -8 71 -8 71 0 71 c 1,29,-1
 0 0 l 1,20,21
EndSplineSet
PairPos2: "'kern' Horizontal Kerning in Arabic lookup 0 subtable" uniFEF3 dx=80 dy=0 dh=80 dv=0 dx=0 dy=0 dh=0 dv=0
PairPos2: "'kern' Horizontal Kerning in Arabic lookup 0 subtable" uniFB58 dx=80 dy=0 dh=80 dv=0 dx=0 dy=0 dh=0 dv=0
EndChar

StartChar: uni062F
Encoding: 1583 1583 176
Width: 483
GlyphClass: 2
Flags: W
AnchorPoint: "Anchor-1" 238 -90 basechar 0
AnchorPoint: "Anchor-0" 155 590 basechar 0
LayerCount: 2
Fore
SplineSet
40 0 m 1,0,-1
 40 71 l 1,1,-1
 413 71 l 1,2,-1
 349 14 l 1,3,-1
 349 232 l 2,4,5
 349 306 349 306 332 349 c 128,-1,6
 315 392 315 392 276.5 410.5 c 128,-1,7
 238 429 238 429 173 429 c 2,8,-1
 92 429 l 1,9,-1
 92 500 l 1,10,-1
 173 500 l 2,11,12
 253 500 253 500 310 475 c 128,-1,13
 367 450 367 450 397 391.5 c 128,-1,14
 427 333 427 333 427 232 c 2,15,-1
 427 0 l 1,16,-1
 40 0 l 1,0,-1
EndSplineSet
Substitution2: "'fina' Terminal Forms lookup 11 subtable" uniFEAA
PairPos2: "'kern' Horizontal Kerning in Arabic lookup 0 subtable" uniFEF3 dx=80 dy=0 dh=80 dv=0 dx=0 dy=0 dh=0 dv=0
PairPos2: "'kern' Horizontal Kerning in Arabic lookup 0 subtable" uniFB58 dx=80 dy=0 dh=80 dv=0 dx=0 dy=0 dh=0 dv=0
EndChar

StartChar: uniFEAA
Encoding: 65194 65194 177
Width: 535
GlyphClass: 2
Flags: W
AnchorPoint: "Anchor-1" 238 -90 basechar 0
AnchorPoint: "Anchor-0" 155 590 basechar 0
LayerCount: 2
Fore
SplineSet
427 0 m 1,0,-1
 427 71 l 1,1,-1
 535 71 l 1,2,-1
 535 0 l 1,3,-1
 427 0 l 1,0,-1
40 0 m 1,4,-1
 40 71 l 1,5,-1
 413 71 l 1,6,-1
 349 14 l 1,7,-1
 349 232 l 2,8,9
 349 306 349 306 332 349 c 128,-1,10
 315 392 315 392 276.5 410.5 c 128,-1,11
 238 429 238 429 173 429 c 2,12,-1
 92 429 l 1,13,-1
 92 500 l 1,14,-1
 173 500 l 2,15,16
 253 500 253 500 310 475 c 128,-1,17
 367 450 367 450 397 391.5 c 128,-1,18
 427 333 427 333 427 232 c 2,19,-1
 427 0 l 1,20,-1
 40 0 l 1,4,-1
535 0 m 1,21,-1
 535 71 l 1,22,23
 541 71 541 71 545 68.5 c 128,-1,24
 549 66 549 66 551 61.5 c 128,-1,25
 553 57 553 57 554 50.5 c 128,-1,26
 555 44 555 44 555 36 c 256,27,28
 555 28 555 28 554 21 c 128,-1,29
 553 14 553 14 551 9.5 c 128,-1,30
 549 5 549 5 545 2.5 c 128,-1,31
 541 0 541 0 535 0 c 1,21,-1
EndSplineSet
PairPos2: "'kern' Horizontal Kerning in Arabic lookup 0 subtable" uniFEF3 dx=80 dy=0 dh=80 dv=0 dx=0 dy=0 dh=0 dv=0
PairPos2: "'kern' Horizontal Kerning in Arabic lookup 0 subtable" uniFB58 dx=80 dy=0 dh=80 dv=0 dx=0 dy=0 dh=0 dv=0
EndChar

StartChar: uni0631
Encoding: 1585 1585 182
Width: 263
GlyphClass: 2
Flags: W
AnchorPoint: "Anchor-1" 101 -310 basechar 0
AnchorPoint: "Anchor-0" 153 590 basechar 0
LayerCount: 2
Fore
SplineSet
9 -221 m 0,0,1
 -4 -221 -4 -221 -18.5 -219.5 c 128,-1,2
 -33 -218 -33 -218 -47 -217 c 1,3,-1
 -38 -146 l 1,4,5
 -24 -147 -24 -147 -12 -148.5 c 128,-1,6
 0 -150 0 -150 9 -150 c 0,7,8
 56 -150 56 -150 85 -114.5 c 128,-1,9
 114 -79 114 -79 114 -16 c 2,10,-1
 114 500 l 1,11,-1
 192 500 l 1,12,-1
 192 -16 l 2,13,14
 192 -77 192 -77 168.5 -123.5 c 128,-1,15
 145 -170 145 -170 104 -195.5 c 128,-1,16
 63 -221 63 -221 9 -221 c 0,0,1
EndSplineSet
Substitution2: "'fina' Terminal Forms lookup 11 subtable" uniFEAE
PairPos2: "'kern' Horizontal Kerning in Arabic lookup 0 subtable" uniFEF3 dx=80 dy=0 dh=80 dv=0 dx=0 dy=0 dh=0 dv=0
PairPos2: "'kern' Horizontal Kerning in Arabic lookup 0 subtable" uniFB58 dx=80 dy=0 dh=80 dv=0 dx=0 dy=0 dh=0 dv=0
EndChar

StartChar: uniFEAE
Encoding: 65198 65198 183
Width: 300
GlyphClass: 2
Flags: W
AnchorPoint: "Anchor-1" 101 -310 basechar 0
AnchorPoint: "Anchor-0" 153 590 basechar 0
LayerCount: 2
Fore
SplineSet
172 0 m 1,0,-1
 172 71 l 1,1,-1
 300 71 l 1,2,-1
 300 0 l 1,3,-1
 172 0 l 1,0,-1
9 -221 m 0,4,5
 -4 -221 -4 -221 -18.5 -219.5 c 128,-1,6
 -33 -218 -33 -218 -47 -217 c 1,7,-1
 -38 -146 l 1,8,9
 -24 -147 -24 -147 -12 -148.5 c 128,-1,10
 0 -150 0 -150 9 -150 c 0,11,12
 56 -150 56 -150 85 -114.5 c 128,-1,13
 114 -79 114 -79 114 -16 c 2,14,-1
 114 500 l 1,15,-1
 192 500 l 1,16,-1
 192 -16 l 2,17,18
 192 -77 192 -77 168.5 -123.5 c 128,-1,19
 145 -170 145 -170 104 -195.5 c 128,-1,20
 63 -221 63 -221 9 -221 c 0,4,5
300 0 m 1,21,-1
 300 71 l 1,22,23
 306 71 306 71 310 68.5 c 128,-1,24
 314 66 314 66 316 61.5 c 128,-1,25
 318 57 318 57 319 50.5 c 128,-1,26
 320 44 320 44 320 36 c 256,27,28
 320 28 320 28 319 21 c 128,-1,29
 318 14 318 14 316 9.5 c 128,-1,30
 314 5 314 5 310 2.5 c 128,-1,31
 306 0 306 0 300 0 c 1,21,-1
EndSplineSet
PairPos2: "'kern' Horizontal Kerning in Arabic lookup 0 subtable" uniFEF3 dx=80 dy=0 dh=80 dv=0 dx=0 dy=0 dh=0 dv=0
PairPos2: "'kern' Horizontal Kerning in Arabic lookup 0 subtable" uniFB58 dx=80 dy=0 dh=80 dv=0 dx=0 dy=0 dh=0 dv=0
EndChar

StartChar: uni0633
Encoding: 1587 1587 190
Width: 1211
GlyphClass: 2
Flags: W
AnchorPoint: "Anchor-1" 825 -90 basechar 0
AnchorPoint: "Anchor-0" 825 590 basechar 0
LayerCount: 2
Fore
SplineSet
321 -248 m 0,0,1
 242 -248 242 -248 178 -219 c 128,-1,2
 114 -190 114 -190 77 -138 c 128,-1,3
 40 -86 40 -86 40 -19 c 0,4,5
 40 2 40 2 43.5 36.5 c 128,-1,6
 47 71 47 71 52.5 113.5 c 128,-1,7
 58 156 58 156 65 199.5 c 128,-1,8
 72 243 72 243 78 282 c 1,9,-1
 155 270 l 1,10,11
 144 201 144 201 135.5 142.5 c 128,-1,12
 127 84 127 84 122.5 42.5 c 128,-1,13
 118 1 118 1 118 -19 c 0,14,15
 118 -65 118 -65 143.5 -100.5 c 128,-1,16
 169 -136 169 -136 215 -156.5 c 128,-1,17
 261 -177 261 -177 321 -177 c 256,18,19
 381 -177 381 -177 424 -158 c 128,-1,20
 467 -139 467 -139 490 -105 c 128,-1,21
 513 -71 513 -71 513 -25 c 2,22,-1
 513 400 l 1,23,-1
 591 400 l 1,24,-1
 591 -25 l 2,25,26
 591 -95 591 -95 554.5 -145 c 128,-1,27
 518 -195 518 -195 457 -221.5 c 128,-1,28
 396 -248 396 -248 321 -248 c 0,0,1
591 0 m 1,29,-1
 591 71 l 1,30,-1
 703 71 l 2,31,32
 737 71 737 71 755 81 c 128,-1,33
 773 91 773 91 780 121 c 128,-1,34
 787 151 787 151 787 209 c 2,35,-1
 787 450 l 1,36,-1
 865 450 l 1,37,-1
 865 209 l 2,38,39
 865 131 865 131 848.5 85 c 128,-1,40
 832 39 832 39 796.5 19.5 c 128,-1,41
 761 0 761 0 703 0 c 2,42,-1
 591 0 l 1,29,-1
914 0 m 2,43,44
 880 0 880 0 847.5 13 c 128,-1,45
 815 26 815 26 784 54 c 1,46,-1
 835 107 l 1,47,48
 858 88 858 88 876.5 79.5 c 128,-1,49
 895 71 895 71 914 71 c 2,50,-1
 1092 71 l 1,51,-1
 1062 39 l 1,52,-1
 1062 278 l 2,53,54
 1062 296 1062 296 1058 329 c 128,-1,55
 1054 362 1054 362 1047.5 403.5 c 128,-1,56
 1041 445 1041 445 1033 487 c 1,57,-1
 1109 500 l 1,58,59
 1116 465 1116 465 1123 422 c 128,-1,60
 1130 379 1130 379 1134.5 340.5 c 128,-1,61
 1139 302 1139 302 1139 278 c 2,62,-1
 1139 0 l 1,63,-1
 914 0 l 2,43,44
EndSplineSet
Substitution2: "'fina' Terminal Forms lookup 11 subtable" uniFEB2
Substitution2: "'medi' Medial Forms lookup 10 subtable" uniFEB4
Substitution2: "'init' Initial Forms lookup 9 subtable" uniFEB3
PairPos2: "'kern' Horizontal Kerning in Arabic lookup 0 subtable" uniFEF3 dx=80 dy=0 dh=80 dv=0 dx=0 dy=0 dh=0 dv=0
PairPos2: "'kern' Horizontal Kerning in Arabic lookup 0 subtable" uniFB58 dx=80 dy=0 dh=80 dv=0 dx=0 dy=0 dh=0 dv=0
EndChar

StartChar: uniFEB2
Encoding: 65202 65202 191
Width: 1247
GlyphClass: 2
Flags: W
AnchorPoint: "Anchor-1" 825 -90 basechar 0
AnchorPoint: "Anchor-0" 825 590 basechar 0
LayerCount: 2
Fore
SplineSet
1139 0 m 1,0,-1
 1139 71 l 1,1,-1
 1247 71 l 1,2,-1
 1247 0 l 1,3,-1
 1139 0 l 1,0,-1
321 -248 m 0,4,5
 242 -248 242 -248 178 -219 c 128,-1,6
 114 -190 114 -190 77 -138 c 128,-1,7
 40 -86 40 -86 40 -19 c 0,8,9
 40 2 40 2 43.5 36.5 c 128,-1,10
 47 71 47 71 52.5 113.5 c 128,-1,11
 58 156 58 156 65 199.5 c 128,-1,12
 72 243 72 243 78 282 c 1,13,-1
 155 270 l 1,14,15
 144 201 144 201 135.5 142.5 c 128,-1,16
 127 84 127 84 122.5 42.5 c 128,-1,17
 118 1 118 1 118 -19 c 0,18,19
 118 -65 118 -65 143.5 -100.5 c 128,-1,20
 169 -136 169 -136 215 -156.5 c 128,-1,21
 261 -177 261 -177 321 -177 c 256,22,23
 381 -177 381 -177 424 -158 c 128,-1,24
 467 -139 467 -139 490 -105 c 128,-1,25
 513 -71 513 -71 513 -25 c 2,26,-1
 513 400 l 1,27,-1
 591 400 l 1,28,-1
 591 -25 l 2,29,30
 591 -95 591 -95 554.5 -145 c 128,-1,31
 518 -195 518 -195 457 -221.5 c 128,-1,32
 396 -248 396 -248 321 -248 c 0,4,5
591 0 m 1,33,-1
 591 71 l 1,34,-1
 703 71 l 2,35,36
 737 71 737 71 755 81 c 128,-1,37
 773 91 773 91 780 121 c 128,-1,38
 787 151 787 151 787 209 c 2,39,-1
 787 450 l 1,40,-1
 865 450 l 1,41,-1
 865 209 l 2,42,43
 865 131 865 131 848.5 85 c 128,-1,44
 832 39 832 39 796.5 19.5 c 128,-1,45
 761 0 761 0 703 0 c 2,46,-1
 591 0 l 1,33,-1
914 0 m 2,47,48
 880 0 880 0 847.5 13 c 128,-1,49
 815 26 815 26 784 54 c 1,50,-1
 835 107 l 1,51,52
 858 88 858 88 876.5 79.5 c 128,-1,53
 895 71 895 71 914 71 c 2,54,-1
 1092 71 l 1,55,-1
 1062 39 l 1,56,-1
 1062 278 l 2,57,58
 1062 296 1062 296 1058 329 c 128,-1,59
 1054 362 1054 362 1047.5 403.5 c 128,-1,60
 1041 445 1041 445 1033 487 c 1,61,-1
 1109 500 l 1,62,63
 1116 465 1116 465 1123 422 c 128,-1,64
 1130 379 1130 379 1134.5 340.5 c 128,-1,65
 1139 302 1139 302 1139 278 c 2,66,-1
 1139 0 l 1,67,-1
 914 0 l 2,47,48
1247 0 m 1,68,-1
 1247 71 l 1,69,70
 1253 71 1253 71 1257 68.5 c 128,-1,71
 1261 66 1261 66 1263 61.5 c 128,-1,72
 1265 57 1265 57 1266 50.5 c 128,-1,73
 1267 44 1267 44 1267 36 c 256,74,75
 1267 28 1267 28 1266 21 c 128,-1,76
 1265 14 1265 14 1263 9.5 c 128,-1,77
 1261 5 1261 5 1257 2.5 c 128,-1,78
 1253 0 1253 0 1247 0 c 1,68,-1
EndSplineSet
PairPos2: "'kern' Horizontal Kerning in Arabic lookup 0 subtable" uniFEF3 dx=80 dy=0 dh=80 dv=0 dx=0 dy=0 dh=0 dv=0
PairPos2: "'kern' Horizontal Kerning in Arabic lookup 0 subtable" uniFB58 dx=80 dy=0 dh=80 dv=0 dx=0 dy=0 dh=0 dv=0
EndChar

StartChar: uniFEB4
Encoding: 65204 65204 192
Width: 860
GlyphClass: 2
Flags: W
AnchorPoint: "Anchor-1" 438 -90 basechar 0
AnchorPoint: "Anchor-0" 438 590 basechar 0
LayerCount: 2
Fore
SplineSet
752 0 m 1,0,-1
 752 71 l 1,1,-1
 860 71 l 1,2,-1
 860 0 l 1,3,-1
 752 0 l 1,0,-1
0 0 m 1,4,5
 -6 0 -6 0 -10 2.5 c 128,-1,6
 -14 5 -14 5 -16 9.5 c 128,-1,7
 -18 14 -18 14 -19 21 c 128,-1,8
 -20 28 -20 28 -20 36 c 0,9,10
 -20 47 -20 47 -18.5 54.5 c 128,-1,11
 -17 62 -17 62 -12.5 66.5 c 128,-1,12
 -8 71 -8 71 0 71 c 1,13,-1
 0 0 l 1,4,5
526 0 m 2,14,15
 492 0 492 0 459.5 13 c 128,-1,16
 427 26 427 26 397 54 c 1,17,-1
 448 107 l 1,18,19
 471 88 471 88 489 79.5 c 128,-1,20
 507 71 507 71 526 71 c 2,21,-1
 704 71 l 1,22,-1
 674 39 l 1,23,-1
 674 278 l 2,24,25
 674 296 674 296 670.5 329 c 128,-1,26
 667 362 667 362 660.5 403.5 c 128,-1,27
 654 445 654 445 645 487 c 1,28,-1
 721 500 l 1,29,30
 728 465 728 465 735 422 c 128,-1,31
 742 379 742 379 747 340.5 c 128,-1,32
 752 302 752 302 752 278 c 2,33,-1
 752 0 l 1,34,-1
 526 0 l 2,14,15
0 0 m 1,35,-1
 0 71 l 1,36,-1
 146 71 l 1,37,-1
 126 51 l 1,38,-1
 126 400 l 1,39,-1
 203 400 l 1,40,-1
 203 0 l 1,41,-1
 0 0 l 1,35,-1
203 0 m 1,42,-1
 203 71 l 1,43,-1
 316 71 l 2,44,45
 350 71 350 71 367.5 81 c 128,-1,46
 385 91 385 91 392 121 c 128,-1,47
 399 151 399 151 399 209 c 2,48,-1
 399 450 l 1,49,-1
 477 450 l 1,50,-1
 477 209 l 2,51,52
 477 131 477 131 460.5 85 c 128,-1,53
 444 39 444 39 409 19.5 c 128,-1,54
 374 0 374 0 316 0 c 2,55,-1
 203 0 l 1,42,-1
860 0 m 1,56,-1
 860 71 l 1,57,58
 866 71 866 71 870 68.5 c 128,-1,59
 874 66 874 66 876 61.5 c 128,-1,60
 878 57 878 57 879 50.5 c 128,-1,61
 880 44 880 44 880 36 c 256,62,63
 880 28 880 28 879 21 c 128,-1,64
 878 14 878 14 876 9.5 c 128,-1,65
 874 5 874 5 870 2.5 c 128,-1,66
 866 0 866 0 860 0 c 1,56,-1
EndSplineSet
PairPos2: "'kern' Horizontal Kerning in Arabic lookup 0 subtable" uniFEF3 dx=80 dy=0 dh=80 dv=0 dx=0 dy=0 dh=0 dv=0
PairPos2: "'kern' Horizontal Kerning in Arabic lookup 0 subtable" uniFB58 dx=80 dy=0 dh=80 dv=0 dx=0 dy=0 dh=0 dv=0
EndChar

StartChar: uniFEB3
Encoding: 65203 65203 193
Width: 827
GlyphClass: 2
Flags: W
AnchorPoint: "Anchor-1" 438 -90 basechar 0
AnchorPoint: "Anchor-0" 438 590 basechar 0
LayerCount: 2
Fore
SplineSet
526 0 m 2,0,1
 492 0 492 0 459.5 13 c 128,-1,2
 427 26 427 26 397 54 c 1,3,-1
 448 107 l 1,4,5
 471 88 471 88 489 79.5 c 128,-1,6
 507 71 507 71 526 71 c 2,7,-1
 704 71 l 1,8,-1
 674 39 l 1,9,-1
 674 278 l 2,10,11
 674 296 674 296 670.5 329 c 128,-1,12
 667 362 667 362 660.5 403.5 c 128,-1,13
 654 445 654 445 645 487 c 1,14,-1
 721 500 l 1,15,16
 728 465 728 465 735 422 c 128,-1,17
 742 379 742 379 747 340.5 c 128,-1,18
 752 302 752 302 752 278 c 2,19,-1
 752 0 l 1,20,-1
 526 0 l 2,0,1
0 0 m 1,21,-1
 0 71 l 1,22,-1
 146 71 l 1,23,-1
 126 51 l 1,24,-1
 126 400 l 1,25,-1
 203 400 l 1,26,-1
 203 0 l 1,27,-1
 0 0 l 1,21,-1
203 0 m 1,28,-1
 203 71 l 1,29,-1
 316 71 l 2,30,31
 350 71 350 71 367.5 81 c 128,-1,32
 385 91 385 91 392 121 c 128,-1,33
 399 151 399 151 399 209 c 2,34,-1
 399 450 l 1,35,-1
 477 450 l 1,36,-1
 477 209 l 2,37,38
 477 131 477 131 460.5 85 c 128,-1,39
 444 39 444 39 409 19.5 c 128,-1,40
 374 0 374 0 316 0 c 2,41,-1
 203 0 l 1,28,-1
0 0 m 1,42,43
 -6 0 -6 0 -10 2.5 c 128,-1,44
 -14 5 -14 5 -16 9.5 c 128,-1,45
 -18 14 -18 14 -19 21 c 128,-1,46
 -20 28 -20 28 -20 36 c 0,47,48
 -20 47 -20 47 -18.5 54.5 c 128,-1,49
 -17 62 -17 62 -12.5 66.5 c 128,-1,50
 -8 71 -8 71 0 71 c 1,51,-1
 0 0 l 1,42,43
EndSplineSet
PairPos2: "'kern' Horizontal Kerning in Arabic lookup 0 subtable" uniFEF3 dx=80 dy=0 dh=80 dv=0 dx=0 dy=0 dh=0 dv=0
PairPos2: "'kern' Horizontal Kerning in Arabic lookup 0 subtable" uniFB58 dx=80 dy=0 dh=80 dv=0 dx=0 dy=0 dh=0 dv=0
EndChar

StartChar: uni0635
Encoding: 1589 1589 198
Width: 1191
GlyphClass: 2
Flags: W
AnchorPoint: "Anchor-1" 825 -90 basechar 0
AnchorPoint: "Anchor-0" 825 589 basechar 0
LayerCount: 2
Fore
SplineSet
321 -248 m 0,0,1
 242 -248 242 -248 178 -219 c 128,-1,2
 114 -190 114 -190 77 -138 c 128,-1,3
 40 -86 40 -86 40 -19 c 0,4,5
 40 2 40 2 43.5 36.5 c 128,-1,6
 47 71 47 71 52.5 113.5 c 128,-1,7
 58 156 58 156 65 199.5 c 128,-1,8
 72 243 72 243 78 282 c 1,9,-1
 155 270 l 1,10,11
 144 201 144 201 135.5 142.5 c 128,-1,12
 127 84 127 84 122.5 42.5 c 128,-1,13
 118 1 118 1 118 -19 c 0,14,15
 118 -65 118 -65 143.5 -100.5 c 128,-1,16
 169 -136 169 -136 215 -156.5 c 128,-1,17
 261 -177 261 -177 321 -177 c 256,18,19
 381 -177 381 -177 424 -158 c 128,-1,20
 467 -139 467 -139 490 -105 c 128,-1,21
 513 -71 513 -71 513 -25 c 2,22,-1
 513 500 l 1,23,-1
 591 500 l 1,24,-1
 591 -25 l 2,25,26
 591 -95 591 -95 554.5 -145 c 128,-1,27
 518 -195 518 -195 457 -221.5 c 128,-1,28
 396 -248 396 -248 321 -248 c 0,0,1
591 0 m 1,29,-1
 591 71 l 1,30,-1
 1110 71 l 1,31,-1
 1038 6 l 1,32,-1
 1038 241 l 2,33,34
 1038 304 1038 304 1020.5 345.5 c 128,-1,35
 1003 387 1003 387 968.5 408 c 128,-1,36
 934 429 934 429 882 429 c 0,37,38
 838 429 838 429 800.5 414.5 c 128,-1,39
 763 400 763 400 731 376.5 c 128,-1,40
 699 353 699 353 671.5 324.5 c 128,-1,41
 644 296 644 296 621 267 c 128,-1,42
 598 238 598 238 579 214 c 1,43,-1
 553 285 l 1,44,45
 578 316 578 316 603.5 347 c 128,-1,46
 629 378 629 378 657 405.5 c 128,-1,47
 685 433 685 433 718.5 454 c 128,-1,48
 752 475 752 475 792 487.5 c 128,-1,49
 832 500 832 500 882 500 c 0,50,51
 953 500 953 500 998.5 476 c 128,-1,52
 1044 452 1044 452 1069.5 412.5 c 128,-1,53
 1095 373 1095 373 1105 328 c 128,-1,54
 1115 283 1115 283 1115 241 c 2,55,-1
 1115 0 l 1,56,-1
 591 0 l 1,29,-1
EndSplineSet
Substitution2: "'fina' Terminal Forms lookup 11 subtable" uniFEBA
Substitution2: "'medi' Medial Forms lookup 10 subtable" uniFEBC
Substitution2: "'init' Initial Forms lookup 9 subtable" uniFEBB
PairPos2: "'kern' Horizontal Kerning in Arabic lookup 0 subtable" uniFEF3 dx=80 dy=0 dh=80 dv=0 dx=0 dy=0 dh=0 dv=0
PairPos2: "'kern' Horizontal Kerning in Arabic lookup 0 subtable" uniFB58 dx=80 dy=0 dh=80 dv=0 dx=0 dy=0 dh=0 dv=0
EndChar

StartChar: uniFEBA
Encoding: 65210 65210 199
Width: 1224
GlyphClass: 2
Flags: W
AnchorPoint: "Anchor-1" 825 -90 basechar 0
AnchorPoint: "Anchor-0" 825 589 basechar 0
LayerCount: 2
Fore
SplineSet
1115 0 m 1,0,-1
 1115 71 l 1,1,-1
 1224 71 l 1,2,-1
 1224 0 l 1,3,-1
 1115 0 l 1,0,-1
321 -248 m 0,4,5
 242 -248 242 -248 178 -219 c 128,-1,6
 114 -190 114 -190 77 -138 c 128,-1,7
 40 -86 40 -86 40 -19 c 0,8,9
 40 2 40 2 43.5 36.5 c 128,-1,10
 47 71 47 71 52.5 113.5 c 128,-1,11
 58 156 58 156 65 199.5 c 128,-1,12
 72 243 72 243 78 282 c 1,13,-1
 155 270 l 1,14,15
 144 201 144 201 135.5 142.5 c 128,-1,16
 127 84 127 84 122.5 42.5 c 128,-1,17
 118 1 118 1 118 -19 c 0,18,19
 118 -65 118 -65 143.5 -100.5 c 128,-1,20
 169 -136 169 -136 215 -156.5 c 128,-1,21
 261 -177 261 -177 321 -177 c 256,22,23
 381 -177 381 -177 424 -158 c 128,-1,24
 467 -139 467 -139 490 -105 c 128,-1,25
 513 -71 513 -71 513 -25 c 2,26,-1
 513 500 l 1,27,-1
 591 500 l 1,28,-1
 591 -25 l 2,29,30
 591 -95 591 -95 554.5 -145 c 128,-1,31
 518 -195 518 -195 457 -221.5 c 128,-1,32
 396 -248 396 -248 321 -248 c 0,4,5
591 0 m 1,33,-1
 591 71 l 1,34,-1
 1110 71 l 1,35,-1
 1038 6 l 1,36,-1
 1038 241 l 2,37,38
 1038 304 1038 304 1020.5 345.5 c 128,-1,39
 1003 387 1003 387 968.5 408 c 128,-1,40
 934 429 934 429 882 429 c 0,41,42
 838 429 838 429 800.5 414.5 c 128,-1,43
 763 400 763 400 731 376.5 c 128,-1,44
 699 353 699 353 671.5 324.5 c 128,-1,45
 644 296 644 296 621 267 c 128,-1,46
 598 238 598 238 579 214 c 1,47,-1
 553 285 l 1,48,49
 578 316 578 316 603.5 347 c 128,-1,50
 629 378 629 378 657 405.5 c 128,-1,51
 685 433 685 433 718.5 454 c 128,-1,52
 752 475 752 475 792 487.5 c 128,-1,53
 832 500 832 500 882 500 c 0,54,55
 953 500 953 500 998.5 476 c 128,-1,56
 1044 452 1044 452 1069.5 412.5 c 128,-1,57
 1095 373 1095 373 1105 328 c 128,-1,58
 1115 283 1115 283 1115 241 c 2,59,-1
 1115 0 l 1,60,-1
 591 0 l 1,33,-1
1224 0 m 1,61,-1
 1224 71 l 1,62,63
 1230 71 1230 71 1234 68.5 c 128,-1,64
 1238 66 1238 66 1240 61.5 c 128,-1,65
 1242 57 1242 57 1243 50.5 c 128,-1,66
 1244 44 1244 44 1244 36 c 256,67,68
 1244 28 1244 28 1243 21 c 128,-1,69
 1242 14 1242 14 1240 9.5 c 128,-1,70
 1238 5 1238 5 1234 2.5 c 128,-1,71
 1230 0 1230 0 1224 0 c 1,61,-1
EndSplineSet
PairPos2: "'kern' Horizontal Kerning in Arabic lookup 0 subtable" uniFEF3 dx=80 dy=0 dh=80 dv=0 dx=0 dy=0 dh=0 dv=0
PairPos2: "'kern' Horizontal Kerning in Arabic lookup 0 subtable" uniFB58 dx=80 dy=0 dh=80 dv=0 dx=0 dy=0 dh=0 dv=0
EndChar

StartChar: uniFEBC
Encoding: 65212 65212 200
Width: 853
GlyphClass: 2
Flags: W
AnchorPoint: "Anchor-1" 454 -90 basechar 0
AnchorPoint: "Anchor-0" 454 589 basechar 0
LayerCount: 2
Fore
SplineSet
745 0 m 1,0,-1
 745 71 l 1,1,-1
 853 71 l 1,2,-1
 853 0 l 1,3,-1
 745 0 l 1,0,-1
0 0 m 1,4,5
 -6 0 -6 0 -10 2.5 c 128,-1,6
 -14 5 -14 5 -16 9.5 c 128,-1,7
 -18 14 -18 14 -19 21 c 128,-1,8
 -20 28 -20 28 -20 36 c 0,9,10
 -20 47 -20 47 -18.5 54.5 c 128,-1,11
 -17 62 -17 62 -12.5 66.5 c 128,-1,12
 -8 71 -8 71 0 71 c 1,13,-1
 0 0 l 1,4,5
0 0 m 1,14,-1
 0 71 l 1,15,-1
 739 71 l 1,16,-1
 667 6 l 1,17,-1
 667 241 l 2,18,19
 667 304 667 304 649.5 345.5 c 128,-1,20
 632 387 632 387 597.5 408 c 128,-1,21
 563 429 563 429 511 429 c 0,22,23
 467 429 467 429 429.5 414.5 c 128,-1,24
 392 400 392 400 360 376.5 c 128,-1,25
 328 353 328 353 300.5 324.5 c 128,-1,26
 273 296 273 296 250 267 c 128,-1,27
 227 238 227 238 208 214 c 1,28,-1
 183 285 l 1,29,30
 208 316 208 316 233.5 347 c 128,-1,31
 259 378 259 378 287 405.5 c 128,-1,32
 315 433 315 433 348.5 454 c 128,-1,33
 382 475 382 475 422 487.5 c 128,-1,34
 462 500 462 500 512 500 c 0,35,36
 583 500 583 500 628.5 476 c 128,-1,37
 674 452 674 452 699.5 412.5 c 128,-1,38
 725 373 725 373 735 328 c 128,-1,39
 745 283 745 283 745 241 c 2,40,-1
 745 0 l 1,41,-1
 0 0 l 1,14,-1
142 71 m 1,42,-1
 142 500 l 1,43,-1
 220 500 l 1,44,-1
 220 71 l 1,45,-1
 142 71 l 1,42,-1
853 0 m 1,46,-1
 853 71 l 1,47,48
 859 71 859 71 863 68.5 c 128,-1,49
 867 66 867 66 869 61.5 c 128,-1,50
 871 57 871 57 872 50.5 c 128,-1,51
 873 44 873 44 873 36 c 256,52,53
 873 28 873 28 872 21 c 128,-1,54
 871 14 871 14 869 9.5 c 128,-1,55
 867 5 867 5 863 2.5 c 128,-1,56
 859 0 859 0 853 0 c 1,46,-1
EndSplineSet
PairPos2: "'kern' Horizontal Kerning in Arabic lookup 0 subtable" uniFEF3 dx=80 dy=0 dh=80 dv=0 dx=0 dy=0 dh=0 dv=0
PairPos2: "'kern' Horizontal Kerning in Arabic lookup 0 subtable" uniFB58 dx=80 dy=0 dh=80 dv=0 dx=0 dy=0 dh=0 dv=0
EndChar

StartChar: uniFEBB
Encoding: 65211 65211 201
Width: 820
GlyphClass: 2
Flags: W
AnchorPoint: "Anchor-1" 454 -90 basechar 0
AnchorPoint: "Anchor-0" 454 589 basechar 0
LayerCount: 2
Fore
SplineSet
0 0 m 1,0,-1
 0 71 l 1,1,-1
 739 71 l 1,2,-1
 667 6 l 1,3,-1
 667 241 l 2,4,5
 667 304 667 304 649.5 345.5 c 128,-1,6
 632 387 632 387 597.5 408 c 128,-1,7
 563 429 563 429 511 429 c 0,8,9
 467 429 467 429 429.5 414.5 c 128,-1,10
 392 400 392 400 360 376.5 c 128,-1,11
 328 353 328 353 300.5 324.5 c 128,-1,12
 273 296 273 296 250 267 c 128,-1,13
 227 238 227 238 208 214 c 1,14,-1
 183 285 l 1,15,16
 208 316 208 316 233.5 347 c 128,-1,17
 259 378 259 378 287 405.5 c 128,-1,18
 315 433 315 433 348.5 454 c 128,-1,19
 382 475 382 475 422 487.5 c 128,-1,20
 462 500 462 500 512 500 c 0,21,22
 583 500 583 500 628.5 476 c 128,-1,23
 674 452 674 452 699.5 412.5 c 128,-1,24
 725 373 725 373 735 328 c 128,-1,25
 745 283 745 283 745 241 c 2,26,-1
 745 0 l 1,27,-1
 0 0 l 1,0,-1
142 71 m 1,28,-1
 142 500 l 1,29,-1
 220 500 l 1,30,-1
 220 71 l 1,31,-1
 142 71 l 1,28,-1
0 0 m 1,32,33
 -6 0 -6 0 -10 2.5 c 128,-1,34
 -14 5 -14 5 -16 9.5 c 128,-1,35
 -18 14 -18 14 -19 21 c 128,-1,36
 -20 28 -20 28 -20 36 c 0,37,38
 -20 47 -20 47 -18.5 54.5 c 128,-1,39
 -17 62 -17 62 -12.5 66.5 c 128,-1,40
 -8 71 -8 71 0 71 c 1,41,-1
 0 0 l 1,32,33
EndSplineSet
PairPos2: "'kern' Horizontal Kerning in Arabic lookup 0 subtable" uniFEF3 dx=80 dy=0 dh=80 dv=0 dx=0 dy=0 dh=0 dv=0
PairPos2: "'kern' Horizontal Kerning in Arabic lookup 0 subtable" uniFB58 dx=80 dy=0 dh=80 dv=0 dx=0 dy=0 dh=0 dv=0
EndChar

StartChar: uni0637
Encoding: 1591 1591 206
Width: 764
GlyphClass: 2
Flags: W
AnchorPoint: "Anchor-1" 398 -90 basechar 0
AnchorPoint: "Anchor-0" 398 590 basechar 0
LayerCount: 2
Fore
SplineSet
20 0 m 1,0,-1
 20 71 l 1,1,-1
 683 71 l 1,2,-1
 611 6 l 1,3,-1
 611 241 l 2,4,5
 611 304 611 304 593.5 345.5 c 128,-1,6
 576 387 576 387 541.5 408 c 128,-1,7
 507 429 507 429 455 429 c 0,8,9
 411 429 411 429 373.5 414.5 c 128,-1,10
 336 400 336 400 304 376.5 c 128,-1,11
 272 353 272 353 244.5 324.5 c 128,-1,12
 217 296 217 296 194 267 c 128,-1,13
 171 238 171 238 152 214 c 1,14,-1
 126 285 l 1,15,16
 157 324 157 324 189 362 c 128,-1,17
 221 400 221 400 259 431 c 128,-1,18
 297 462 297 462 345 481 c 128,-1,19
 393 500 393 500 455 500 c 0,20,21
 526 500 526 500 571.5 476 c 128,-1,22
 617 452 617 452 642.5 412.5 c 128,-1,23
 668 373 668 373 678 328 c 128,-1,24
 688 283 688 283 688 241 c 2,25,-1
 688 0 l 1,26,-1
 20 0 l 1,0,-1
86 71 m 1,27,-1
 86 717 l 1,28,-1
 164 717 l 1,29,-1
 164 71 l 1,30,-1
 86 71 l 1,27,-1
EndSplineSet
Substitution2: "'fina' Terminal Forms lookup 11 subtable" uniFEC2
Substitution2: "'medi' Medial Forms lookup 10 subtable" uniFEC4
Substitution2: "'init' Initial Forms lookup 9 subtable" uniFEC3
PairPos2: "'kern' Horizontal Kerning in Arabic lookup 0 subtable" uniFEF3 dx=80 dy=0 dh=80 dv=0 dx=0 dy=0 dh=0 dv=0
PairPos2: "'kern' Horizontal Kerning in Arabic lookup 0 subtable" uniFB58 dx=80 dy=0 dh=80 dv=0 dx=0 dy=0 dh=0 dv=0
EndChar

StartChar: uniFEC2
Encoding: 65218 65218 207
Width: 797
GlyphClass: 2
Flags: W
AnchorPoint: "Anchor-1" 398 -90 basechar 0
AnchorPoint: "Anchor-0" 398 590 basechar 0
LayerCount: 2
Fore
SplineSet
688 0 m 1,0,-1
 688 71 l 1,1,-1
 797 71 l 1,2,-1
 797 0 l 1,3,-1
 688 0 l 1,0,-1
20 0 m 1,4,-1
 20 71 l 1,5,-1
 683 71 l 1,6,-1
 611 6 l 1,7,-1
 611 241 l 2,8,9
 611 304 611 304 593.5 345.5 c 128,-1,10
 576 387 576 387 541.5 408 c 128,-1,11
 507 429 507 429 455 429 c 0,12,13
 411 429 411 429 373.5 414.5 c 128,-1,14
 336 400 336 400 304 376.5 c 128,-1,15
 272 353 272 353 244.5 324.5 c 128,-1,16
 217 296 217 296 194 267 c 128,-1,17
 171 238 171 238 152 214 c 1,18,-1
 126 285 l 1,19,20
 157 324 157 324 189 362 c 128,-1,21
 221 400 221 400 259 431 c 128,-1,22
 297 462 297 462 345 481 c 128,-1,23
 393 500 393 500 455 500 c 0,24,25
 526 500 526 500 571.5 476 c 128,-1,26
 617 452 617 452 642.5 412.5 c 128,-1,27
 668 373 668 373 678 328 c 128,-1,28
 688 283 688 283 688 241 c 2,29,-1
 688 0 l 1,30,-1
 20 0 l 1,4,-1
86 71 m 1,31,-1
 86 717 l 1,32,-1
 164 717 l 1,33,-1
 164 71 l 1,34,-1
 86 71 l 1,31,-1
797 0 m 1,35,-1
 797 71 l 1,36,37
 803 71 803 71 807 68.5 c 128,-1,38
 811 66 811 66 813 61.5 c 128,-1,39
 815 57 815 57 816 50.5 c 128,-1,40
 817 44 817 44 817 36 c 256,41,42
 817 28 817 28 816 21 c 128,-1,43
 815 14 815 14 813 9.5 c 128,-1,44
 811 5 811 5 807 2.5 c 128,-1,45
 803 0 803 0 797 0 c 1,35,-1
EndSplineSet
PairPos2: "'kern' Horizontal Kerning in Arabic lookup 0 subtable" uniFEF3 dx=80 dy=0 dh=80 dv=0 dx=0 dy=0 dh=0 dv=0
PairPos2: "'kern' Horizontal Kerning in Arabic lookup 0 subtable" uniFB58 dx=80 dy=0 dh=80 dv=0 dx=0 dy=0 dh=0 dv=0
EndChar

StartChar: uniFEC4
Encoding: 65220 65220 208
Width: 749
GlyphClass: 2
Flags: W
AnchorPoint: "Anchor-1" 378 -90 basechar 0
AnchorPoint: "Anchor-0" 378 590 basechar 0
LayerCount: 2
Fore
SplineSet
641 0 m 1,0,-1
 641 71 l 1,1,-1
 749 71 l 1,2,-1
 749 0 l 1,3,-1
 641 0 l 1,0,-1
0 0 m 1,4,-1
 0 71 l 1,5,-1
 663 71 l 1,6,-1
 591 6 l 1,7,-1
 591 241 l 2,8,9
 591 304 591 304 573.5 345.5 c 128,-1,10
 556 387 556 387 521.5 408 c 128,-1,11
 487 429 487 429 435 429 c 0,12,13
 391 429 391 429 353.5 414.5 c 128,-1,14
 316 400 316 400 284 376.5 c 128,-1,15
 252 353 252 353 224.5 324.5 c 128,-1,16
 197 296 197 296 174 267 c 128,-1,17
 151 238 151 238 132 214 c 1,18,-1
 106 285 l 1,19,20
 137 324 137 324 169 362 c 128,-1,21
 201 400 201 400 239 431 c 128,-1,22
 277 462 277 462 325 481 c 128,-1,23
 373 500 373 500 435 500 c 0,24,25
 506 500 506 500 551.5 476 c 128,-1,26
 597 452 597 452 622.5 412.5 c 128,-1,27
 648 373 648 373 658 328 c 128,-1,28
 668 283 668 283 668 241 c 2,29,-1
 668 0 l 1,30,-1
 0 0 l 1,4,-1
66 71 m 1,31,-1
 66 717 l 1,32,-1
 144 717 l 1,33,-1
 144 71 l 1,34,-1
 66 71 l 1,31,-1
0 0 m 1,35,36
 -6 0 -6 0 -10 2.5 c 128,-1,37
 -14 5 -14 5 -16 9.5 c 128,-1,38
 -18 14 -18 14 -19 21 c 128,-1,39
 -20 28 -20 28 -20 36 c 0,40,41
 -20 47 -20 47 -18.5 54.5 c 128,-1,42
 -17 62 -17 62 -12.5 66.5 c 128,-1,43
 -8 71 -8 71 0 71 c 1,44,-1
 0 0 l 1,35,36
749 0 m 1,45,-1
 749 71 l 1,46,47
 755 71 755 71 759 68.5 c 128,-1,48
 763 66 763 66 765 61.5 c 128,-1,49
 767 57 767 57 768 50.5 c 128,-1,50
 769 44 769 44 769 36 c 256,51,52
 769 28 769 28 768 21 c 128,-1,53
 767 14 767 14 765 9.5 c 128,-1,54
 763 5 763 5 759 2.5 c 128,-1,55
 755 0 755 0 749 0 c 1,45,-1
EndSplineSet
PairPos2: "'kern' Horizontal Kerning in Arabic lookup 0 subtable" uniFEF3 dx=80 dy=0 dh=80 dv=0 dx=0 dy=0 dh=0 dv=0
PairPos2: "'kern' Horizontal Kerning in Arabic lookup 0 subtable" uniFB58 dx=80 dy=0 dh=80 dv=0 dx=0 dy=0 dh=0 dv=0
EndChar

StartChar: uni0639
Encoding: 1593 1593 214
Width: 552
GlyphClass: 2
Flags: W
AnchorPoint: "Anchor-1" 296 -400 basechar 0
AnchorPoint: "Anchor-0" 302 590 basechar 0
LayerCount: 2
Fore
SplineSet
277 -318 m 0,0,1
 204 -318 204 -318 150.5 -295.5 c 128,-1,2
 97 -273 97 -273 68.5 -229 c 128,-1,3
 40 -185 40 -185 40 -123 c 256,4,5
 40 -61 40 -61 68.5 -17.5 c 128,-1,6
 97 26 97 26 150.5 48.5 c 128,-1,7
 204 71 204 71 278 71 c 2,8,-1
 481 71 l 1,9,-1
 481 0 l 1,10,-1
 278 0 l 2,11,12
 195 0 195 0 156.5 -31.5 c 128,-1,13
 118 -63 118 -63 118 -124 c 0,14,15
 118 -184 118 -184 156.5 -215.5 c 128,-1,16
 195 -247 195 -247 277 -247 c 0,17,18
 302 -247 302 -247 338 -244 c 128,-1,19
 374 -241 374 -241 426 -234 c 1,20,-1
 438 -297 l 1,21,22
 391 -307 391 -307 351.5 -312.5 c 128,-1,23
 312 -318 312 -318 277 -318 c 0,0,1
189 3 m 1,24,25
 135 49 135 49 106.5 108.5 c 128,-1,26
 78 168 78 168 78 235 c 0,27,28
 78 292 78 292 98 340.5 c 128,-1,29
 118 389 118 389 153 425 c 128,-1,30
 188 461 188 461 236 480.5 c 128,-1,31
 284 500 284 500 339 500 c 0,32,33
 368 500 368 500 401.5 494 c 128,-1,34
 435 488 435 488 466 477 c 1,35,-1
 439 410 l 1,36,37
 414 419 414 419 388.5 424 c 128,-1,38
 363 429 363 429 340 429 c 0,39,40
 286 429 286 429 244.5 404 c 128,-1,41
 203 379 203 379 179 335.5 c 128,-1,42
 155 292 155 292 155 235 c 0,43,44
 155 183 155 183 177 137.5 c 128,-1,45
 199 92 199 92 239 57 c 1,46,-1
 189 3 l 1,24,25
EndSplineSet
Substitution2: "'fina' Terminal Forms lookup 11 subtable" uniFECA
Substitution2: "'medi' Medial Forms lookup 10 subtable" uniFECC
Substitution2: "'init' Initial Forms lookup 9 subtable" uniFECB
PairPos2: "'kern' Horizontal Kerning in Arabic lookup 0 subtable" uniFEF3 dx=80 dy=0 dh=80 dv=0 dx=0 dy=0 dh=0 dv=0
PairPos2: "'kern' Horizontal Kerning in Arabic lookup 0 subtable" uniFB58 dx=80 dy=0 dh=80 dv=0 dx=0 dy=0 dh=0 dv=0
EndChar

StartChar: uniFECA
Encoding: 65226 65226 215
Width: 631
GlyphClass: 2
Flags: W
AnchorPoint: "Anchor-1" 288 -400 basechar 0
AnchorPoint: "Anchor-0" 318 590 basechar 0
LayerCount: 2
Fore
SplineSet
426 -233 m 1,0,-1
 438 -297 l 1,1,2
 391 -307 391 -307 351.5 -312.5 c 128,-1,3
 312 -318 312 -318 277 -318 c 0,4,5
 204 -318 204 -318 150.5 -295.5 c 128,-1,6
 97 -273 97 -273 68.5 -229 c 128,-1,7
 40 -185 40 -185 40 -123 c 0,8,9
 40 -75 40 -75 57 -34 c 128,-1,10
 74 7 74 7 106 37.5 c 128,-1,11
 138 68 138 68 183 86 c 2,12,-1
 214 99 l 2,13,14
 253 115 253 115 293 135 c 128,-1,15
 333 155 333 155 370 179.5 c 128,-1,16
 407 204 407 204 436 233.5 c 128,-1,17
 465 263 465 263 482 297.5 c 128,-1,18
 499 332 499 332 499 372 c 2,19,-1
 499 432 l 1,20,-1
 541 369 l 1,21,22
 484 399 484 399 427.5 414 c 128,-1,23
 371 429 371 429 318 429 c 256,24,25
 265 429 265 429 209 414 c 128,-1,26
 153 399 153 399 96 369 c 1,27,-1
 138 432 l 1,28,-1
 138 372 l 2,29,30
 138 336 138 336 157 295 c 128,-1,31
 176 254 176 254 209.5 214.5 c 128,-1,32
 243 175 243 175 289 142.5 c 128,-1,33
 335 110 335 110 390 90.5 c 128,-1,34
 445 71 445 71 505 71 c 2,35,-1
 631 71 l 1,36,-1
 631 0 l 1,37,-1
 505 0 l 2,38,39
 427 0 427 0 359 25 c 128,-1,40
 291 50 291 50 236 91.5 c 128,-1,41
 181 133 181 133 141.5 182.5 c 128,-1,42
 102 232 102 232 81 281.5 c 128,-1,43
 60 331 60 331 60 372 c 2,44,-1
 60 432 l 1,45,46
 103 455 103 455 147 470 c 128,-1,47
 191 485 191 485 234.5 492.5 c 128,-1,48
 278 500 278 500 318 500 c 0,49,50
 359 500 359 500 402 492.5 c 128,-1,51
 445 485 445 485 489 470 c 128,-1,52
 533 455 533 455 576 432 c 1,53,-1
 576 372 l 2,54,55
 576 313 576 313 552 265.5 c 128,-1,56
 528 218 528 218 489.5 181 c 128,-1,57
 451 144 451 144 406 116 c 128,-1,58
 361 88 361 88 319 68 c 0,59,60
 309 64 309 64 292.5 56.5 c 128,-1,61
 276 49 276 49 258.5 41 c 128,-1,62
 241 33 241 33 227.5 27.5 c 128,-1,63
 214 22 214 22 211 20 c 0,64,65
 187 9 187 9 166 -9 c 128,-1,66
 145 -27 145 -27 131.5 -54.5 c 128,-1,67
 118 -82 118 -82 118 -122 c 0,68,69
 118 -183 118 -183 156.5 -215 c 128,-1,70
 195 -247 195 -247 277 -247 c 0,71,72
 301 -247 301 -247 337.5 -243.5 c 128,-1,73
 374 -240 374 -240 426 -233 c 1,0,-1
631 0 m 1,74,-1
 631 71 l 1,75,76
 637 71 637 71 641 68.5 c 128,-1,77
 645 66 645 66 647 61.5 c 128,-1,78
 649 57 649 57 650 50.5 c 128,-1,79
 651 44 651 44 651 36 c 256,80,81
 651 28 651 28 650 21 c 128,-1,82
 649 14 649 14 647 9.5 c 128,-1,83
 645 5 645 5 641 2.5 c 128,-1,84
 637 0 637 0 631 0 c 1,74,-1
EndSplineSet
PairPos2: "'kern' Horizontal Kerning in Arabic lookup 0 subtable" uniFEF3 dx=80 dy=0 dh=80 dv=0 dx=0 dy=0 dh=0 dv=0
PairPos2: "'kern' Horizontal Kerning in Arabic lookup 0 subtable" uniFB58 dx=80 dy=0 dh=80 dv=0 dx=0 dy=0 dh=0 dv=0
EndChar

StartChar: uniFECC
Encoding: 65228 65228 216
Width: 636
GlyphClass: 2
Flags: W
AnchorPoint: "Anchor-1" 320 -90 basechar 0
AnchorPoint: "Anchor-0" 320 590 basechar 0
LayerCount: 2
Fore
SplineSet
0 0 m 1,0,-1
 0 71 l 1,1,-1
 134 71 l 2,2,3
 194 71 194 71 249 90.5 c 128,-1,4
 304 110 304 110 350 142.5 c 128,-1,5
 396 175 396 175 430 214.5 c 128,-1,6
 464 254 464 254 483 295 c 128,-1,7
 502 336 502 336 502 372 c 2,8,-1
 502 432 l 1,9,-1
 544 369 l 1,10,11
 486 399 486 399 430 414 c 128,-1,12
 374 429 374 429 321 429 c 256,13,14
 268 429 268 429 212 414 c 128,-1,15
 156 399 156 399 99 369 c 1,16,-1
 141 432 l 1,17,-1
 141 372 l 2,18,19
 141 336 141 336 160 295 c 128,-1,20
 179 254 179 254 212.5 214.5 c 128,-1,21
 246 175 246 175 292 142.5 c 128,-1,22
 338 110 338 110 393 90.5 c 128,-1,23
 448 71 448 71 508 71 c 2,24,-1
 636 71 l 1,25,-1
 636 0 l 1,26,-1
 508 0 l 2,27,28
 430 0 430 0 362 25 c 128,-1,29
 294 50 294 50 239 91.5 c 128,-1,30
 184 133 184 133 144.5 182.5 c 128,-1,31
 105 232 105 232 84 281.5 c 128,-1,32
 63 331 63 331 63 372 c 2,33,-1
 63 432 l 1,34,35
 106 455 106 455 150 470 c 128,-1,36
 194 485 194 485 237.5 492.5 c 128,-1,37
 281 500 281 500 321 500 c 0,38,39
 362 500 362 500 405 492.5 c 128,-1,40
 448 485 448 485 492 470 c 128,-1,41
 536 455 536 455 579 432 c 1,42,-1
 579 372 l 2,43,44
 579 331 579 331 558 281.5 c 128,-1,45
 537 232 537 232 497.5 182.5 c 128,-1,46
 458 133 458 133 403 91.5 c 128,-1,47
 348 50 348 50 280 25 c 128,-1,48
 212 0 212 0 134 0 c 2,49,-1
 0 0 l 1,0,-1
0 0 m 1,50,51
 -6 0 -6 0 -10 2.5 c 128,-1,52
 -14 5 -14 5 -16 9.5 c 128,-1,53
 -18 14 -18 14 -19 21 c 128,-1,54
 -20 28 -20 28 -20 36 c 0,55,56
 -20 47 -20 47 -18.5 54.5 c 128,-1,57
 -17 62 -17 62 -12.5 66.5 c 128,-1,58
 -8 71 -8 71 0 71 c 1,59,-1
 0 0 l 1,50,51
636 0 m 1,60,-1
 636 71 l 1,61,62
 642 71 642 71 646 68.5 c 128,-1,63
 650 66 650 66 652 61.5 c 128,-1,64
 654 57 654 57 655 50.5 c 128,-1,65
 656 44 656 44 656 36 c 256,66,67
 656 28 656 28 655 21 c 128,-1,68
 654 14 654 14 652 9.5 c 128,-1,69
 650 5 650 5 646 2.5 c 128,-1,70
 642 0 642 0 636 0 c 1,60,-1
EndSplineSet
PairPos2: "'kern' Horizontal Kerning in Arabic lookup 0 subtable" uniFEF3 dx=80 dy=0 dh=80 dv=0 dx=0 dy=0 dh=0 dv=0
PairPos2: "'kern' Horizontal Kerning in Arabic lookup 0 subtable" uniFB58 dx=80 dy=0 dh=80 dv=0 dx=0 dy=0 dh=0 dv=0
EndChar

StartChar: uniFECB
Encoding: 65227 65227 217
Width: 592
GlyphClass: 2
Flags: W
AnchorPoint: "Anchor-1" 330 -90 basechar 0
AnchorPoint: "Anchor-0" 330 590 basechar 0
LayerCount: 2
Fore
SplineSet
217 3 m 1,0,1
 163 49 163 49 134.5 108.5 c 128,-1,2
 106 168 106 168 106 235 c 0,3,4
 106 292 106 292 126 340.5 c 128,-1,5
 146 389 146 389 181 425 c 128,-1,6
 216 461 216 461 264 480.5 c 128,-1,7
 312 500 312 500 367 500 c 0,8,9
 396 500 396 500 429.5 494 c 128,-1,10
 463 488 463 488 494 477 c 1,11,-1
 467 410 l 1,12,13
 442 419 442 419 416.5 424 c 128,-1,14
 391 429 391 429 368 429 c 0,15,16
 315 429 315 429 273 404 c 128,-1,17
 231 379 231 379 207.5 335.5 c 128,-1,18
 184 292 184 292 184 235 c 0,19,20
 184 183 184 183 205.5 137.5 c 128,-1,21
 227 92 227 92 268 57 c 1,22,-1
 217 3 l 1,0,1
0 0 m 1,23,-1
 0 71 l 1,24,-1
 506 71 l 1,25,-1
 506 0 l 1,26,-1
 0 0 l 1,23,-1
0 0 m 1,27,28
 -6 0 -6 0 -10 2.5 c 128,-1,29
 -14 5 -14 5 -16 9.5 c 128,-1,30
 -18 14 -18 14 -19 21 c 128,-1,31
 -20 28 -20 28 -20 36 c 0,32,33
 -20 47 -20 47 -18.5 54.5 c 128,-1,34
 -17 62 -17 62 -12.5 66.5 c 128,-1,35
 -8 71 -8 71 0 71 c 1,36,-1
 0 0 l 1,27,28
EndSplineSet
PairPos2: "'kern' Horizontal Kerning in Arabic lookup 0 subtable" uniFEF3 dx=80 dy=0 dh=80 dv=0 dx=0 dy=0 dh=0 dv=0
PairPos2: "'kern' Horizontal Kerning in Arabic lookup 0 subtable" uniFB58 dx=80 dy=0 dh=80 dv=0 dx=0 dy=0 dh=0 dv=0
EndChar

StartChar: uni06A1
Encoding: 1697 1697 230
Width: 1033
GlyphClass: 2
Flags: W
AnchorPoint: "Anchor-1" 389 -90 basechar 0
AnchorPoint: "Anchor-0" 755 590 basechar 0
LayerCount: 2
Fore
SplineSet
351 0 m 2,0,1
 252 0 252 0 186 23 c 128,-1,2
 120 46 120 46 87 93 c 128,-1,3
 54 140 54 140 54 213 c 0,4,5
 54 237 54 237 57.5 265 c 128,-1,6
 61 293 61 293 66 319.5 c 128,-1,7
 71 346 71 346 75 365.5 c 128,-1,8
 79 385 79 385 80 392 c 1,9,-1
 156 378 l 1,10,11
 153 362 153 362 147.5 334 c 128,-1,12
 142 306 142 306 137 274 c 128,-1,13
 132 242 132 242 132 213 c 0,14,15
 132 176 132 176 143.5 149 c 128,-1,16
 155 122 155 122 180.5 104.5 c 128,-1,17
 206 87 206 87 248 79 c 128,-1,18
 290 71 290 71 351 71 c 2,19,-1
 921 71 l 1,20,-1
 869 26 l 1,21,-1
 869 463 l 1,22,-1
 910 429 l 1,23,-1
 740 429 l 2,24,25
 682 429 682 429 650.5 415 c 128,-1,26
 619 401 619 401 607 362.5 c 128,-1,27
 595 324 595 324 595 250 c 256,28,29
 595 176 595 176 607 137.5 c 128,-1,30
 619 99 619 99 650.5 85 c 128,-1,31
 682 71 682 71 740 71 c 1,32,-1
 740 20 l 1,33,34
 653 20 653 20 604.5 41.5 c 128,-1,35
 556 63 556 63 536.5 113.5 c 128,-1,36
 517 164 517 164 517 250 c 256,37,38
 517 336 517 336 536.5 391.5 c 128,-1,39
 556 447 556 447 604.5 473.5 c 128,-1,40
 653 500 653 500 740 500 c 2,41,-1
 947 500 l 1,42,-1
 947 0 l 1,43,-1
 351 0 l 2,0,1
EndSplineSet
Substitution2: "'fina' Terminal Forms lookup 11 subtable" uni06A1.fina
Substitution2: "'medi' Medial Forms lookup 10 subtable" uni06A1.medi
Substitution2: "'init' Initial Forms lookup 9 subtable" uni06A1.init
PairPos2: "'kern' Horizontal Kerning in Arabic lookup 0 subtable" uniFEF3 dx=80 dy=0 dh=80 dv=0 dx=0 dy=0 dh=0 dv=0
PairPos2: "'kern' Horizontal Kerning in Arabic lookup 0 subtable" uniFB58 dx=80 dy=0 dh=80 dv=0 dx=0 dy=0 dh=0 dv=0
EndChar

StartChar: uni06A1.fina
Encoding: 65542 -1 231
Width: 1055
GlyphClass: 2
Flags: W
AnchorPoint: "Anchor-1" 389 -90 basechar 0
AnchorPoint: "Anchor-0" 755 590 basechar 0
LayerCount: 2
Fore
SplineSet
947 0 m 1,0,-1
 947 71 l 1,1,-1
 1055 71 l 1,2,-1
 1055 0 l 1,3,-1
 947 0 l 1,0,-1
351 0 m 2,4,5
 252 0 252 0 186 23 c 128,-1,6
 120 46 120 46 87 93 c 128,-1,7
 54 140 54 140 54 213 c 0,8,9
 54 237 54 237 57.5 265 c 128,-1,10
 61 293 61 293 66 319.5 c 128,-1,11
 71 346 71 346 75 365.5 c 128,-1,12
 79 385 79 385 80 392 c 1,13,-1
 156 378 l 1,14,15
 153 362 153 362 147.5 334 c 128,-1,16
 142 306 142 306 137 274 c 128,-1,17
 132 242 132 242 132 213 c 0,18,19
 132 176 132 176 143.5 149 c 128,-1,20
 155 122 155 122 180.5 104.5 c 128,-1,21
 206 87 206 87 248 79 c 128,-1,22
 290 71 290 71 351 71 c 2,23,-1
 921 71 l 1,24,-1
 869 26 l 1,25,-1
 869 463 l 1,26,-1
 910 429 l 1,27,-1
 740 429 l 2,28,29
 682 429 682 429 650.5 415 c 128,-1,30
 619 401 619 401 607 362.5 c 128,-1,31
 595 324 595 324 595 250 c 256,32,33
 595 176 595 176 607 137.5 c 128,-1,34
 619 99 619 99 650.5 85 c 128,-1,35
 682 71 682 71 740 71 c 1,36,-1
 740 20 l 1,37,38
 653 20 653 20 604.5 41.5 c 128,-1,39
 556 63 556 63 536.5 113.5 c 128,-1,40
 517 164 517 164 517 250 c 256,41,42
 517 336 517 336 536.5 391.5 c 128,-1,43
 556 447 556 447 604.5 473.5 c 128,-1,44
 653 500 653 500 740 500 c 2,45,-1
 947 500 l 1,46,-1
 947 0 l 1,47,-1
 351 0 l 2,4,5
1055 0 m 1,48,-1
 1055 71 l 1,49,50
 1061 71 1061 71 1065 68.5 c 128,-1,51
 1069 66 1069 66 1071 61.5 c 128,-1,52
 1073 57 1073 57 1074 50.5 c 128,-1,53
 1075 44 1075 44 1075 36 c 256,54,55
 1075 28 1075 28 1074 21 c 128,-1,56
 1073 14 1073 14 1071 9.5 c 128,-1,57
 1069 5 1069 5 1065 2.5 c 128,-1,58
 1061 0 1061 0 1055 0 c 1,48,-1
EndSplineSet
PairPos2: "'kern' Horizontal Kerning in Arabic lookup 0 subtable" uniFEF3 dx=80 dy=0 dh=80 dv=0 dx=0 dy=0 dh=0 dv=0
PairPos2: "'kern' Horizontal Kerning in Arabic lookup 0 subtable" uniFB58 dx=80 dy=0 dh=80 dv=0 dx=0 dy=0 dh=0 dv=0
EndChar

StartChar: uni06A1.medi
Encoding: 65543 -1 232
Width: 639
GlyphClass: 2
Flags: W
AnchorPoint: "Anchor-1" 339 -90 basechar 0
AnchorPoint: "Anchor-0" 339 590 basechar 0
LayerCount: 2
Fore
SplineSet
531 0 m 1,0,-1
 531 71 l 1,1,-1
 639 71 l 1,2,-1
 639 0 l 1,3,-1
 531 0 l 1,0,-1
0 0 m 1,4,5
 -6 0 -6 0 -10 2.5 c 128,-1,6
 -14 5 -14 5 -16 9.5 c 128,-1,7
 -18 14 -18 14 -19 21 c 128,-1,8
 -20 28 -20 28 -20 36 c 0,9,10
 -20 47 -20 47 -18.5 54.5 c 128,-1,11
 -17 62 -17 62 -12.5 66.5 c 128,-1,12
 -8 71 -8 71 0 71 c 1,13,-1
 0 0 l 1,4,5
0 0 m 1,14,-1
 0 71 l 1,15,-1
 505 71 l 1,16,-1
 453 26 l 1,17,-1
 453 463 l 1,18,-1
 494 429 l 1,19,-1
 324 429 l 2,20,21
 266 429 266 429 234.5 415 c 128,-1,22
 203 401 203 401 191 362.5 c 128,-1,23
 179 324 179 324 179 250 c 256,24,25
 179 176 179 176 191 137.5 c 128,-1,26
 203 99 203 99 234.5 85 c 128,-1,27
 266 71 266 71 324 71 c 1,28,-1
 324 20 l 1,29,30
 237 20 237 20 188.5 41.5 c 128,-1,31
 140 63 140 63 120.5 113.5 c 128,-1,32
 101 164 101 164 101 250 c 256,33,34
 101 336 101 336 120.5 391.5 c 128,-1,35
 140 447 140 447 188.5 473.5 c 128,-1,36
 237 500 237 500 324 500 c 2,37,-1
 531 500 l 1,38,-1
 531 0 l 1,39,-1
 0 0 l 1,14,-1
639 0 m 1,40,-1
 639 71 l 1,41,42
 645 71 645 71 649 68.5 c 128,-1,43
 653 66 653 66 655 61.5 c 128,-1,44
 657 57 657 57 658 50.5 c 128,-1,45
 659 44 659 44 659 36 c 256,46,47
 659 28 659 28 658 21 c 128,-1,48
 657 14 657 14 655 9.5 c 128,-1,49
 653 5 653 5 649 2.5 c 128,-1,50
 645 0 645 0 639 0 c 1,40,-1
EndSplineSet
PairPos2: "'kern' Horizontal Kerning in Arabic lookup 0 subtable" uniFEF3 dx=80 dy=0 dh=80 dv=0 dx=0 dy=0 dh=0 dv=0
PairPos2: "'kern' Horizontal Kerning in Arabic lookup 0 subtable" uniFB58 dx=80 dy=0 dh=80 dv=0 dx=0 dy=0 dh=0 dv=0
EndChar

StartChar: uni06A1.init
Encoding: 65544 -1 233
Width: 607
GlyphClass: 2
Flags: W
AnchorPoint: "Anchor-1" 339 -90 basechar 0
AnchorPoint: "Anchor-0" 339 590 basechar 0
LayerCount: 2
Fore
SplineSet
0 0 m 1,0,-1
 0 71 l 1,1,-1
 505 71 l 1,2,-1
 453 26 l 1,3,-1
 453 463 l 1,4,-1
 494 429 l 1,5,-1
 324 429 l 2,6,7
 266 429 266 429 234.5 415 c 128,-1,8
 203 401 203 401 191 362.5 c 128,-1,9
 179 324 179 324 179 250 c 256,10,11
 179 176 179 176 191 137.5 c 128,-1,12
 203 99 203 99 234.5 85 c 128,-1,13
 266 71 266 71 324 71 c 1,14,-1
 324 20 l 1,15,16
 237 20 237 20 188.5 41.5 c 128,-1,17
 140 63 140 63 120.5 113.5 c 128,-1,18
 101 164 101 164 101 250 c 256,19,20
 101 336 101 336 120.5 391.5 c 128,-1,21
 140 447 140 447 188.5 473.5 c 128,-1,22
 237 500 237 500 324 500 c 2,23,-1
 531 500 l 1,24,-1
 531 0 l 1,25,-1
 0 0 l 1,0,-1
0 0 m 1,26,27
 -6 0 -6 0 -10 2.5 c 128,-1,28
 -14 5 -14 5 -16 9.5 c 128,-1,29
 -18 14 -18 14 -19 21 c 128,-1,30
 -20 28 -20 28 -20 36 c 0,31,32
 -20 47 -20 47 -18.5 54.5 c 128,-1,33
 -17 62 -17 62 -12.5 66.5 c 128,-1,34
 -8 71 -8 71 0 71 c 1,35,-1
 0 0 l 1,26,27
EndSplineSet
PairPos2: "'kern' Horizontal Kerning in Arabic lookup 0 subtable" uniFBB1 dx=-199 dy=0 dh=-199 dv=0 dx=0 dy=0 dh=0 dv=0
PairPos2: "'kern' Horizontal Kerning in Arabic lookup 0 subtable" uniFBAF dx=-199 dy=0 dh=-199 dv=0 dx=0 dy=0 dh=0 dv=0
PairPos2: "'kern' Horizontal Kerning in Arabic lookup 0 subtable" uniFBFD dx=-199 dy=0 dh=-199 dv=0 dx=0 dy=0 dh=0 dv=0
PairPos2: "'kern' Horizontal Kerning in Arabic lookup 0 subtable" uniFE8A dx=-199 dy=0 dh=-199 dv=0 dx=0 dy=0 dh=0 dv=0
PairPos2: "'kern' Horizontal Kerning in Arabic lookup 0 subtable" uniFEF2 dx=-199 dy=0 dh=-199 dv=0 dx=0 dy=0 dh=0 dv=0
PairPos2: "'kern' Horizontal Kerning in Arabic lookup 0 subtable" uniFEF0 dx=-199 dy=0 dh=-199 dv=0 dx=0 dy=0 dh=0 dv=0
EndChar

StartChar: uni066F
Encoding: 1647 1647 234
Width: 863
GlyphClass: 2
Flags: W
AnchorPoint: "Anchor-1" 432 -380 basechar 0
AnchorPoint: "Anchor-0" 595 590 basechar 0
LayerCount: 2
Fore
SplineSet
303 -266 m 2,0,1
 230 -266 230 -266 170 -239 c 128,-1,2
 110 -212 110 -212 75 -164 c 128,-1,3
 40 -116 40 -116 40 -53 c 0,4,5
 40 -32 40 -32 44 4.5 c 128,-1,6
 48 41 48 41 54 84.5 c 128,-1,7
 60 128 60 128 67 173 c 128,-1,8
 74 218 74 218 80 255 c 1,9,-1
 157 243 l 1,10,11
 146 175 146 175 137 117.5 c 128,-1,12
 128 60 128 60 123.5 18 c 128,-1,13
 119 -24 119 -24 119 -47 c 0,14,15
 119 -94 119 -94 142 -127 c 128,-1,16
 165 -160 165 -160 206.5 -177.5 c 128,-1,17
 248 -195 248 -195 303 -195 c 2,18,-1
 535 -195 l 2,19,20
 590 -195 590 -195 628.5 -178 c 128,-1,21
 667 -161 667 -161 688 -130.5 c 128,-1,22
 709 -100 709 -100 709 -58 c 2,23,-1
 709 463 l 1,24,-1
 750 429 l 1,25,-1
 580 429 l 2,26,27
 522 429 522 429 490.5 415 c 128,-1,28
 459 401 459 401 447 362.5 c 128,-1,29
 435 324 435 324 435 250 c 256,30,31
 435 176 435 176 447 137.5 c 128,-1,32
 459 99 459 99 490.5 85 c 128,-1,33
 522 71 522 71 580 71 c 2,34,-1
 709 71 l 1,35,-1
 709 0 l 1,36,-1
 580 0 l 2,37,38
 492 0 492 0 444 26.5 c 128,-1,39
 396 53 396 53 376.5 108.5 c 128,-1,40
 357 164 357 164 357 250 c 256,41,42
 357 336 357 336 376.5 391.5 c 128,-1,43
 396 447 396 447 444 473.5 c 128,-1,44
 492 500 492 500 580 500 c 2,45,-1
 787 500 l 1,46,-1
 787 -58 l 2,47,48
 787 -127 787 -127 751.5 -173.5 c 128,-1,49
 716 -220 716 -220 658.5 -243 c 128,-1,50
 601 -266 601 -266 535 -266 c 2,51,-1
 303 -266 l 2,0,1
EndSplineSet
Substitution2: "'fina' Terminal Forms lookup 11 subtable" uni066F.fina
PairPos2: "'kern' Horizontal Kerning in Arabic lookup 0 subtable" uniFEF3 dx=80 dy=0 dh=80 dv=0 dx=0 dy=0 dh=0 dv=0
PairPos2: "'kern' Horizontal Kerning in Arabic lookup 0 subtable" uniFB58 dx=80 dy=0 dh=80 dv=0 dx=0 dy=0 dh=0 dv=0
EndChar

StartChar: uni066F.fina
Encoding: 65545 -1 235
Width: 895
GlyphClass: 2
Flags: W
AnchorPoint: "Anchor-1" 432 -380 basechar 0
AnchorPoint: "Anchor-0" 595 590 basechar 0
LayerCount: 2
Fore
SplineSet
787 0 m 1,0,-1
 787 71 l 1,1,-1
 895 71 l 1,2,-1
 895 0 l 1,3,-1
 787 0 l 1,0,-1
303 -266 m 2,4,5
 230 -266 230 -266 170 -239 c 128,-1,6
 110 -212 110 -212 75 -164 c 128,-1,7
 40 -116 40 -116 40 -53 c 0,8,9
 40 -32 40 -32 44 4.5 c 128,-1,10
 48 41 48 41 54 84.5 c 128,-1,11
 60 128 60 128 67 173 c 128,-1,12
 74 218 74 218 80 255 c 1,13,-1
 157 243 l 1,14,15
 146 175 146 175 137 117.5 c 128,-1,16
 128 60 128 60 123.5 18 c 128,-1,17
 119 -24 119 -24 119 -47 c 0,18,19
 119 -94 119 -94 142 -127 c 128,-1,20
 165 -160 165 -160 206.5 -177.5 c 128,-1,21
 248 -195 248 -195 303 -195 c 2,22,-1
 535 -195 l 2,23,24
 590 -195 590 -195 628.5 -178 c 128,-1,25
 667 -161 667 -161 688 -130.5 c 128,-1,26
 709 -100 709 -100 709 -58 c 2,27,-1
 709 463 l 1,28,-1
 750 429 l 1,29,-1
 580 429 l 2,30,31
 522 429 522 429 490.5 415 c 128,-1,32
 459 401 459 401 447 362.5 c 128,-1,33
 435 324 435 324 435 250 c 256,34,35
 435 176 435 176 447 137.5 c 128,-1,36
 459 99 459 99 490.5 85 c 128,-1,37
 522 71 522 71 580 71 c 2,38,-1
 709 71 l 1,39,-1
 709 0 l 1,40,-1
 580 0 l 2,41,42
 492 0 492 0 444 26.5 c 128,-1,43
 396 53 396 53 376.5 108.5 c 128,-1,44
 357 164 357 164 357 250 c 256,45,46
 357 336 357 336 376.5 391.5 c 128,-1,47
 396 447 396 447 444 473.5 c 128,-1,48
 492 500 492 500 580 500 c 2,49,-1
 787 500 l 1,50,-1
 787 -58 l 2,51,52
 787 -127 787 -127 751.5 -173.5 c 128,-1,53
 716 -220 716 -220 658.5 -243 c 128,-1,54
 601 -266 601 -266 535 -266 c 2,55,-1
 303 -266 l 2,4,5
895 0 m 1,56,-1
 895 71 l 1,57,58
 901 71 901 71 905 68.5 c 128,-1,59
 909 66 909 66 911 61.5 c 128,-1,60
 913 57 913 57 914 50.5 c 128,-1,61
 915 44 915 44 915 36 c 256,62,63
 915 28 915 28 914 21 c 128,-1,64
 913 14 913 14 911 9.5 c 128,-1,65
 909 5 909 5 905 2.5 c 128,-1,66
 901 0 901 0 895 0 c 1,56,-1
EndSplineSet
PairPos2: "'kern' Horizontal Kerning in Arabic lookup 0 subtable" uniFEF3 dx=80 dy=0 dh=80 dv=0 dx=0 dy=0 dh=0 dv=0
PairPos2: "'kern' Horizontal Kerning in Arabic lookup 0 subtable" uniFB58 dx=80 dy=0 dh=80 dv=0 dx=0 dy=0 dh=0 dv=0
EndChar

StartChar: kafDotlessar
Encoding: 65546 -1 240
Width: 784
GlyphClass: 1
Flags: W
LayerCount: 2
Fore
SplineSet
337 0 m 2,0,1
 238 0 238 0 172 23 c 128,-1,2
 106 46 106 46 73 93 c 128,-1,3
 40 140 40 140 40 213 c 0,4,5
 40 237 40 237 43.5 265 c 128,-1,6
 47 293 47 293 52 319.5 c 128,-1,7
 57 346 57 346 61 365.5 c 128,-1,8
 65 385 65 385 66 392 c 1,9,-1
 142 378 l 1,10,11
 139 362 139 362 133.5 334 c 128,-1,12
 128 306 128 306 123 274 c 128,-1,13
 118 242 118 242 118 213 c 0,14,15
 118 176 118 176 129.5 149 c 128,-1,16
 141 122 141 122 166.5 104.5 c 128,-1,17
 192 87 192 87 234 79 c 128,-1,18
 276 71 276 71 337 71 c 2,19,-1
 667 71 l 1,20,-1
 631 42 l 1,21,-1
 631 717 l 1,22,-1
 709 717 l 1,23,-1
 709 0 l 1,24,-1
 337 0 l 2,0,1
EndSplineSet
PairPos2: "'kern' Horizontal Kerning in Arabic lookup 0 subtable" uniFEF3 dx=80 dy=0 dh=80 dv=0 dx=0 dy=0 dh=0 dv=0
PairPos2: "'kern' Horizontal Kerning in Arabic lookup 0 subtable" uniFB58 dx=80 dy=0 dh=80 dv=0 dx=0 dy=0 dh=0 dv=0
EndChar

StartChar: kafDotlessar.fina
Encoding: 65547 -1 241
Width: 817
GlyphClass: 1
Flags: W
LayerCount: 2
Fore
SplineSet
709 0 m 1,0,-1
 709 71 l 1,1,-1
 817 71 l 1,2,-1
 817 0 l 1,3,-1
 709 0 l 1,0,-1
337 0 m 2,4,5
 238 0 238 0 172 23 c 128,-1,6
 106 46 106 46 73 93 c 128,-1,7
 40 140 40 140 40 213 c 0,8,9
 40 237 40 237 43.5 265 c 128,-1,10
 47 293 47 293 52 319.5 c 128,-1,11
 57 346 57 346 61 365.5 c 128,-1,12
 65 385 65 385 66 392 c 1,13,-1
 142 378 l 1,14,15
 139 362 139 362 133.5 334 c 128,-1,16
 128 306 128 306 123 274 c 128,-1,17
 118 242 118 242 118 213 c 0,18,19
 118 176 118 176 129.5 149 c 128,-1,20
 141 122 141 122 166.5 104.5 c 128,-1,21
 192 87 192 87 234 79 c 128,-1,22
 276 71 276 71 337 71 c 2,23,-1
 667 71 l 1,24,-1
 631 42 l 1,25,-1
 631 717 l 1,26,-1
 709 717 l 1,27,-1
 709 0 l 1,28,-1
 337 0 l 2,4,5
817 0 m 1,29,-1
 817 71 l 1,30,31
 823 71 823 71 827 68.5 c 128,-1,32
 831 66 831 66 833 61.5 c 128,-1,33
 835 57 835 57 836 50.5 c 128,-1,34
 837 44 837 44 837 36 c 256,35,36
 837 28 837 28 836 21 c 128,-1,37
 835 14 835 14 833 9.5 c 128,-1,38
 831 5 831 5 827 2.5 c 128,-1,39
 823 0 823 0 817 0 c 1,29,-1
EndSplineSet
PairPos2: "'kern' Horizontal Kerning in Arabic lookup 0 subtable" uniFEF3 dx=80 dy=0 dh=80 dv=0 dx=0 dy=0 dh=0 dv=0
PairPos2: "'kern' Horizontal Kerning in Arabic lookup 0 subtable" uniFB58 dx=80 dy=0 dh=80 dv=0 dx=0 dy=0 dh=0 dv=0
EndChar

StartChar: uniFEDC
Encoding: 65244 65244 244
Width: 658
GlyphClass: 2
Flags: W
AnchorPoint: "Anchor-1" 253 -90 basechar 0
AnchorPoint: "Anchor-0" 208 787 basechar 0
LayerCount: 2
Fore
SplineSet
550 0 m 1,0,-1
 550 71 l 1,1,-1
 658 71 l 1,2,-1
 658 0 l 1,3,-1
 550 0 l 1,0,-1
0 0 m 1,4,5
 -6 0 -6 0 -10 2.5 c 128,-1,6
 -14 5 -14 5 -16 9.5 c 128,-1,7
 -18 14 -18 14 -19 21 c 128,-1,8
 -20 28 -20 28 -20 36 c 0,9,10
 -20 47 -20 47 -18.5 54.5 c 128,-1,11
 -17 62 -17 62 -12.5 66.5 c 128,-1,12
 -8 71 -8 71 0 71 c 1,13,-1
 0 0 l 1,4,5
0 0 m 1,14,-1
 0 71 l 1,15,-1
 500 71 l 1,16,-1
 472 46 l 1,17,-1
 472 224 l 2,18,19
 472 278 472 278 457.5 313.5 c 128,-1,20
 443 349 443 349 414.5 366.5 c 128,-1,21
 386 384 386 384 343 384 c 2,22,-1
 125 384 l 1,23,-1
 68 470 l 1,24,-1
 111 553 l 2,25,26
 123 575 123 575 136 598 c 128,-1,27
 149 621 149 621 168 651 c 128,-1,28
 187 681 187 681 216 724 c 1,29,-1
 281 685 l 1,30,31
 252 641 252 641 234 612 c 128,-1,32
 216 583 216 583 203.5 562 c 128,-1,33
 191 541 191 541 180 520 c 2,34,-1
 130 424 l 1,35,-1
 110 455 l 1,36,-1
 343 455 l 2,37,38
 406 455 406 455 446.5 433.5 c 128,-1,39
 487 412 487 412 509.5 377 c 128,-1,40
 532 342 532 342 541 301.5 c 128,-1,41
 550 261 550 261 550 224 c 2,42,-1
 550 0 l 1,43,-1
 0 0 l 1,14,-1
658 0 m 1,44,-1
 658 71 l 1,45,46
 664 71 664 71 668 68.5 c 128,-1,47
 672 66 672 66 674 61.5 c 128,-1,48
 676 57 676 57 677 50.5 c 128,-1,49
 678 44 678 44 678 36 c 256,50,51
 678 28 678 28 677 21 c 128,-1,52
 676 14 676 14 674 9.5 c 128,-1,53
 672 5 672 5 668 2.5 c 128,-1,54
 664 0 664 0 658 0 c 1,44,-1
EndSplineSet
PairPos2: "'kern' Horizontal Kerning in Arabic lookup 0 subtable" uniFEF3 dx=80 dy=0 dh=80 dv=0 dx=0 dy=0 dh=0 dv=0
PairPos2: "'kern' Horizontal Kerning in Arabic lookup 0 subtable" uniFB58 dx=80 dy=0 dh=80 dv=0 dx=0 dy=0 dh=0 dv=0
EndChar

StartChar: uniFEDB
Encoding: 65243 65243 245
Width: 625
GlyphClass: 2
Flags: W
AnchorPoint: "Anchor-1" 253 -90 basechar 0
AnchorPoint: "Anchor-0" 208 787 basechar 0
LayerCount: 2
Fore
SplineSet
0 0 m 1,0,-1
 0 71 l 1,1,-1
 500 71 l 1,2,-1
 472 46 l 1,3,-1
 472 224 l 2,4,5
 472 278 472 278 457.5 313.5 c 128,-1,6
 443 349 443 349 414.5 366.5 c 128,-1,7
 386 384 386 384 343 384 c 2,8,-1
 125 384 l 1,9,-1
 68 470 l 1,10,-1
 111 553 l 2,11,12
 123 575 123 575 136 598 c 128,-1,13
 149 621 149 621 168 651 c 128,-1,14
 187 681 187 681 216 724 c 1,15,-1
 281 685 l 1,16,17
 252 641 252 641 234 612 c 128,-1,18
 216 583 216 583 203.5 562 c 128,-1,19
 191 541 191 541 180 520 c 2,20,-1
 130 424 l 1,21,-1
 110 455 l 1,22,-1
 343 455 l 2,23,24
 406 455 406 455 446.5 433.5 c 128,-1,25
 487 412 487 412 509.5 377 c 128,-1,26
 532 342 532 342 541 301.5 c 128,-1,27
 550 261 550 261 550 224 c 2,28,-1
 550 0 l 1,29,-1
 0 0 l 1,0,-1
0 0 m 1,30,31
 -6 0 -6 0 -10 2.5 c 128,-1,32
 -14 5 -14 5 -16 9.5 c 128,-1,33
 -18 14 -18 14 -19 21 c 128,-1,34
 -20 28 -20 28 -20 36 c 0,35,36
 -20 47 -20 47 -18.5 54.5 c 128,-1,37
 -17 62 -17 62 -12.5 66.5 c 128,-1,38
 -8 71 -8 71 0 71 c 1,39,-1
 0 0 l 1,30,31
EndSplineSet
PairPos2: "'kern' Horizontal Kerning in Arabic lookup 0 subtable" uniFEF3 dx=80 dy=0 dh=80 dv=0 dx=0 dy=0 dh=0 dv=0
PairPos2: "'kern' Horizontal Kerning in Arabic lookup 0 subtable" uniFB58 dx=80 dy=0 dh=80 dv=0 dx=0 dy=0 dh=0 dv=0
EndChar

StartChar: uni06A9
Encoding: 1705 1705 246
Width: 784
GlyphClass: 2
Flags: W
AnchorPoint: "Anchor-1" 424 -90 basechar 0
AnchorPoint: "Anchor-0" 231 730 basechar 0
LayerCount: 2
Fore
SplineSet
337 0 m 2,0,1
 238 0 238 0 172 23 c 128,-1,2
 106 46 106 46 73 93 c 128,-1,3
 40 140 40 140 40 213 c 0,4,5
 40 231 40 231 43 255.5 c 128,-1,6
 46 280 46 280 50 305.5 c 128,-1,7
 54 331 54 331 58.5 354 c 128,-1,8
 63 377 63 377 66 392 c 1,9,-1
 142 378 l 1,10,11
 139 360 139 360 134.5 338 c 128,-1,12
 130 316 130 316 126.5 293 c 128,-1,13
 123 270 123 270 120.5 249 c 128,-1,14
 118 228 118 228 118 213 c 0,15,16
 118 176 118 176 129.5 149 c 128,-1,17
 141 122 141 122 166.5 104.5 c 128,-1,18
 192 87 192 87 234 79 c 128,-1,19
 276 71 276 71 337 71 c 2,20,-1
 631 71 l 1,21,-1
 631 224 l 2,22,23
 631 278 631 278 616.5 313.5 c 128,-1,24
 602 349 602 349 573.5 366.5 c 128,-1,25
 545 384 545 384 502 384 c 2,26,-1
 283 384 l 1,27,-1
 227 470 l 1,28,-1
 270 553 l 2,29,30
 282 575 282 575 295 598 c 128,-1,31
 308 621 308 621 327 651 c 128,-1,32
 346 681 346 681 375 724 c 1,33,-1
 439 685 l 1,34,35
 410 641 410 641 392 612 c 128,-1,36
 374 583 374 583 362 562 c 128,-1,37
 350 541 350 541 339 520 c 2,38,-1
 304 455 l 1,39,-1
 502 455 l 2,40,41
 565 455 565 455 605.5 433.5 c 128,-1,42
 646 412 646 412 668.5 377 c 128,-1,43
 691 342 691 342 700 301.5 c 128,-1,44
 709 261 709 261 709 224 c 2,45,-1
 709 0 l 1,46,-1
 337 0 l 2,0,1
EndSplineSet
Substitution2: "'fina' Terminal Forms lookup 11 subtable" uniFB8F
Substitution2: "'medi' Medial Forms lookup 10 subtable" uniFB91
Substitution2: "'init' Initial Forms lookup 9 subtable" uniFB90
PairPos2: "'kern' Horizontal Kerning in Arabic lookup 0 subtable" uniFEF3 dx=80 dy=0 dh=80 dv=0 dx=0 dy=0 dh=0 dv=0
PairPos2: "'kern' Horizontal Kerning in Arabic lookup 0 subtable" uniFB58 dx=80 dy=0 dh=80 dv=0 dx=0 dy=0 dh=0 dv=0
EndChar

StartChar: uniFB8F
Encoding: 64399 64399 247
Width: 817
GlyphClass: 2
Flags: W
AnchorPoint: "Anchor-1" 424 -90 basechar 0
AnchorPoint: "Anchor-0" 231 730 basechar 0
LayerCount: 2
Fore
SplineSet
709 0 m 1,0,-1
 709 71 l 1,1,-1
 817 71 l 1,2,-1
 817 0 l 1,3,-1
 709 0 l 1,0,-1
337 0 m 2,4,5
 238 0 238 0 172 23 c 128,-1,6
 106 46 106 46 73 93 c 128,-1,7
 40 140 40 140 40 213 c 0,8,9
 40 231 40 231 43 255.5 c 128,-1,10
 46 280 46 280 50 305.5 c 128,-1,11
 54 331 54 331 58.5 354 c 128,-1,12
 63 377 63 377 66 392 c 1,13,-1
 142 378 l 1,14,15
 139 360 139 360 134.5 338 c 128,-1,16
 130 316 130 316 126.5 293 c 128,-1,17
 123 270 123 270 120.5 249 c 128,-1,18
 118 228 118 228 118 213 c 0,19,20
 118 176 118 176 129.5 149 c 128,-1,21
 141 122 141 122 166.5 104.5 c 128,-1,22
 192 87 192 87 234 79 c 128,-1,23
 276 71 276 71 337 71 c 2,24,-1
 631 71 l 1,25,-1
 631 224 l 2,26,27
 631 278 631 278 616.5 313.5 c 128,-1,28
 602 349 602 349 573.5 366.5 c 128,-1,29
 545 384 545 384 502 384 c 2,30,-1
 283 384 l 1,31,-1
 227 470 l 1,32,-1
 270 553 l 2,33,34
 282 575 282 575 295 598 c 128,-1,35
 308 621 308 621 327 651 c 128,-1,36
 346 681 346 681 375 724 c 1,37,-1
 439 685 l 1,38,39
 410 641 410 641 392 612 c 128,-1,40
 374 583 374 583 362 562 c 128,-1,41
 350 541 350 541 339 520 c 2,42,-1
 304 455 l 1,43,-1
 502 455 l 2,44,45
 565 455 565 455 605.5 433.5 c 128,-1,46
 646 412 646 412 668.5 377 c 128,-1,47
 691 342 691 342 700 301.5 c 128,-1,48
 709 261 709 261 709 224 c 2,49,-1
 709 0 l 1,50,-1
 337 0 l 2,4,5
817 0 m 1,51,-1
 817 71 l 1,52,53
 823 71 823 71 827 68.5 c 128,-1,54
 831 66 831 66 833 61.5 c 128,-1,55
 835 57 835 57 836 50.5 c 128,-1,56
 837 44 837 44 837 36 c 256,57,58
 837 28 837 28 836 21 c 128,-1,59
 835 14 835 14 833 9.5 c 128,-1,60
 831 5 831 5 827 2.5 c 128,-1,61
 823 0 823 0 817 0 c 1,51,-1
EndSplineSet
PairPos2: "'kern' Horizontal Kerning in Arabic lookup 0 subtable" uniFEF3 dx=80 dy=0 dh=80 dv=0 dx=0 dy=0 dh=0 dv=0
PairPos2: "'kern' Horizontal Kerning in Arabic lookup 0 subtable" uniFB58 dx=80 dy=0 dh=80 dv=0 dx=0 dy=0 dh=0 dv=0
EndChar

StartChar: uni06AF
Encoding: 1711 1711 250
Width: 784
GlyphClass: 2
Flags: W
AnchorPoint: "Anchor-1" 424 -90 basechar 0
AnchorPoint: "Anchor-0" 302 844 basechar 0
LayerCount: 2
Fore
SplineSet
205 501 m 1,0,-1
 171 552 l 1,1,2
 193 595 193 595 210 627.5 c 128,-1,3
 227 660 227 660 247 693 c 128,-1,4
 267 726 267 726 298 771 c 1,5,-1
 344 743 l 1,6,7
 323 711 323 711 306.5 685 c 128,-1,8
 290 659 290 659 274.5 632.5 c 128,-1,9
 259 606 259 606 242 575 c 128,-1,10
 225 544 225 544 205 501 c 1,0,-1
337 0 m 2,11,12
 238 0 238 0 172 23 c 128,-1,13
 106 46 106 46 73 93 c 128,-1,14
 40 140 40 140 40 213 c 0,15,16
 40 231 40 231 43 255.5 c 128,-1,17
 46 280 46 280 50 305.5 c 128,-1,18
 54 331 54 331 58.5 354 c 128,-1,19
 63 377 63 377 66 392 c 1,20,-1
 142 378 l 1,21,22
 139 360 139 360 134.5 338 c 128,-1,23
 130 316 130 316 126.5 293 c 128,-1,24
 123 270 123 270 120.5 249 c 128,-1,25
 118 228 118 228 118 213 c 0,26,27
 118 176 118 176 129.5 149 c 128,-1,28
 141 122 141 122 166.5 104.5 c 128,-1,29
 192 87 192 87 234 79 c 128,-1,30
 276 71 276 71 337 71 c 2,31,-1
 631 71 l 1,32,-1
 631 224 l 2,33,34
 631 278 631 278 616.5 313.5 c 128,-1,35
 602 349 602 349 573.5 366.5 c 128,-1,36
 545 384 545 384 502 384 c 2,37,-1
 283 384 l 1,38,-1
 227 470 l 1,39,-1
 270 553 l 2,40,41
 282 575 282 575 295 598 c 128,-1,42
 308 621 308 621 327 651 c 128,-1,43
 346 681 346 681 375 724 c 1,44,-1
 439 685 l 1,45,46
 410 641 410 641 392 612 c 128,-1,47
 374 583 374 583 362 562 c 128,-1,48
 350 541 350 541 339 520 c 2,49,-1
 304 455 l 1,50,-1
 502 455 l 2,51,52
 565 455 565 455 605.5 433.5 c 128,-1,53
 646 412 646 412 668.5 377 c 128,-1,54
 691 342 691 342 700 301.5 c 128,-1,55
 709 261 709 261 709 224 c 2,56,-1
 709 0 l 1,57,-1
 337 0 l 2,11,12
EndSplineSet
Substitution2: "'fina' Terminal Forms lookup 11 subtable" uniFB93
Substitution2: "'medi' Medial Forms lookup 10 subtable" uniFB95
Substitution2: "'init' Initial Forms lookup 9 subtable" uniFB94
PairPos2: "'kern' Horizontal Kerning in Arabic lookup 0 subtable" uniFEF3 dx=80 dy=0 dh=80 dv=0 dx=0 dy=0 dh=0 dv=0
PairPos2: "'kern' Horizontal Kerning in Arabic lookup 0 subtable" uniFB58 dx=80 dy=0 dh=80 dv=0 dx=0 dy=0 dh=0 dv=0
EndChar

StartChar: uniFB93
Encoding: 64403 64403 251
Width: 817
GlyphClass: 2
Flags: W
AnchorPoint: "Anchor-1" 424 -90 basechar 0
AnchorPoint: "Anchor-0" 216 799 basechar 0
LayerCount: 2
Fore
SplineSet
205 501 m 1,0,-1
 171 552 l 1,1,2
 193 595 193 595 210 627.5 c 128,-1,3
 227 660 227 660 247 693 c 128,-1,4
 267 726 267 726 298 771 c 1,5,-1
 344 743 l 1,6,7
 323 711 323 711 306.5 685 c 128,-1,8
 290 659 290 659 274.5 632.5 c 128,-1,9
 259 606 259 606 242 575 c 128,-1,10
 225 544 225 544 205 501 c 1,0,-1
337 0 m 2,11,12
 238 0 238 0 172 23 c 128,-1,13
 106 46 106 46 73 93 c 128,-1,14
 40 140 40 140 40 213 c 0,15,16
 40 231 40 231 43 255.5 c 128,-1,17
 46 280 46 280 50 305.5 c 128,-1,18
 54 331 54 331 58.5 354 c 128,-1,19
 63 377 63 377 66 392 c 1,20,-1
 142 378 l 1,21,22
 139 360 139 360 134.5 338 c 128,-1,23
 130 316 130 316 126.5 293 c 128,-1,24
 123 270 123 270 120.5 249 c 128,-1,25
 118 228 118 228 118 213 c 0,26,27
 118 176 118 176 129.5 149 c 128,-1,28
 141 122 141 122 166.5 104.5 c 128,-1,29
 192 87 192 87 234 79 c 128,-1,30
 276 71 276 71 337 71 c 2,31,-1
 631 71 l 1,32,-1
 631 224 l 2,33,34
 631 278 631 278 616.5 313.5 c 128,-1,35
 602 349 602 349 573.5 366.5 c 128,-1,36
 545 384 545 384 502 384 c 2,37,-1
 283 384 l 1,38,-1
 227 470 l 1,39,-1
 270 553 l 2,40,41
 282 575 282 575 295 598 c 128,-1,42
 308 621 308 621 327 651 c 128,-1,43
 346 681 346 681 375 724 c 1,44,-1
 439 685 l 1,45,46
 410 641 410 641 392 612 c 128,-1,47
 374 583 374 583 362 562 c 128,-1,48
 350 541 350 541 339 520 c 2,49,-1
 304 455 l 1,50,-1
 502 455 l 2,51,52
 565 455 565 455 605.5 433.5 c 128,-1,53
 646 412 646 412 668.5 377 c 128,-1,54
 691 342 691 342 700 301.5 c 128,-1,55
 709 261 709 261 709 224 c 2,56,-1
 709 0 l 1,57,-1
 337 0 l 2,11,12
817 0 m 1,58,-1
 817 71 l 1,59,60
 823 71 823 71 827 68.5 c 128,-1,61
 831 66 831 66 833 61.5 c 128,-1,62
 835 57 835 57 836 50.5 c 128,-1,63
 837 44 837 44 837 36 c 256,64,65
 837 28 837 28 836 21 c 128,-1,66
 835 14 835 14 833 9.5 c 128,-1,67
 831 5 831 5 827 2.5 c 128,-1,68
 823 0 823 0 817 0 c 1,58,-1
709 0 m 1,69,-1
 709 71 l 1,70,-1
 817 71 l 1,71,-1
 817 0 l 1,72,-1
 709 0 l 1,69,-1
EndSplineSet
PairPos2: "'kern' Horizontal Kerning in Arabic lookup 0 subtable" uniFEF3 dx=80 dy=0 dh=80 dv=0 dx=0 dy=0 dh=0 dv=0
PairPos2: "'kern' Horizontal Kerning in Arabic lookup 0 subtable" uniFB58 dx=80 dy=0 dh=80 dv=0 dx=0 dy=0 dh=0 dv=0
EndChar

StartChar: uniFB95
Encoding: 64405 64405 252
Width: 708
GlyphClass: 2
Flags: W
AnchorPoint: "Anchor-1" 315 -90 basechar 0
AnchorPoint: "Anchor-0" 219 840 basechar 0
LayerCount: 2
Fore
SplineSet
600 0 m 1,0,-1
 600 71 l 1,1,-1
 708 71 l 1,2,-1
 708 0 l 1,3,-1
 600 0 l 1,0,-1
85 501 m 1,4,-1
 51 552 l 1,5,6
 73 595 73 595 90 627.5 c 128,-1,7
 107 660 107 660 127 693 c 128,-1,8
 147 726 147 726 178 771 c 1,9,-1
 224 743 l 1,10,11
 203 711 203 711 186.5 685 c 128,-1,12
 170 659 170 659 154.5 632.5 c 128,-1,13
 139 606 139 606 122 575 c 128,-1,14
 105 544 105 544 85 501 c 1,4,-1
0 0 m 1,15,-1
 0 71 l 1,16,-1
 550 71 l 1,17,-1
 522 46 l 1,18,-1
 522 224 l 2,19,20
 522 278 522 278 507.5 313.5 c 128,-1,21
 493 349 493 349 464.5 366.5 c 128,-1,22
 436 384 436 384 393 384 c 2,23,-1
 175 384 l 1,24,-1
 118 470 l 1,25,-1
 161 553 l 2,26,27
 173 575 173 575 186 598 c 128,-1,28
 199 621 199 621 218 651 c 128,-1,29
 237 681 237 681 266 724 c 1,30,-1
 331 685 l 1,31,32
 302 641 302 641 284 612 c 128,-1,33
 266 583 266 583 253.5 562 c 128,-1,34
 241 541 241 541 230 520 c 2,35,-1
 180 424 l 1,36,-1
 160 455 l 1,37,-1
 393 455 l 2,38,39
 456 455 456 455 496.5 433.5 c 128,-1,40
 537 412 537 412 559.5 377 c 128,-1,41
 582 342 582 342 591 301.5 c 128,-1,42
 600 261 600 261 600 224 c 2,43,-1
 600 0 l 1,44,-1
 0 0 l 1,15,-1
708 0 m 1,45,-1
 708 71 l 1,46,47
 714 71 714 71 718 68.5 c 128,-1,48
 722 66 722 66 724 61.5 c 128,-1,49
 726 57 726 57 727 50.5 c 128,-1,50
 728 44 728 44 728 36 c 256,51,52
 728 28 728 28 727 21 c 128,-1,53
 726 14 726 14 724 9.5 c 128,-1,54
 722 5 722 5 718 2.5 c 128,-1,55
 714 0 714 0 708 0 c 1,45,-1
0 0 m 1,56,57
 -6 0 -6 0 -10 2.5 c 128,-1,58
 -14 5 -14 5 -16 9.5 c 128,-1,59
 -18 14 -18 14 -19 21 c 128,-1,60
 -20 28 -20 28 -20 36 c 0,61,62
 -20 47 -20 47 -18.5 54.5 c 128,-1,63
 -17 62 -17 62 -12.5 66.5 c 128,-1,64
 -8 71 -8 71 0 71 c 1,65,-1
 0 0 l 1,56,57
EndSplineSet
PairPos2: "'kern' Horizontal Kerning in Arabic lookup 0 subtable" uniFEF3 dx=80 dy=0 dh=80 dv=0 dx=0 dy=0 dh=0 dv=0
PairPos2: "'kern' Horizontal Kerning in Arabic lookup 0 subtable" uniFB58 dx=80 dy=0 dh=80 dv=0 dx=0 dy=0 dh=0 dv=0
EndChar

StartChar: uniFB94
Encoding: 64404 64404 253
Width: 675
GlyphClass: 2
Flags: W
AnchorPoint: "Anchor-1" 315 -90 basechar 0
AnchorPoint: "Anchor-0" 219 840 basechar 0
LayerCount: 2
Fore
SplineSet
85 501 m 1,0,-1
 51 552 l 1,1,2
 73 595 73 595 90 627.5 c 128,-1,3
 107 660 107 660 127 693 c 128,-1,4
 147 726 147 726 178 771 c 1,5,-1
 224 743 l 1,6,7
 203 711 203 711 186.5 685 c 128,-1,8
 170 659 170 659 154.5 632.5 c 128,-1,9
 139 606 139 606 122 575 c 128,-1,10
 105 544 105 544 85 501 c 1,0,-1
0 0 m 1,11,-1
 0 71 l 1,12,-1
 550 71 l 1,13,-1
 522 46 l 1,14,-1
 522 224 l 2,15,16
 522 278 522 278 507.5 313.5 c 128,-1,17
 493 349 493 349 464.5 366.5 c 128,-1,18
 436 384 436 384 393 384 c 2,19,-1
 175 384 l 1,20,-1
 118 470 l 1,21,-1
 161 553 l 2,22,23
 173 575 173 575 186 598 c 128,-1,24
 199 621 199 621 218 651 c 128,-1,25
 237 681 237 681 266 724 c 1,26,-1
 331 685 l 1,27,28
 302 641 302 641 284 612 c 128,-1,29
 266 583 266 583 253.5 562 c 128,-1,30
 241 541 241 541 230 520 c 2,31,-1
 180 424 l 1,32,-1
 160 455 l 1,33,-1
 393 455 l 2,34,35
 456 455 456 455 496.5 433.5 c 128,-1,36
 537 412 537 412 559.5 377 c 128,-1,37
 582 342 582 342 591 301.5 c 128,-1,38
 600 261 600 261 600 224 c 2,39,-1
 600 0 l 1,40,-1
 0 0 l 1,11,-1
0 0 m 1,41,42
 -6 0 -6 0 -10 2.5 c 128,-1,43
 -14 5 -14 5 -16 9.5 c 128,-1,44
 -18 14 -18 14 -19 21 c 128,-1,45
 -20 28 -20 28 -20 36 c 0,46,47
 -20 47 -20 47 -18.5 54.5 c 128,-1,48
 -17 62 -17 62 -12.5 66.5 c 128,-1,49
 -8 71 -8 71 0 71 c 1,50,-1
 0 0 l 1,41,42
EndSplineSet
PairPos2: "'kern' Horizontal Kerning in Arabic lookup 0 subtable" uniFEF3 dx=80 dy=0 dh=80 dv=0 dx=0 dy=0 dh=0 dv=0
PairPos2: "'kern' Horizontal Kerning in Arabic lookup 0 subtable" uniFB58 dx=80 dy=0 dh=80 dv=0 dx=0 dy=0 dh=0 dv=0
EndChar

StartChar: uni0644
Encoding: 1604 1604 254
Width: 666
GlyphClass: 2
Flags: W
AnchorPoint: "Anchor-1" 326 -340 basechar 0
AnchorPoint: "Anchor-0" 552 787 basechar 0
LayerCount: 2
Fore
SplineSet
321 -248 m 0,0,1
 242 -248 242 -248 178 -219 c 128,-1,2
 114 -190 114 -190 77 -138 c 128,-1,3
 40 -86 40 -86 40 -19 c 0,4,5
 40 2 40 2 43.5 36.5 c 128,-1,6
 47 71 47 71 52.5 113.5 c 128,-1,7
 58 156 58 156 65 199.5 c 128,-1,8
 72 243 72 243 78 282 c 1,9,-1
 155 270 l 1,10,11
 144 201 144 201 135.5 142.5 c 128,-1,12
 127 84 127 84 122.5 42.5 c 128,-1,13
 118 1 118 1 118 -19 c 0,14,15
 118 -65 118 -65 143.5 -100.5 c 128,-1,16
 169 -136 169 -136 215 -156.5 c 128,-1,17
 261 -177 261 -177 321 -177 c 256,18,19
 381 -177 381 -177 424 -158 c 128,-1,20
 467 -139 467 -139 490 -105 c 128,-1,21
 513 -71 513 -71 513 -25 c 2,22,-1
 513 717 l 1,23,-1
 591 717 l 1,24,-1
 591 -25 l 2,25,26
 591 -95 591 -95 554.5 -145 c 128,-1,27
 518 -195 518 -195 457 -221.5 c 128,-1,28
 396 -248 396 -248 321 -248 c 0,0,1
EndSplineSet
Substitution2: "'fina' Terminal Forms lookup 11 subtable" uniFEDE
Substitution2: "'medi' Medial Forms lookup 10 subtable" uniFEE0
Substitution2: "'init' Initial Forms lookup 9 subtable" uniFEDF
PairPos2: "'kern' Horizontal Kerning in Arabic lookup 0 subtable" uniFEF3 dx=80 dy=0 dh=80 dv=0 dx=0 dy=0 dh=0 dv=0
PairPos2: "'kern' Horizontal Kerning in Arabic lookup 0 subtable" uniFB58 dx=80 dy=0 dh=80 dv=0 dx=0 dy=0 dh=0 dv=0
EndChar

StartChar: uniFEDE
Encoding: 65246 65246 255
Width: 699
GlyphClass: 2
Flags: W
AnchorPoint: "Anchor-1" 326 -340 basechar 0
AnchorPoint: "Anchor-0" 552 787 basechar 0
LayerCount: 2
Fore
SplineSet
591 0 m 1,0,-1
 591 71 l 1,1,-1
 699 71 l 1,2,-1
 699 0 l 1,3,-1
 591 0 l 1,0,-1
321 -248 m 0,4,5
 242 -248 242 -248 178 -219 c 128,-1,6
 114 -190 114 -190 77 -138 c 128,-1,7
 40 -86 40 -86 40 -19 c 0,8,9
 40 2 40 2 43.5 36.5 c 128,-1,10
 47 71 47 71 52.5 113.5 c 128,-1,11
 58 156 58 156 65 199.5 c 128,-1,12
 72 243 72 243 78 282 c 1,13,-1
 155 270 l 1,14,15
 144 201 144 201 135.5 142.5 c 128,-1,16
 127 84 127 84 122.5 42.5 c 128,-1,17
 118 1 118 1 118 -19 c 0,18,19
 118 -65 118 -65 143.5 -100.5 c 128,-1,20
 169 -136 169 -136 215 -156.5 c 128,-1,21
 261 -177 261 -177 321 -177 c 256,22,23
 381 -177 381 -177 424 -158 c 128,-1,24
 467 -139 467 -139 490 -105 c 128,-1,25
 513 -71 513 -71 513 -25 c 2,26,-1
 513 717 l 1,27,-1
 591 717 l 1,28,-1
 591 -25 l 2,29,30
 591 -95 591 -95 554.5 -145 c 128,-1,31
 518 -195 518 -195 457 -221.5 c 128,-1,32
 396 -248 396 -248 321 -248 c 0,4,5
699 0 m 1,33,-1
 699 71 l 1,34,35
 705 71 705 71 709 68.5 c 128,-1,36
 713 66 713 66 715 61.5 c 128,-1,37
 717 57 717 57 718 50.5 c 128,-1,38
 719 44 719 44 719 36 c 256,39,40
 719 28 719 28 718 21 c 128,-1,41
 717 14 717 14 715 9.5 c 128,-1,42
 713 5 713 5 709 2.5 c 128,-1,43
 705 0 705 0 699 0 c 1,33,-1
EndSplineSet
PairPos2: "'kern' Horizontal Kerning in Arabic lookup 0 subtable" uniFEF3 dx=80 dy=0 dh=80 dv=0 dx=0 dy=0 dh=0 dv=0
PairPos2: "'kern' Horizontal Kerning in Arabic lookup 0 subtable" uniFB58 dx=80 dy=0 dh=80 dv=0 dx=0 dy=0 dh=0 dv=0
EndChar

StartChar: uniFEE0
Encoding: 65248 65248 256
Width: 307
GlyphClass: 2
Flags: W
AnchorPoint: "Anchor-1" 160 -90 basechar 0
AnchorPoint: "Anchor-0" 160 787 basechar 0
LayerCount: 2
Fore
SplineSet
199 0 m 1,0,-1
 199 71 l 1,1,-1
 307 71 l 1,2,-1
 307 0 l 1,3,-1
 199 0 l 1,0,-1
0 0 m 1,4,5
 -6 0 -6 0 -10 2.5 c 128,-1,6
 -14 5 -14 5 -16 9.5 c 128,-1,7
 -18 14 -18 14 -19 21 c 128,-1,8
 -20 28 -20 28 -20 36 c 0,9,10
 -20 47 -20 47 -18.5 54.5 c 128,-1,11
 -17 62 -17 62 -12.5 66.5 c 128,-1,12
 -8 71 -8 71 0 71 c 1,13,-1
 0 0 l 1,4,5
121 0 m 1,14,-1
 121 717 l 1,15,-1
 199 717 l 1,16,-1
 199 0 l 1,17,-1
 121 0 l 1,14,-1
0 0 m 1,18,-1
 0 71 l 1,19,-1
 121 71 l 1,20,-1
 121 0 l 1,21,-1
 0 0 l 1,18,-1
307 0 m 1,22,-1
 307 71 l 1,23,24
 313 71 313 71 317 68.5 c 128,-1,25
 321 66 321 66 323 61.5 c 128,-1,26
 325 57 325 57 326 50.5 c 128,-1,27
 327 44 327 44 327 36 c 256,28,29
 327 28 327 28 326 21 c 128,-1,30
 325 14 325 14 323 9.5 c 128,-1,31
 321 5 321 5 317 2.5 c 128,-1,32
 313 0 313 0 307 0 c 1,22,-1
EndSplineSet
PairPos2: "'kern' Horizontal Kerning in Arabic lookup 0 subtable" uniFEF3 dx=80 dy=0 dh=80 dv=0 dx=0 dy=0 dh=0 dv=0
PairPos2: "'kern' Horizontal Kerning in Arabic lookup 0 subtable" uniFB58 dx=80 dy=0 dh=80 dv=0 dx=0 dy=0 dh=0 dv=0
EndChar

StartChar: uniFEDF
Encoding: 65247 65247 257
Width: 275
GlyphClass: 2
Flags: W
AnchorPoint: "Anchor-1" 160 -90 basechar 0
AnchorPoint: "Anchor-0" 160 787 basechar 0
LayerCount: 2
Fore
SplineSet
121 0 m 1,0,-1
 121 717 l 1,1,-1
 199 717 l 1,2,-1
 199 0 l 1,3,-1
 121 0 l 1,0,-1
0 0 m 1,4,-1
 0 71 l 1,5,-1
 121 71 l 1,6,-1
 121 0 l 1,7,-1
 0 0 l 1,4,-1
0 0 m 1,8,9
 -6 0 -6 0 -10 2.5 c 128,-1,10
 -14 5 -14 5 -16 9.5 c 128,-1,11
 -18 14 -18 14 -19 21 c 128,-1,12
 -20 28 -20 28 -20 36 c 0,13,14
 -20 47 -20 47 -18.5 54.5 c 128,-1,15
 -17 62 -17 62 -12.5 66.5 c 128,-1,16
 -8 71 -8 71 0 71 c 1,17,-1
 0 0 l 1,8,9
EndSplineSet
PairPos2: "'kern' Horizontal Kerning in Arabic lookup 0 subtable" uniFEF3 dx=80 dy=0 dh=80 dv=0 dx=0 dy=0 dh=0 dv=0
PairPos2: "'kern' Horizontal Kerning in Arabic lookup 0 subtable" uniFB58 dx=80 dy=0 dh=80 dv=0 dx=0 dy=0 dh=0 dv=0
EndChar

StartChar: uni0645
Encoding: 1605 1605 258
Width: 626
GlyphClass: 2
Flags: W
AnchorPoint: "Anchor-1" 296 -388 basechar 0
AnchorPoint: "Anchor-0" 296 591 basechar 0
LayerCount: 2
Fore
SplineSet
65 -332 m 1,0,1
 55 -275 55 -275 47.5 -224 c 128,-1,2
 40 -173 40 -173 40 -137 c 0,3,4
 40 -72 40 -72 62.5 -25.5 c 128,-1,5
 85 21 85 21 127.5 46 c 128,-1,6
 170 71 170 71 229 71 c 0,7,8
 246 71 246 71 279 71 c 128,-1,9
 312 71 312 71 355 71 c 128,-1,10
 398 71 398 71 444 71 c 128,-1,11
 490 71 490 71 531 71 c 1,12,-1
 473 20 l 1,13,-1
 473 245 l 2,14,15
 473 315 473 315 457 355 c 128,-1,16
 441 395 441 395 402.5 412 c 128,-1,17
 364 429 364 429 298 429 c 0,18,19
 256 429 256 429 214.5 423 c 128,-1,20
 173 417 173 417 150 407 c 1,21,-1
 197 455 l 1,22,23
 191 431 191 431 185 394.5 c 128,-1,24
 179 358 179 358 175.5 316 c 128,-1,25
 172 274 172 274 172 232 c 0,26,27
 172 189 172 189 175.5 148 c 128,-1,28
 179 107 179 107 184 77 c 128,-1,29
 189 47 189 47 192 35 c 1,30,-1
 118 14 l 1,31,32
 114 27 114 27 108.5 59 c 128,-1,33
 103 91 103 91 98.5 136 c 128,-1,34
 94 181 94 181 94 232 c 0,35,36
 94 281 94 281 98.5 327.5 c 128,-1,37
 103 374 103 374 109.5 412 c 128,-1,38
 116 450 116 450 122 473 c 1,39,40
 144 482 144 482 192 491 c 128,-1,41
 240 500 240 500 298 500 c 0,42,43
 348 500 348 500 388.5 491.5 c 128,-1,44
 429 483 429 483 459.5 464 c 128,-1,45
 490 445 490 445 510.5 415.5 c 128,-1,46
 531 386 531 386 541 343.5 c 128,-1,47
 551 301 551 301 551 245 c 2,48,-1
 551 0 l 1,49,50
 509 0 509 0 460.5 0 c 128,-1,51
 412 0 412 0 365.5 0 c 128,-1,52
 319 0 319 0 282.5 0 c 128,-1,53
 246 0 246 0 229 0 c 0,54,55
 213 0 213 0 194 -4.5 c 128,-1,56
 175 -9 175 -9 157.5 -22.5 c 128,-1,57
 140 -36 140 -36 129 -63.5 c 128,-1,58
 118 -91 118 -91 118 -137 c 0,59,60
 118 -175 118 -175 125 -224 c 128,-1,61
 132 -273 132 -273 141 -332 c 1,62,-1
 65 -332 l 1,0,1
EndSplineSet
Substitution2: "'fina' Terminal Forms lookup 11 subtable" uniFEE2
Substitution2: "'medi' Medial Forms lookup 10 subtable" uniFEE4
Substitution2: "'init' Initial Forms lookup 9 subtable" uniFEE3
PairPos2: "'kern' Horizontal Kerning in Arabic lookup 0 subtable" uniFEF3 dx=80 dy=0 dh=80 dv=0 dx=0 dy=0 dh=0 dv=0
PairPos2: "'kern' Horizontal Kerning in Arabic lookup 0 subtable" uniFB58 dx=80 dy=0 dh=80 dv=0 dx=0 dy=0 dh=0 dv=0
EndChar

StartChar: uniFEE2
Encoding: 65250 65250 259
Width: 659
GlyphClass: 2
Flags: W
AnchorPoint: "Anchor-1" 296 -388 basechar 0
AnchorPoint: "Anchor-0" 296 591 basechar 0
LayerCount: 2
Fore
SplineSet
551 0 m 1,0,-1
 551 71 l 1,1,-1
 659 71 l 1,2,-1
 659 0 l 1,3,-1
 551 0 l 1,0,-1
65 -332 m 1,4,5
 55 -275 55 -275 47.5 -224 c 128,-1,6
 40 -173 40 -173 40 -137 c 0,7,8
 40 -72 40 -72 62.5 -25.5 c 128,-1,9
 85 21 85 21 127.5 46 c 128,-1,10
 170 71 170 71 229 71 c 0,11,12
 246 71 246 71 279 71 c 128,-1,13
 312 71 312 71 355 71 c 128,-1,14
 398 71 398 71 444 71 c 128,-1,15
 490 71 490 71 531 71 c 1,16,-1
 473 20 l 1,17,-1
 473 245 l 2,18,19
 473 315 473 315 457 355 c 128,-1,20
 441 395 441 395 402.5 412 c 128,-1,21
 364 429 364 429 298 429 c 0,22,23
 256 429 256 429 214.5 423 c 128,-1,24
 173 417 173 417 150 407 c 1,25,-1
 197 455 l 1,26,27
 191 431 191 431 185 394.5 c 128,-1,28
 179 358 179 358 175.5 316 c 128,-1,29
 172 274 172 274 172 232 c 0,30,31
 172 189 172 189 175.5 148 c 128,-1,32
 179 107 179 107 184 77 c 128,-1,33
 189 47 189 47 192 35 c 1,34,-1
 118 14 l 1,35,36
 114 27 114 27 108.5 59 c 128,-1,37
 103 91 103 91 98.5 136 c 128,-1,38
 94 181 94 181 94 232 c 0,39,40
 94 281 94 281 98.5 327.5 c 128,-1,41
 103 374 103 374 109.5 412 c 128,-1,42
 116 450 116 450 122 473 c 1,43,44
 144 482 144 482 192 491 c 128,-1,45
 240 500 240 500 298 500 c 0,46,47
 348 500 348 500 388.5 491.5 c 128,-1,48
 429 483 429 483 459.5 464 c 128,-1,49
 490 445 490 445 510.5 415.5 c 128,-1,50
 531 386 531 386 541 343.5 c 128,-1,51
 551 301 551 301 551 245 c 2,52,-1
 551 0 l 1,53,54
 509 0 509 0 460.5 0 c 128,-1,55
 412 0 412 0 365.5 0 c 128,-1,56
 319 0 319 0 282.5 0 c 128,-1,57
 246 0 246 0 229 0 c 0,58,59
 213 0 213 0 194 -4.5 c 128,-1,60
 175 -9 175 -9 157.5 -22.5 c 128,-1,61
 140 -36 140 -36 129 -63.5 c 128,-1,62
 118 -91 118 -91 118 -137 c 0,63,64
 118 -175 118 -175 125 -224 c 128,-1,65
 132 -273 132 -273 141 -332 c 1,66,-1
 65 -332 l 1,4,5
659 0 m 1,67,-1
 659 71 l 1,68,69
 665 71 665 71 669 68.5 c 128,-1,70
 673 66 673 66 675 61.5 c 128,-1,71
 677 57 677 57 678 50.5 c 128,-1,72
 679 44 679 44 679 36 c 256,73,74
 679 28 679 28 678 21 c 128,-1,75
 677 14 677 14 675 9.5 c 128,-1,76
 673 5 673 5 669 2.5 c 128,-1,77
 665 0 665 0 659 0 c 1,67,-1
EndSplineSet
PairPos2: "'kern' Horizontal Kerning in Arabic lookup 0 subtable" uniFEF3 dx=80 dy=0 dh=80 dv=0 dx=0 dy=0 dh=0 dv=0
PairPos2: "'kern' Horizontal Kerning in Arabic lookup 0 subtable" uniFB58 dx=80 dy=0 dh=80 dv=0 dx=0 dy=0 dh=0 dv=0
EndChar

StartChar: uniFEE4
Encoding: 65252 65252 260
Width: 675
GlyphClass: 2
Flags: W
AnchorPoint: "Anchor-1" 311 -90 basechar 0
AnchorPoint: "Anchor-0" 311 590 basechar 0
LayerCount: 2
Fore
SplineSet
567 0 m 1,0,-1
 567 71 l 1,1,-1
 675 71 l 1,2,-1
 675 0 l 1,3,-1
 567 0 l 1,0,-1
0 0 m 1,4,5
 -6 0 -6 0 -10 2.5 c 128,-1,6
 -14 5 -14 5 -16 9.5 c 128,-1,7
 -18 14 -18 14 -19 21 c 128,-1,8
 -20 28 -20 28 -20 36 c 0,9,10
 -20 47 -20 47 -18.5 54.5 c 128,-1,11
 -17 62 -17 62 -12.5 66.5 c 128,-1,12
 -8 71 -8 71 0 71 c 1,13,-1
 0 0 l 1,4,5
0 0 m 1,14,-1
 0 71 l 1,15,-1
 547 71 l 1,16,-1
 489 30 l 1,17,-1
 489 245 l 2,18,19
 489 315 489 315 473 355 c 128,-1,20
 457 395 457 395 418.5 412 c 128,-1,21
 380 429 380 429 314 429 c 0,22,23
 272 429 272 429 230.5 423 c 128,-1,24
 189 417 189 417 166 407 c 1,25,-1
 213 455 l 1,26,27
 207 431 207 431 201 394.5 c 128,-1,28
 195 358 195 358 191 316 c 128,-1,29
 187 274 187 274 187 232 c 0,30,31
 187 189 187 189 191 148 c 128,-1,32
 195 107 195 107 200 77 c 128,-1,33
 205 47 205 47 208 35 c 1,34,-1
 134 14 l 1,35,36
 130 27 130 27 124.5 59 c 128,-1,37
 119 91 119 91 114.5 136 c 128,-1,38
 110 181 110 181 110 232 c 0,39,40
 110 281 110 281 114.5 327.5 c 128,-1,41
 119 374 119 374 125.5 412 c 128,-1,42
 132 450 132 450 138 473 c 1,43,44
 160 482 160 482 208 491 c 128,-1,45
 256 500 256 500 314 500 c 0,46,47
 398 500 398 500 454.5 475 c 128,-1,48
 511 450 511 450 539 394.5 c 128,-1,49
 567 339 567 339 567 245 c 2,50,-1
 567 0 l 1,51,-1
 0 0 l 1,14,-1
675 0 m 1,52,-1
 675 71 l 1,53,54
 681 71 681 71 685 68.5 c 128,-1,55
 689 66 689 66 691 61.5 c 128,-1,56
 693 57 693 57 694 50.5 c 128,-1,57
 695 44 695 44 695 36 c 256,58,59
 695 28 695 28 694 21 c 128,-1,60
 693 14 693 14 691 9.5 c 128,-1,61
 689 5 689 5 685 2.5 c 128,-1,62
 681 0 681 0 675 0 c 1,52,-1
EndSplineSet
PairPos2: "'kern' Horizontal Kerning in Arabic lookup 0 subtable" uniFEF3 dx=80 dy=0 dh=80 dv=0 dx=0 dy=0 dh=0 dv=0
PairPos2: "'kern' Horizontal Kerning in Arabic lookup 0 subtable" uniFB58 dx=80 dy=0 dh=80 dv=0 dx=0 dy=0 dh=0 dv=0
EndChar

StartChar: uniFEE3
Encoding: 65251 65251 261
Width: 642
GlyphClass: 2
Flags: W
AnchorPoint: "Anchor-1" 311 -90 basechar 0
AnchorPoint: "Anchor-0" 311 590 basechar 0
LayerCount: 2
Fore
SplineSet
0 0 m 1,0,-1
 0 71 l 1,1,-1
 547 71 l 1,2,-1
 489 30 l 1,3,-1
 489 245 l 2,4,5
 489 315 489 315 473 355 c 128,-1,6
 457 395 457 395 418.5 412 c 128,-1,7
 380 429 380 429 314 429 c 0,8,9
 272 429 272 429 230.5 423 c 128,-1,10
 189 417 189 417 166 407 c 1,11,-1
 213 455 l 1,12,13
 207 431 207 431 201 394.5 c 128,-1,14
 195 358 195 358 191 316 c 128,-1,15
 187 274 187 274 187 232 c 0,16,17
 187 189 187 189 191 148 c 128,-1,18
 195 107 195 107 200 77 c 128,-1,19
 205 47 205 47 208 35 c 1,20,-1
 134 14 l 1,21,22
 130 27 130 27 124.5 59 c 128,-1,23
 119 91 119 91 114.5 136 c 128,-1,24
 110 181 110 181 110 232 c 0,25,26
 110 281 110 281 114.5 327.5 c 128,-1,27
 119 374 119 374 125.5 412 c 128,-1,28
 132 450 132 450 138 473 c 1,29,30
 160 482 160 482 208 491 c 128,-1,31
 256 500 256 500 314 500 c 0,32,33
 398 500 398 500 454.5 475 c 128,-1,34
 511 450 511 450 539 394.5 c 128,-1,35
 567 339 567 339 567 245 c 2,36,-1
 567 0 l 1,37,-1
 0 0 l 1,0,-1
0 0 m 1,38,39
 -6 0 -6 0 -10 2.5 c 128,-1,40
 -14 5 -14 5 -16 9.5 c 128,-1,41
 -18 14 -18 14 -19 21 c 128,-1,42
 -20 28 -20 28 -20 36 c 0,43,44
 -20 47 -20 47 -18.5 54.5 c 128,-1,45
 -17 62 -17 62 -12.5 66.5 c 128,-1,46
 -8 71 -8 71 0 71 c 1,47,-1
 0 0 l 1,38,39
EndSplineSet
PairPos2: "'kern' Horizontal Kerning in Arabic lookup 0 subtable" uniFEF3 dx=80 dy=0 dh=80 dv=0 dx=0 dy=0 dh=0 dv=0
PairPos2: "'kern' Horizontal Kerning in Arabic lookup 0 subtable" uniFB58 dx=80 dy=0 dh=80 dv=0 dx=0 dy=0 dh=0 dv=0
EndChar

StartChar: uni06BA
Encoding: 1722 1722 266
Width: 666
GlyphClass: 2
Flags: W
AnchorPoint: "Anchor-1" 321 -330 basechar 0
AnchorPoint: "Anchor-0" 317 500 basechar 0
LayerCount: 2
Fore
SplineSet
321 -248 m 0,0,1
 242 -248 242 -248 178 -219 c 128,-1,2
 114 -190 114 -190 77 -138 c 128,-1,3
 40 -86 40 -86 40 -19 c 0,4,5
 40 2 40 2 43.5 36.5 c 128,-1,6
 47 71 47 71 52.5 113.5 c 128,-1,7
 58 156 58 156 65 199.5 c 128,-1,8
 72 243 72 243 78 282 c 1,9,-1
 155 270 l 1,10,11
 144 201 144 201 135.5 142.5 c 128,-1,12
 127 84 127 84 122.5 42.5 c 128,-1,13
 118 1 118 1 118 -19 c 0,14,15
 118 -65 118 -65 143.5 -100.5 c 128,-1,16
 169 -136 169 -136 215 -156.5 c 128,-1,17
 261 -177 261 -177 321 -177 c 256,18,19
 381 -177 381 -177 424 -158 c 128,-1,20
 467 -139 467 -139 490 -105 c 128,-1,21
 513 -71 513 -71 513 -25 c 2,22,-1
 513 500 l 1,23,-1
 591 500 l 1,24,-1
 591 -25 l 2,25,26
 591 -95 591 -95 554.5 -145 c 128,-1,27
 518 -195 518 -195 457 -221.5 c 128,-1,28
 396 -248 396 -248 321 -248 c 0,0,1
EndSplineSet
Substitution2: "'fina' Terminal Forms lookup 11 subtable" uniFB9F
Substitution2: "'medi' Medial Forms lookup 10 subtable" uni06BA.medi
Substitution2: "'init' Initial Forms lookup 9 subtable" uni06BA.init
PairPos2: "'kern' Horizontal Kerning in Arabic lookup 0 subtable" uniFEF3 dx=80 dy=0 dh=80 dv=0 dx=0 dy=0 dh=0 dv=0
PairPos2: "'kern' Horizontal Kerning in Arabic lookup 0 subtable" uniFB58 dx=80 dy=0 dh=80 dv=0 dx=0 dy=0 dh=0 dv=0
EndChar

StartChar: uniFB9F
Encoding: 64415 64415 269
Width: 699
GlyphClass: 2
Flags: W
AnchorPoint: "Anchor-1" 321 -330 basechar 0
AnchorPoint: "Anchor-0" 317 500 basechar 0
LayerCount: 2
Fore
SplineSet
591 0 m 1,0,-1
 591 71 l 1,1,-1
 699 71 l 1,2,-1
 699 0 l 1,3,-1
 591 0 l 1,0,-1
321 -248 m 0,4,5
 242 -248 242 -248 178 -219 c 128,-1,6
 114 -190 114 -190 77 -138 c 128,-1,7
 40 -86 40 -86 40 -19 c 0,8,9
 40 2 40 2 43.5 36.5 c 128,-1,10
 47 71 47 71 52.5 113.5 c 128,-1,11
 58 156 58 156 65 199.5 c 128,-1,12
 72 243 72 243 78 282 c 1,13,-1
 155 270 l 1,14,15
 144 201 144 201 135.5 142.5 c 128,-1,16
 127 84 127 84 122.5 42.5 c 128,-1,17
 118 1 118 1 118 -19 c 0,18,19
 118 -65 118 -65 143.5 -100.5 c 128,-1,20
 169 -136 169 -136 215 -156.5 c 128,-1,21
 261 -177 261 -177 321 -177 c 256,22,23
 381 -177 381 -177 424 -158 c 128,-1,24
 467 -139 467 -139 490 -105 c 128,-1,25
 513 -71 513 -71 513 -25 c 2,26,-1
 513 500 l 1,27,-1
 591 500 l 1,28,-1
 591 -25 l 2,29,30
 591 -95 591 -95 554.5 -145 c 128,-1,31
 518 -195 518 -195 457 -221.5 c 128,-1,32
 396 -248 396 -248 321 -248 c 0,4,5
699 0 m 1,33,-1
 699 71 l 1,34,35
 705 71 705 71 709 68.5 c 128,-1,36
 713 66 713 66 715 61.5 c 128,-1,37
 717 57 717 57 718 50.5 c 128,-1,38
 719 44 719 44 719 36 c 256,39,40
 719 28 719 28 718 21 c 128,-1,41
 717 14 717 14 715 9.5 c 128,-1,42
 713 5 713 5 709 2.5 c 128,-1,43
 705 0 705 0 699 0 c 1,33,-1
EndSplineSet
PairPos2: "'kern' Horizontal Kerning in Arabic lookup 0 subtable" uniFEF3 dx=80 dy=0 dh=80 dv=0 dx=0 dy=0 dh=0 dv=0
PairPos2: "'kern' Horizontal Kerning in Arabic lookup 0 subtable" uniFB58 dx=80 dy=0 dh=80 dv=0 dx=0 dy=0 dh=0 dv=0
EndChar

StartChar: uni0647
Encoding: 1607 1607 270
Width: 584
GlyphClass: 2
Flags: W
AnchorPoint: "Anchor-1" 292 -90 basechar 0
AnchorPoint: "Anchor-0" 292 590 basechar 0
LayerCount: 2
Fore
SplineSet
40 0 m 1,0,-1
 40 240 l 2,1,2
 40 336 40 336 68 393 c 128,-1,3
 96 450 96 450 152.5 475 c 128,-1,4
 209 500 209 500 292 500 c 0,5,6
 376 500 376 500 432 475 c 128,-1,7
 488 450 488 450 516 393 c 128,-1,8
 544 336 544 336 544 240 c 2,9,-1
 544 0 l 1,10,-1
 40 0 l 1,0,-1
118 37 m 1,11,-1
 77 71 l 1,12,-1
 507 71 l 1,13,-1
 467 37 l 1,14,-1
 467 240 l 2,15,16
 467 312 467 312 451 353.5 c 128,-1,17
 435 395 435 395 396.5 412 c 128,-1,18
 358 429 358 429 292 429 c 256,19,20
 226 429 226 429 188 412 c 128,-1,21
 150 395 150 395 134 353.5 c 128,-1,22
 118 312 118 312 118 240 c 2,23,-1
 118 37 l 1,11,-1
EndSplineSet
Substitution2: "'fina' Terminal Forms lookup 11 subtable" uniFEEA
Substitution2: "'medi' Medial Forms lookup 10 subtable" uniFEEC
Substitution2: "'init' Initial Forms lookup 9 subtable" uniFEEB
PairPos2: "'kern' Horizontal Kerning in Arabic lookup 0 subtable" uniFEF3 dx=80 dy=0 dh=80 dv=0 dx=0 dy=0 dh=0 dv=0
PairPos2: "'kern' Horizontal Kerning in Arabic lookup 0 subtable" uniFB58 dx=80 dy=0 dh=80 dv=0 dx=0 dy=0 dh=0 dv=0
EndChar

StartChar: uniFEEA
Encoding: 65258 65258 271
Width: 578
GlyphClass: 2
Flags: W
AnchorPoint: "Anchor-1" 273 -90 basechar 0
AnchorPoint: "Anchor-0" 273 590 basechar 0
LayerCount: 2
Fore
SplineSet
263 0 m 2,0,1
 176 0 176 0 127.5 26.5 c 128,-1,2
 79 53 79 53 59.5 108.5 c 128,-1,3
 40 164 40 164 40 250 c 256,4,5
 40 336 40 336 59.5 391.5 c 128,-1,6
 79 447 79 447 127.5 473.5 c 128,-1,7
 176 500 176 500 263 500 c 2,8,-1
 470 500 l 1,9,-1
 470 40 l 1,10,-1
 392 40 l 1,11,-1
 392 463 l 1,12,-1
 432 429 l 1,13,-1
 263 429 l 2,14,15
 205 429 205 429 173.5 415 c 128,-1,16
 142 401 142 401 130 362.5 c 128,-1,17
 118 324 118 324 118 250 c 256,18,19
 118 176 118 176 130 137.5 c 128,-1,20
 142 99 142 99 173.5 85 c 128,-1,21
 205 71 205 71 263 71 c 2,22,-1
 578 71 l 1,23,-1
 578 0 l 1,24,-1
 263 0 l 2,0,1
578 0 m 1,25,-1
 578 71 l 1,26,27
 584 71 584 71 588 68.5 c 128,-1,28
 592 66 592 66 594 61.5 c 128,-1,29
 596 57 596 57 597 50.5 c 128,-1,30
 598 44 598 44 598 36 c 256,31,32
 598 28 598 28 597 21 c 128,-1,33
 596 14 596 14 594 9.5 c 128,-1,34
 592 5 592 5 588 2.5 c 128,-1,35
 584 0 584 0 578 0 c 1,25,-1
EndSplineSet
PairPos2: "'kern' Horizontal Kerning in Arabic lookup 0 subtable" uniFEF3 dx=80 dy=0 dh=80 dv=0 dx=0 dy=0 dh=0 dv=0
PairPos2: "'kern' Horizontal Kerning in Arabic lookup 0 subtable" uniFB58 dx=80 dy=0 dh=80 dv=0 dx=0 dy=0 dh=0 dv=0
EndChar

StartChar: uniFEEC
Encoding: 65260 65260 272
Width: 660
GlyphClass: 2
Flags: W
AnchorPoint: "Anchor-1" 299 -370 basechar 0
AnchorPoint: "Anchor-0" 299 590 basechar 0
LayerCount: 2
Fore
SplineSet
0 0 m 1,0,-1
 0 71 l 1,1,-1
 552 71 l 1,2,-1
 475 0 l 1,3,-1
 475 245 l 2,4,5
 475 314 475 314 459 354 c 128,-1,6
 443 394 443 394 405 411.5 c 128,-1,7
 367 429 367 429 302 429 c 0,8,9
 257 429 257 429 216 423 c 128,-1,10
 175 417 175 417 151 407 c 1,11,-1
 198 455 l 1,12,13
 192 431 192 431 186.5 394.5 c 128,-1,14
 181 358 181 358 177 315.5 c 128,-1,15
 173 273 173 273 173 231 c 0,16,17
 173 188 173 188 177 147.5 c 128,-1,18
 181 107 181 107 186 77 c 128,-1,19
 191 47 191 47 194 35 c 1,20,-1
 120 14 l 1,21,22
 116 27 116 27 110 59.5 c 128,-1,23
 104 92 104 92 99.5 136.5 c 128,-1,24
 95 181 95 181 95 231 c 256,25,26
 95 281 95 281 99.5 328 c 128,-1,27
 104 375 104 375 111 412.5 c 128,-1,28
 118 450 118 450 123 473 c 1,29,30
 145 482 145 482 193 491 c 128,-1,31
 241 500 241 500 300 500 c 0,32,33
 384 500 384 500 440 475 c 128,-1,34
 496 450 496 450 524 394.5 c 128,-1,35
 552 339 552 339 552 245 c 2,36,-1
 552 0 l 1,37,-1
 0 0 l 1,0,-1
299 -247 m 0,38,39
 241 -247 241 -247 193 -241.5 c 128,-1,40
 145 -236 145 -236 123 -230 c 1,41,42
 118 -215 118 -215 111 -191.5 c 128,-1,43
 104 -168 104 -168 99.5 -138 c 128,-1,44
 95 -108 95 -108 95 -76 c 256,45,46
 95 -44 95 -44 99.5 -16 c 128,-1,47
 104 12 104 12 110 32.5 c 128,-1,48
 116 53 116 53 120 61 c 1,49,-1
 190 32 l 1,50,51
 187 24 187 24 183 5 c 128,-1,52
 179 -14 179 -14 176 -36.5 c 128,-1,53
 173 -59 173 -59 173 -78 c 0,54,55
 173 -98 173 -98 176 -121 c 128,-1,56
 179 -144 179 -144 184.5 -166 c 128,-1,57
 190 -188 190 -188 196 -205 c 1,58,-1
 144 -161 l 1,59,60
 167 -168 167 -168 211.5 -172 c 128,-1,61
 256 -176 256 -176 302 -176 c 0,62,63
 371 -176 371 -176 408.5 -167 c 128,-1,64
 446 -158 446 -158 460.5 -138 c 128,-1,65
 475 -118 475 -118 475 -85 c 2,66,-1
 475 71 l 1,67,-1
 552 71 l 1,68,-1
 552 -85 l 2,69,70
 552 -144 552 -144 524 -180 c 128,-1,71
 496 -216 496 -216 440 -231.5 c 128,-1,72
 384 -247 384 -247 299 -247 c 0,38,39
552 0 m 1,73,-1
 552 71 l 1,74,-1
 660 71 l 1,75,-1
 660 0 l 1,76,-1
 552 0 l 1,73,-1
660 0 m 1,77,-1
 660 71 l 1,78,79
 666 71 666 71 670 68.5 c 128,-1,80
 674 66 674 66 676 61.5 c 128,-1,81
 678 57 678 57 679 50.5 c 128,-1,82
 680 44 680 44 680 36 c 256,83,84
 680 28 680 28 679 21 c 128,-1,85
 678 14 678 14 676 9.5 c 128,-1,86
 674 5 674 5 670 2.5 c 128,-1,87
 666 0 666 0 660 0 c 1,77,-1
0 0 m 1,88,89
 -6 0 -6 0 -10 2.5 c 128,-1,90
 -14 5 -14 5 -16 9.5 c 128,-1,91
 -18 14 -18 14 -19 21 c 128,-1,92
 -20 28 -20 28 -20 36 c 0,93,94
 -20 47 -20 47 -18.5 54.5 c 128,-1,95
 -17 62 -17 62 -12.5 66.5 c 128,-1,96
 -8 71 -8 71 0 71 c 1,97,-1
 0 0 l 1,88,89
EndSplineSet
PairPos2: "'kern' Horizontal Kerning in Arabic lookup 0 subtable" uniFEF3 dx=80 dy=0 dh=80 dv=0 dx=0 dy=0 dh=0 dv=0
PairPos2: "'kern' Horizontal Kerning in Arabic lookup 0 subtable" uniFB58 dx=80 dy=0 dh=80 dv=0 dx=0 dy=0 dh=0 dv=0
EndChar

StartChar: uniFEEB
Encoding: 65259 65259 273
Width: 796
GlyphClass: 2
Flags: W
AnchorPoint: "Anchor-1" 387 -90 basechar 0
AnchorPoint: "Anchor-0" 386 634 basechar 0
LayerCount: 2
Fore
SplineSet
0 0 m 1,0,-1
 0 71 l 1,1,-1
 692 71 l 1,2,-1
 643 29 l 1,3,-1
 643 199 l 2,4,5
 643 293 643 293 614 353 c 128,-1,6
 585 413 585 413 526.5 442 c 128,-1,7
 468 471 468 471 380 471 c 0,8,9
 343 471 343 471 302 467 c 128,-1,10
 261 463 261 463 221 457 c 128,-1,11
 181 451 181 451 147 445 c 1,12,-1
 136 504 l 1,13,14
 159 510 159 510 199.5 519.5 c 128,-1,15
 240 529 240 529 289 536 c 128,-1,16
 338 543 338 543 386 543 c 0,17,18
 449 543 449 543 509 526 c 128,-1,19
 569 509 569 509 616.5 470 c 128,-1,20
 664 431 664 431 692 364.5 c 128,-1,21
 720 298 720 298 720 199 c 2,22,-1
 720 0 l 1,23,-1
 0 0 l 1,0,-1
119 71 m 1,24,-1
 119 151 l 2,25,26
 119 199 119 199 143 240 c 128,-1,27
 167 281 167 281 209 306 c 128,-1,28
 251 331 251 331 303 331 c 0,29,30
 356 331 356 331 397.5 306 c 128,-1,31
 439 281 439 281 462.5 240 c 128,-1,32
 486 199 486 199 486 151 c 2,33,-1
 486 71 l 1,34,-1
 408 71 l 1,35,-1
 408 151 l 2,36,37
 408 182 408 182 394 206.5 c 128,-1,38
 380 231 380 231 356.5 245.5 c 128,-1,39
 333 260 333 260 303 260 c 0,40,41
 274 260 274 260 250 245.5 c 128,-1,42
 226 231 226 231 211.5 206.5 c 128,-1,43
 197 182 197 182 197 151 c 2,44,-1
 197 71 l 1,45,-1
 119 71 l 1,24,-1
0 0 m 1,46,47
 -6 0 -6 0 -10 2.5 c 128,-1,48
 -14 5 -14 5 -16 9.5 c 128,-1,49
 -18 14 -18 14 -19 21 c 128,-1,50
 -20 28 -20 28 -20 36 c 0,51,52
 -20 47 -20 47 -18.5 54.5 c 128,-1,53
 -17 62 -17 62 -12.5 66.5 c 128,-1,54
 -8 71 -8 71 0 71 c 1,55,-1
 0 0 l 1,46,47
EndSplineSet
PairPos2: "'kern' Horizontal Kerning in Arabic lookup 0 subtable" uniFEF3 dx=80 dy=0 dh=80 dv=0 dx=0 dy=0 dh=0 dv=0
PairPos2: "'kern' Horizontal Kerning in Arabic lookup 0 subtable" uniFB58 dx=80 dy=0 dh=80 dv=0 dx=0 dy=0 dh=0 dv=0
EndChar

StartChar: uniFBA7
Encoding: 64423 64423 275
Width: 578
GlyphClass: 2
Flags: W
AnchorPoint: "Anchor-1" 273 -90 basechar 0
AnchorPoint: "Anchor-0" 273 590 basechar 0
LayerCount: 2
Fore
SplineSet
40 0 m 1,0,-1
 40 250 l 2,1,2
 40 340 40 340 60.5 395 c 128,-1,3
 81 450 81 450 130 475 c 128,-1,4
 179 500 179 500 263 500 c 2,5,-1
 470 500 l 1,6,-1
 470 52 l 1,7,-1
 451 71 l 1,8,-1
 578 71 l 1,9,-1
 578 0 l 1,10,-1
 392 0 l 1,11,-1
 392 464 l 1,12,-1
 423 429 l 1,13,-1
 263 429 l 2,14,15
 205 429 205 429 173.5 415 c 128,-1,16
 142 401 142 401 130 362.5 c 128,-1,17
 118 324 118 324 118 250 c 2,18,-1
 118 0 l 1,19,-1
 40 0 l 1,0,-1
578 0 m 1,20,-1
 578 71 l 1,21,22
 584 71 584 71 588 68.5 c 128,-1,23
 592 66 592 66 594 61.5 c 128,-1,24
 596 57 596 57 597 50.5 c 128,-1,25
 598 44 598 44 598 36 c 256,26,27
 598 28 598 28 597 21 c 128,-1,28
 596 14 596 14 594 9.5 c 128,-1,29
 592 5 592 5 588 2.5 c 128,-1,30
 584 0 584 0 578 0 c 1,20,-1
EndSplineSet
PairPos2: "'kern' Horizontal Kerning in Arabic lookup 0 subtable" uniFEF3 dx=80 dy=0 dh=80 dv=0 dx=0 dy=0 dh=0 dv=0
PairPos2: "'kern' Horizontal Kerning in Arabic lookup 0 subtable" uniFB58 dx=80 dy=0 dh=80 dv=0 dx=0 dy=0 dh=0 dv=0
EndChar

StartChar: uniFBA9
Encoding: 64425 64425 276
Width: 578
GlyphClass: 2
Flags: W
AnchorPoint: "Anchor-1" 290 -407 basechar 0
AnchorPoint: "Anchor-0" 290 282 basechar 0
LayerCount: 2
Fore
SplineSet
470 -307 m 1,0,1
 433 -312 433 -312 400 -314 c 128,-1,2
 367 -316 367 -316 342 -316 c 0,3,4
 276 -316 276 -316 231.5 -297.5 c 128,-1,5
 187 -279 187 -279 161 -237.5 c 128,-1,6
 135 -196 135 -196 123 -129 c 128,-1,7
 111 -62 111 -62 110 35 c 1,8,-1
 147 0 l 1,9,-1
 0 0 l 1,10,-1
 0 71 l 1,11,-1
 189 71 l 1,12,13
 191 -30 191 -30 199 -92.5 c 128,-1,14
 207 -155 207 -155 224.5 -188 c 128,-1,15
 242 -221 242 -221 271 -233 c 128,-1,16
 300 -245 300 -245 343 -245 c 0,17,18
 355 -245 355 -245 368 -244.5 c 128,-1,19
 381 -244 381 -244 398.5 -242 c 128,-1,20
 416 -240 416 -240 441 -238 c 1,21,-1
 393 -309 l 1,22,-1
 393 71 l 1,23,-1
 578 71 l 1,24,-1
 578 0 l 1,25,-1
 435 0 l 1,26,-1
 470 35 l 1,27,-1
 470 -307 l 1,0,1
578 0 m 1,28,-1
 578 71 l 1,29,30
 584 71 584 71 588 68.5 c 128,-1,31
 592 66 592 66 594 61.5 c 128,-1,32
 596 57 596 57 597 50.5 c 128,-1,33
 598 44 598 44 598 36 c 256,34,35
 598 28 598 28 597 21 c 128,-1,36
 596 14 596 14 594 9.5 c 128,-1,37
 592 5 592 5 588 2.5 c 128,-1,38
 584 0 584 0 578 0 c 1,28,-1
0 0 m 1,39,40
 -6 0 -6 0 -10 2.5 c 128,-1,41
 -14 5 -14 5 -16 9.5 c 128,-1,42
 -18 14 -18 14 -19 21 c 128,-1,43
 -20 28 -20 28 -20 36 c 0,44,45
 -20 47 -20 47 -18.5 54.5 c 128,-1,46
 -17 62 -17 62 -12.5 66.5 c 128,-1,47
 -8 71 -8 71 0 71 c 1,48,-1
 0 0 l 1,39,40
EndSplineSet
PairPos2: "'kern' Horizontal Kerning in Arabic lookup 0 subtable" uniFEF3 dx=80 dy=0 dh=80 dv=0 dx=0 dy=0 dh=0 dv=0
PairPos2: "'kern' Horizontal Kerning in Arabic lookup 0 subtable" uniFB58 dx=80 dy=0 dh=80 dv=0 dx=0 dy=0 dh=0 dv=0
EndChar

StartChar: uniFBA8
Encoding: 64424 64424 277
Width: 267
GlyphClass: 2
Flags: W
AnchorPoint: "Anchor-1" 148 -363 basechar 0
AnchorPoint: "Anchor-0" 148 573 basechar 0
LayerCount: 2
Fore
SplineSet
30 -300 m 1,0,-1
 80 -92 l 1,1,-1
 148 -92 l 1,2,-1
 107 -300 l 1,3,-1
 30 -300 l 1,0,-1
0 0 m 1,4,5
 -6 0 -6 0 -10 2.5 c 128,-1,6
 -14 5 -14 5 -16 9.5 c 128,-1,7
 -18 14 -18 14 -19 21 c 128,-1,8
 -20 28 -20 28 -20 36 c 0,9,10
 -20 47 -20 47 -18.5 54.5 c 128,-1,11
 -17 62 -17 62 -12.5 66.5 c 128,-1,12
 -8 71 -8 71 0 71 c 1,13,-1
 0 0 l 1,4,5
0 0 m 1,14,-1
 0 71 l 1,15,-1
 144 71 l 1,16,-1
 108 42 l 1,17,-1
 108 500 l 1,18,-1
 186 500 l 1,19,-1
 186 0 l 1,20,-1
 0 0 l 1,14,-1
EndSplineSet
PairPos2: "'kern' Horizontal Kerning in Arabic lookup 0 subtable" uniFEF3 dx=80 dy=0 dh=80 dv=0 dx=0 dy=0 dh=0 dv=0
PairPos2: "'kern' Horizontal Kerning in Arabic lookup 0 subtable" uniFB58 dx=80 dy=0 dh=80 dv=0 dx=0 dy=0 dh=0 dv=0
EndChar

StartChar: uni06C2.init
Encoding: 65552 -1 281
Width: 267
GlyphClass: 2
Flags: W
AnchorPoint: "Anchor-1" 148 -363 basechar 0
AnchorPoint: "Anchor-0" 148 831 basechar 0
LayerCount: 2
Fore
SplineSet
30 -300 m 1,0,-1
 80 -92 l 1,1,-1
 148 -92 l 1,2,-1
 107 -300 l 1,3,-1
 30 -300 l 1,0,-1
0 0 m 1,4,5
 -6 0 -6 0 -10 2.5 c 128,-1,6
 -14 5 -14 5 -16 9.5 c 128,-1,7
 -18 14 -18 14 -19 21 c 128,-1,8
 -20 28 -20 28 -20 36 c 0,9,10
 -20 47 -20 47 -18.5 54.5 c 128,-1,11
 -17 62 -17 62 -12.5 66.5 c 128,-1,12
 -8 71 -8 71 0 71 c 1,13,-1
 0 0 l 1,4,5
0 0 m 1,14,-1
 0 71 l 1,15,-1
 144 71 l 1,16,-1
 108 42 l 1,17,-1
 108 500 l 1,18,-1
 186 500 l 1,19,-1
 186 0 l 1,20,-1
 0 0 l 1,14,-1
101 573 m 1,21,22
 85 593 85 593 76.5 612 c 128,-1,23
 68 631 68 631 68 652 c 0,24,25
 68 681 68 681 82.5 704 c 128,-1,26
 97 727 97 727 121 740 c 128,-1,27
 145 753 145 753 173 753 c 0,28,29
 189 753 189 753 205 748.5 c 128,-1,30
 221 744 221 744 233 736 c 1,31,-1
 207 691 l 1,32,33
 199 696 199 696 191.5 697.5 c 128,-1,34
 184 699 184 699 176 699 c 0,35,36
 153 699 153 699 139.5 686 c 128,-1,37
 126 673 126 673 126 652 c 0,38,39
 126 639 126 639 131.5 627 c 128,-1,40
 137 615 137 615 148 601 c 1,41,-1
 101 573 l 1,21,22
49 573 m 1,42,-1
 49 626 l 1,43,-1
 246 626 l 1,44,-1
 246 573 l 1,45,-1
 49 573 l 1,42,-1
EndSplineSet
PairPos2: "'kern' Horizontal Kerning in Arabic lookup 0 subtable" uniFEF3 dx=80 dy=0 dh=80 dv=0 dx=0 dy=0 dh=0 dv=0
PairPos2: "'kern' Horizontal Kerning in Arabic lookup 0 subtable" uniFB58 dx=80 dy=0 dh=80 dv=0 dx=0 dy=0 dh=0 dv=0
EndChar

StartChar: uni06BE
Encoding: 1726 1726 282
Width: 787
GlyphClass: 2
Flags: W
AnchorPoint: "Anchor-1" 377 -90 basechar 0
AnchorPoint: "Anchor-0" 377 646 basechar 0
LayerCount: 2
Fore
SplineSet
40 0 m 1,0,-1
 40 71 l 1,1,-1
 682 71 l 1,2,-1
 633 29 l 1,3,-1
 633 199 l 2,4,5
 633 293 633 293 604 353 c 128,-1,6
 575 413 575 413 517 442 c 128,-1,7
 459 471 459 471 371 471 c 0,8,9
 334 471 334 471 292.5 467 c 128,-1,10
 251 463 251 463 211 457 c 128,-1,11
 171 451 171 451 137 445 c 1,12,-1
 127 504 l 1,13,14
 150 510 150 510 190.5 519.5 c 128,-1,15
 231 529 231 529 280 536 c 128,-1,16
 329 543 329 543 377 543 c 0,17,18
 440 543 440 543 500 526 c 128,-1,19
 560 509 560 509 607.5 470 c 128,-1,20
 655 431 655 431 683 364.5 c 128,-1,21
 711 298 711 298 711 199 c 2,22,-1
 711 0 l 1,23,-1
 40 0 l 1,0,-1
110 71 m 1,24,-1
 110 151 l 2,25,26
 110 199 110 199 134 240 c 128,-1,27
 158 281 158 281 200 306 c 128,-1,28
 242 331 242 331 294 331 c 0,29,30
 347 331 347 331 388 306 c 128,-1,31
 429 281 429 281 453 240 c 128,-1,32
 477 199 477 199 477 151 c 2,33,-1
 477 71 l 1,34,-1
 399 71 l 1,35,-1
 399 151 l 2,36,37
 399 182 399 182 385 206.5 c 128,-1,38
 371 231 371 231 347 245.5 c 128,-1,39
 323 260 323 260 294 260 c 256,40,41
 265 260 265 260 241 245.5 c 128,-1,42
 217 231 217 231 202.5 206.5 c 128,-1,43
 188 182 188 182 188 151 c 2,44,-1
 188 71 l 1,45,-1
 110 71 l 1,24,-1
EndSplineSet
Substitution2: "'fina' Terminal Forms lookup 11 subtable" uniFBAB
Substitution2: "'medi' Medial Forms lookup 10 subtable" uniFBAD
Substitution2: "'init' Initial Forms lookup 9 subtable" uniFBAC
PairPos2: "'kern' Horizontal Kerning in Arabic lookup 0 subtable" uniFEF3 dx=80 dy=0 dh=80 dv=0 dx=0 dy=0 dh=0 dv=0
PairPos2: "'kern' Horizontal Kerning in Arabic lookup 0 subtable" uniFB58 dx=80 dy=0 dh=80 dv=0 dx=0 dy=0 dh=0 dv=0
EndChar

StartChar: uniFBAB
Encoding: 64427 64427 283
Width: 819
GlyphClass: 2
Flags: W
AnchorPoint: "Anchor-1" 377 -90 basechar 0
AnchorPoint: "Anchor-0" 377 646 basechar 0
LayerCount: 2
Fore
SplineSet
711 0 m 1,0,-1
 711 71 l 1,1,-1
 819 71 l 1,2,-1
 819 0 l 1,3,-1
 711 0 l 1,0,-1
40 0 m 1,4,-1
 40 71 l 1,5,-1
 682 71 l 1,6,-1
 633 29 l 1,7,-1
 633 199 l 2,8,9
 633 293 633 293 604 353 c 128,-1,10
 575 413 575 413 517 442 c 128,-1,11
 459 471 459 471 371 471 c 0,12,13
 334 471 334 471 292.5 467 c 128,-1,14
 251 463 251 463 211 457 c 128,-1,15
 171 451 171 451 137 445 c 1,16,-1
 127 504 l 1,17,18
 150 510 150 510 190.5 519.5 c 128,-1,19
 231 529 231 529 280 536 c 128,-1,20
 329 543 329 543 377 543 c 0,21,22
 440 543 440 543 500 526 c 128,-1,23
 560 509 560 509 607.5 470 c 128,-1,24
 655 431 655 431 683 364.5 c 128,-1,25
 711 298 711 298 711 199 c 2,26,-1
 711 0 l 1,27,-1
 40 0 l 1,4,-1
110 71 m 1,28,-1
 110 151 l 2,29,30
 110 199 110 199 134 240 c 128,-1,31
 158 281 158 281 200 306 c 128,-1,32
 242 331 242 331 294 331 c 0,33,34
 347 331 347 331 388 306 c 128,-1,35
 429 281 429 281 453 240 c 128,-1,36
 477 199 477 199 477 151 c 2,37,-1
 477 71 l 1,38,-1
 399 71 l 1,39,-1
 399 151 l 2,40,41
 399 182 399 182 385 206.5 c 128,-1,42
 371 231 371 231 347 245.5 c 128,-1,43
 323 260 323 260 294 260 c 256,44,45
 265 260 265 260 241 245.5 c 128,-1,46
 217 231 217 231 202.5 206.5 c 128,-1,47
 188 182 188 182 188 151 c 2,48,-1
 188 71 l 1,49,-1
 110 71 l 1,28,-1
819 0 m 1,50,-1
 819 71 l 1,51,52
 825 71 825 71 829 68.5 c 128,-1,53
 833 66 833 66 835 61.5 c 128,-1,54
 837 57 837 57 838 50.5 c 128,-1,55
 839 44 839 44 839 36 c 256,56,57
 839 28 839 28 838 21 c 128,-1,58
 837 14 837 14 835 9.5 c 128,-1,59
 833 5 833 5 829 2.5 c 128,-1,60
 825 0 825 0 819 0 c 1,50,-1
EndSplineSet
PairPos2: "'kern' Horizontal Kerning in Arabic lookup 0 subtable" uniFEF3 dx=80 dy=0 dh=80 dv=0 dx=0 dy=0 dh=0 dv=0
PairPos2: "'kern' Horizontal Kerning in Arabic lookup 0 subtable" uniFB58 dx=80 dy=0 dh=80 dv=0 dx=0 dy=0 dh=0 dv=0
EndChar

StartChar: uniFBAD
Encoding: 64429 64429 284
Width: 819
GlyphClass: 2
Flags: W
AnchorPoint: "Anchor-1" 377 -90 basechar 0
AnchorPoint: "Anchor-0" 377 646 basechar 0
LayerCount: 2
Fore
SplineSet
0 0 m 1,0,-1
 0 71 l 1,1,-1
 40 71 l 1,2,-1
 40 0 l 1,3,-1
 0 0 l 1,0,-1
40 0 m 1,4,-1
 40 71 l 1,5,-1
 682 71 l 1,6,-1
 633 29 l 1,7,-1
 633 199 l 2,8,9
 633 293 633 293 604 353 c 128,-1,10
 575 413 575 413 517 442 c 128,-1,11
 459 471 459 471 371 471 c 0,12,13
 334 471 334 471 292.5 467 c 128,-1,14
 251 463 251 463 211 457 c 128,-1,15
 171 451 171 451 137 445 c 1,16,-1
 127 504 l 1,17,18
 150 510 150 510 190.5 519.5 c 128,-1,19
 231 529 231 529 280 536 c 128,-1,20
 329 543 329 543 377 543 c 0,21,22
 440 543 440 543 500 526 c 128,-1,23
 560 509 560 509 607.5 470 c 128,-1,24
 655 431 655 431 683 364.5 c 128,-1,25
 711 298 711 298 711 199 c 2,26,-1
 711 0 l 1,27,-1
 40 0 l 1,4,-1
110 71 m 1,28,-1
 110 151 l 2,29,30
 110 199 110 199 134 240 c 128,-1,31
 158 281 158 281 200 306 c 128,-1,32
 242 331 242 331 294 331 c 0,33,34
 347 331 347 331 388 306 c 128,-1,35
 429 281 429 281 453 240 c 128,-1,36
 477 199 477 199 477 151 c 2,37,-1
 477 71 l 1,38,-1
 399 71 l 1,39,-1
 399 151 l 2,40,41
 399 182 399 182 385 206.5 c 128,-1,42
 371 231 371 231 347 245.5 c 128,-1,43
 323 260 323 260 294 260 c 256,44,45
 265 260 265 260 241 245.5 c 128,-1,46
 217 231 217 231 202.5 206.5 c 128,-1,47
 188 182 188 182 188 151 c 2,48,-1
 188 71 l 1,49,-1
 110 71 l 1,28,-1
819 0 m 1,50,-1
 819 71 l 1,51,52
 825 71 825 71 829 68.5 c 128,-1,53
 833 66 833 66 835 61.5 c 128,-1,54
 837 57 837 57 838 50.5 c 128,-1,55
 839 44 839 44 839 36 c 256,56,57
 839 28 839 28 838 21 c 128,-1,58
 837 14 837 14 835 9.5 c 128,-1,59
 833 5 833 5 829 2.5 c 128,-1,60
 825 0 825 0 819 0 c 1,50,-1
711 0 m 1,61,-1
 711 71 l 1,62,-1
 819 71 l 1,63,-1
 819 0 l 1,64,-1
 711 0 l 1,61,-1
0 0 m 1,65,66
 -6 0 -6 0 -10 2.5 c 128,-1,67
 -14 5 -14 5 -16 9.5 c 128,-1,68
 -18 14 -18 14 -19 21 c 128,-1,69
 -20 28 -20 28 -20 36 c 0,70,71
 -20 47 -20 47 -18.5 54.5 c 128,-1,72
 -17 62 -17 62 -12.5 66.5 c 128,-1,73
 -8 71 -8 71 0 71 c 1,74,-1
 0 0 l 1,65,66
EndSplineSet
PairPos2: "'kern' Horizontal Kerning in Arabic lookup 0 subtable" uniFEF3 dx=80 dy=0 dh=80 dv=0 dx=0 dy=0 dh=0 dv=0
PairPos2: "'kern' Horizontal Kerning in Arabic lookup 0 subtable" uniFB58 dx=80 dy=0 dh=80 dv=0 dx=0 dy=0 dh=0 dv=0
EndChar

StartChar: uni0648
Encoding: 1608 1608 290
Width: 545
GlyphClass: 2
Flags: W
AnchorPoint: "Anchor-1" 272 -350 basechar 0
AnchorPoint: "Anchor-0" 272 590 basechar 0
LayerCount: 2
Fore
SplineSet
233 -221 m 0,0,1
 198 -221 198 -221 158.5 -215.5 c 128,-1,2
 119 -210 119 -210 72 -200 c 1,3,-1
 84 -137 l 1,4,5
 137 -144 137 -144 172.5 -147 c 128,-1,6
 208 -150 208 -150 233 -150 c 0,7,8
 316 -150 316 -150 354 -118.5 c 128,-1,9
 392 -87 392 -87 392 -27 c 2,10,-1
 392 455 l 1,11,-1
 432 429 l 1,12,-1
 263 429 l 2,13,14
 205 429 205 429 173.5 415 c 128,-1,15
 142 401 142 401 130 362.5 c 128,-1,16
 118 324 118 324 118 250 c 256,17,18
 118 176 118 176 130 137.5 c 128,-1,19
 142 99 142 99 173.5 85 c 128,-1,20
 205 71 205 71 263 71 c 2,21,-1
 392 71 l 1,22,-1
 392 0 l 1,23,-1
 263 0 l 2,24,25
 176 0 176 0 127.5 26.5 c 128,-1,26
 79 53 79 53 59.5 108.5 c 128,-1,27
 40 164 40 164 40 250 c 256,28,29
 40 336 40 336 59.5 391.5 c 128,-1,30
 79 447 79 447 127.5 473.5 c 128,-1,31
 176 500 176 500 263 500 c 2,32,-1
 470 500 l 1,33,-1
 470 -26 l 2,34,35
 470 -88 470 -88 441.5 -132 c 128,-1,36
 413 -176 413 -176 360 -198.5 c 128,-1,37
 307 -221 307 -221 233 -221 c 0,0,1
EndSplineSet
Substitution2: "'fina' Terminal Forms lookup 11 subtable" uniFEEE
PairPos2: "'kern' Horizontal Kerning in Arabic lookup 0 subtable" uniFEF3 dx=80 dy=0 dh=80 dv=0 dx=0 dy=0 dh=0 dv=0
PairPos2: "'kern' Horizontal Kerning in Arabic lookup 0 subtable" uniFB58 dx=80 dy=0 dh=80 dv=0 dx=0 dy=0 dh=0 dv=0
EndChar

StartChar: uniFEEE
Encoding: 65262 65262 291
Width: 578
GlyphClass: 2
Flags: W
AnchorPoint: "Anchor-1" 272 -350 basechar 0
AnchorPoint: "Anchor-0" 272 590 basechar 0
LayerCount: 2
Fore
SplineSet
470 0 m 1,0,-1
 470 71 l 1,1,-1
 578 71 l 1,2,-1
 578 0 l 1,3,-1
 470 0 l 1,0,-1
233 -221 m 0,4,5
 198 -221 198 -221 158.5 -215.5 c 128,-1,6
 119 -210 119 -210 72 -200 c 1,7,-1
 84 -137 l 1,8,9
 137 -144 137 -144 172.5 -147 c 128,-1,10
 208 -150 208 -150 233 -150 c 0,11,12
 316 -150 316 -150 354 -118.5 c 128,-1,13
 392 -87 392 -87 392 -27 c 2,14,-1
 392 455 l 1,15,-1
 432 429 l 1,16,-1
 263 429 l 2,17,18
 205 429 205 429 173.5 415 c 128,-1,19
 142 401 142 401 130 362.5 c 128,-1,20
 118 324 118 324 118 250 c 256,21,22
 118 176 118 176 130 137.5 c 128,-1,23
 142 99 142 99 173.5 85 c 128,-1,24
 205 71 205 71 263 71 c 2,25,-1
 392 71 l 1,26,-1
 392 0 l 1,27,-1
 263 0 l 2,28,29
 176 0 176 0 127.5 26.5 c 128,-1,30
 79 53 79 53 59.5 108.5 c 128,-1,31
 40 164 40 164 40 250 c 256,32,33
 40 336 40 336 59.5 391.5 c 128,-1,34
 79 447 79 447 127.5 473.5 c 128,-1,35
 176 500 176 500 263 500 c 2,36,-1
 470 500 l 1,37,-1
 470 -26 l 2,38,39
 470 -88 470 -88 441.5 -132 c 128,-1,40
 413 -176 413 -176 360 -198.5 c 128,-1,41
 307 -221 307 -221 233 -221 c 0,4,5
578 0 m 1,42,-1
 578 71 l 1,43,44
 584 71 584 71 588 68.5 c 128,-1,45
 592 66 592 66 594 61.5 c 128,-1,46
 596 57 596 57 597 50.5 c 128,-1,47
 598 44 598 44 598 36 c 256,48,49
 598 28 598 28 597 21 c 128,-1,50
 596 14 596 14 594 9.5 c 128,-1,51
 592 5 592 5 588 2.5 c 128,-1,52
 584 0 584 0 578 0 c 1,42,-1
EndSplineSet
PairPos2: "'kern' Horizontal Kerning in Arabic lookup 0 subtable" uniFEF3 dx=80 dy=0 dh=80 dv=0 dx=0 dy=0 dh=0 dv=0
PairPos2: "'kern' Horizontal Kerning in Arabic lookup 0 subtable" uniFB58 dx=80 dy=0 dh=80 dv=0 dx=0 dy=0 dh=0 dv=0
EndChar

StartChar: uni0649
Encoding: 1609 1609 294
Width: 896
GlyphClass: 2
Flags: W
AnchorPoint: "Anchor-1" 435 -340 basechar 0
AnchorPoint: "Anchor-0" 109 257 basechar 0
LayerCount: 2
Fore
SplineSet
315 -248 m 2,0,1
 257 -248 257 -248 207 -231.5 c 128,-1,2
 157 -215 157 -215 119.5 -185.5 c 128,-1,3
 82 -156 82 -156 61 -115 c 128,-1,4
 40 -74 40 -74 40 -25 c 0,5,6
 40 -5 40 -5 43.5 28 c 128,-1,7
 47 61 47 61 52.5 102.5 c 128,-1,8
 58 144 58 144 65 187 c 1,9,-1
 142 176 l 1,10,11
 131 109 131 109 124.5 54 c 128,-1,12
 118 -1 118 -1 118 -24 c 0,13,14
 118 -69 118 -69 143 -103.5 c 128,-1,15
 168 -138 168 -138 212.5 -157.5 c 128,-1,16
 257 -177 257 -177 315 -177 c 2,17,-1
 598 -177 l 2,18,19
 674 -177 674 -177 713.5 -135.5 c 128,-1,20
 753 -94 753 -94 753 -9 c 0,21,22
 753 32 753 32 740.5 55.5 c 128,-1,23
 728 79 728 79 696.5 95 c 128,-1,24
 665 111 665 111 607 128 c 0,25,26
 556 143 556 143 515 157 c 128,-1,27
 474 171 474 171 445 190 c 128,-1,28
 416 209 416 209 400.5 239 c 128,-1,29
 385 269 385 269 385 317 c 0,30,31
 385 379 385 379 410.5 419.5 c 128,-1,32
 436 460 436 460 484 480 c 128,-1,33
 532 500 532 500 600 500 c 0,34,35
 634 500 634 500 678 495 c 128,-1,36
 722 490 722 490 801 477 c 1,37,-1
 792 412 l 1,38,39
 722 420 722 420 675 424.5 c 128,-1,40
 628 429 628 429 597 429 c 0,41,42
 551 429 551 429 521 417.5 c 128,-1,43
 491 406 491 406 476.5 382.5 c 128,-1,44
 462 359 462 359 462 321 c 0,45,46
 462 290 462 290 472 271 c 128,-1,47
 482 252 482 252 503 239.5 c 128,-1,48
 524 227 524 227 555 217.5 c 128,-1,49
 586 208 586 208 628 196 c 0,50,51
 675 183 675 183 712 167.5 c 128,-1,52
 749 152 749 152 775.5 129.5 c 128,-1,53
 802 107 802 107 816 72.5 c 128,-1,54
 830 38 830 38 830 -13 c 0,55,56
 830 -82 830 -82 803 -135 c 128,-1,57
 776 -188 776 -188 724.5 -218 c 128,-1,58
 673 -248 673 -248 598 -248 c 2,59,-1
 315 -248 l 2,0,1
EndSplineSet
Substitution2: "'fina' Terminal Forms lookup 11 subtable" uniFEF0
Substitution2: "'medi' Medial Forms lookup 10 subtable" uniFBE9
Substitution2: "'init' Initial Forms lookup 9 subtable" uniFBE8
PairPos2: "'kern' Horizontal Kerning in Arabic lookup 0 subtable" uniFEF3 dx=80 dy=0 dh=80 dv=0 dx=0 dy=0 dh=0 dv=0
PairPos2: "'kern' Horizontal Kerning in Arabic lookup 0 subtable" uniFB58 dx=80 dy=0 dh=80 dv=0 dx=0 dy=0 dh=0 dv=0
EndChar

